{
.appVersion = "3207";
.formatVersion = 3;
customParameters = (
{
name = fsType;
value = (
);
},
{
name = "Use Typo Metrics";
value = 1;
}
);
date = "2023-07-27 12:25:17 +0000";
familyName = Mako;
featurePrefixes = (
{
automatic = 1;
code = "languagesystem DFLT dflt;

languagesystem latn dflt;
languagesystem latn AZE;
languagesystem latn CRT;
languagesystem latn KAZ;
languagesystem latn TAT;
languagesystem latn TRK;
languagesystem latn ROM;
languagesystem latn MOL;
";
name = Languagesystems;
}
);
features = (
{
automatic = 1;
code = "feature sups;
feature frac;
feature ordn;
feature locl;
feature numr;
feature dnom;
";
tag = aalt;
},
{
code = "lookup ccmp_Other_1 {
	@CombiningTopAccents = [acutecomb brevecomb breveinvertedcomb caroncomb circumflexcomb commaturnedabovecomb dblgravecomb dieresiscomb dotaccentcomb gravecomb hungarumlautcomb macroncomb ringcomb tildecomb];
	lookupflag UseMarkFilteringSet @CombiningTopAccents;
	sub i' @CombiningTopAccents by idotless;
	sub j' @CombiningTopAccents by jdotless;
	sub iogonek' @CombiningTopAccents by idotless ogonekcomb;
} ccmp_Other_1;

lookup ccmp_latn_1 {
	sub fi by f i;
	sub fl by f l;
} ccmp_latn_1;

script latn;
lookup ccmp_latn_1;
";
tag = ccmp;
},
{
automatic = 1;
code = "script latn;
language AZE;
lookup locl_latn_0 {
	sub i by idotaccent;
} locl_latn_0;
language CRT;
lookup locl_latn_0;
language KAZ;
lookup locl_latn_0;
language TAT;
lookup locl_latn_0;
language TRK;
lookup locl_latn_0;

script latn;
language ROM;
lookup locl_latn_1 {
	sub Scedilla by Scommaaccent;
	sub scedilla by scommaaccent;
} locl_latn_1;
language MOL;
lookup locl_latn_1;
";
tag = locl;
},
{
automatic = 1;
code = "sub one by onesuperior;
sub two by twosuperior;
sub three by threesuperior;
sub four by foursuperior;
";
tag = sups;
},
{
automatic = 1;
code = "sub one by one.numr;
sub two by two.numr;
sub three by three.numr;
sub four by four.numr;
";
tag = numr;
},
{
automatic = 1;
code = "sub one by one.dnom;
sub two by two.dnom;

glyphs = (
{
glyphname = A;
kernLeft = A;
kernRight = A;
lastChange = "2023-07-27 15:31:07 +0000";
layers = (
{
anchors = (
{
name = bottom;
pos = (617,0);
},
{
name = ogonek;
pos = (1111,10);
},
{
name = top;
pos = (617,1437);
}
);
layerId = "C1664359-F853-4045-A63D-7A2F9FE31172";
shapes = (
{
closed = 1;
nodes = (
(236,0,l),
(335,327,l),
(899,327,l),
(997,0,l),
(1193,0,l),
(718,1437,l),
(517,1437,l),
(41,0,l)
);
},
{
closed = 1;
nodes = (
(618,1243,l),
(865,439,l),
(368,439,l)
);
}
);
userData = {
org.robofab.postScriptHintData = {
};
};
vertWidth = 0;
width = 1234;
}
);
unicode = 65;
},
{
glyphname = AE;
lastChange = "2023-07-27 15:31:07 +0000";
layers = (
{
anchors = (
{
name = bottom;
pos = (788,0);
},
{
name = top;
pos = (788,1437);
}
);
layerId = "C1664359-F853-4045-A63D-7A2F9FE31172";
shapes = (
{
closed = 1;
nodes = (
(240,0,l),
(351,288,l),
(706,288,l),
(706,0,l),
(1471,0,l),
(1471,146,l),
(894,146,l),
(894,665,l),
(1400,665,l),
(1400,810,l),
(894,810,l),
(894,1263,l),
(1459,1263,l),
(1459,1409,l),
(591,1409,l),
(29,0,l)
);
},
{
closed = 1;
nodes = (
(599,960,l),
(706,1276,l),
(706,421,l),
(387,421,l)
);
}
);
userData = {
org.robofab.postScriptHintData = {
};
};
vertWidth = 0;
width = 1576;
}
);
unicode = 198;
},
{
glyphname = B;
lastChange = "2023-07-27 15:31:04 +0000";
layers = (
{
anchors = (
{
name = bottom;
pos = (626,0);
},
{
name = center;
pos = (626,719);
},
{
name = top;
pos = (626,1437);
}
);
layerId = "C1664359-F853-4045-A63D-7A2F9FE31172";
shapes = (
{
closed = 1;
nodes = (
(652,0,ls),
(985,0,o),
(1151,128,o),
(1151,415,cs),
(1151,506,o),
(1131,571,o),
(1101,620,cs),
(1071,668,o),
(1029,702,o),
(989,725,cs),
(942,752,o),
(888,767,o),
(827,772,c),
(859,775,o),
(925,789,o),
(984,840,cs),
(1040,888,o),
(1083,958,o),
(1083,1060,cs),
(1083,1199,o),
(1049,1290,o),
(969,1350,cs),
(889,1410,o),
(761,1437,o),
(576,1437,cs),
(181,1437,l),
(181,0,l)
);
},
{
closed = 1;
nodes = (
(362,698,l),
(601,698,ls),
(729,698,o),
(822,683,o),
(883,640,cs),
(944,597,o),
(973,529,o),
(973,417,cs),
(973,300,o),
(941,233,o),
(880,195,cs),
(819,157,o),
(725,144,o),
(604,144,cs),
(362,144,l)
);
},
{
closed = 1;
nodes = (
(362,1292,l),
(551,1292,ls),
(676,1292,o),
(765,1278,o),
(822,1246,cs),
(878,1213,o),
(903,1161,o),
(903,1068,cs),
(903,988,o),
(883,928,o),
(835,888,cs),
(787,848,o),
(710,825,o),
(595,825,cs),
(362,825,l)
);
}
);
userData = {
org.robofab.postScriptHintData = {
};
};
vertWidth = 0;
width = 1251;
}
);
unicode = 66;
},
{
glyphname = C;
kernLeft = C;
kernRight = C;
lastChange = "2023-07-27 15:31:07 +0000";
layers = (
{
anchors = (
{
name = bottom;
pos = (707,0);
},
{
name = top;
pos = (727,1437);
}
);
layerId = "C1664359-F853-4045-A63D-7A2F9FE31172";
shapes = (
{
closed = 1;
nodes = (
(810,-24,o),
(909,-8,o),
(980,9,cs),
(1021,19,o),
(1058,30,o),
(1091,43,c),
(1108,199,l),
(1073,186,o),
(1035,174,o),
(994,163,cs),
(922,142,o),
(826,126,o),
(715,127,cs),
(583,126,o),
(484,168,o),
(418,265,cs),
(352,361,o),
(319,517,o),
(318,729,cs),
(318,953,o),
(357,1095,o),
(429,1186,cs),
(501,1277,o),
(605,1314,o),
(734,1314,cs),
(837,1314,o),
(930,1298,o),
(998,1283,cs),
(1038,1273,o),
(1075,1262,o),
(1108,1250,c),
(1092,1405,l),
(1060,1416,o),
(1024,1425,o),
(984,1434,cs),
(916,1449,o),
(821,1464,o),
(713,1464,cs),
(542,1464,o),
(395,1419,o),
(289,1304,cs),
(183,1188,o),
(120,1004,o),
(120,727,cs),
(121,440,o),
(184,248,o),
(287,132,cs),
(390,16,o),
(532,-24,o),
(693,-24,cs)
);
}
);
userData = {
org.robofab.postScriptHintData = {
};
};
vertWidth = 0;
width = 1194;
}
);
unicode = 67;
},
{
glyphname = D;
lastChange = "2023-07-27 13:13:08 +0000";
layers = (
{
anchors = (
{
name = bottom;
pos = (689,0);
},
{
name = center;
pos = (689,719);
},
{
name = top;
pos = (689,1437);
}
);
layerId = "C1664359-F853-4045-A63D-7A2F9FE31172";
shapes = (
{
closed = 1;
nodes = (
(770,144,o),
(893,183,o),
(968,272,cs),
(1043,361,o),
(1069,509,o),
(1069,740,cs),
(1069,928,o),
(1046,1062,o),
(982,1154,cs),
(917,1245,o),
(810,1292,o),
(645,1292,cs),
(373,1292,l),
(373,144,l),
(575,144,ls)
);
},
{
closed = 1;
nodes = (
(181,1437,l),
(593,1437,ls),
(705,1437,o),
(815,1429,o),
(914,1394,cs),
(963,1376,o),
(1009,1352,o),
(1051,1321,cs),
(1134,1259,o),
(1196,1159,o),
(1231,1014,cs),
(1248,941,o),
(1257,853,o),
(1257,748,cs),
(1257,291,o),
(1136,0,o),
(638,0,cs),
(181,0,l)
);
}
);
userData = {
org.robofab.postScriptHintData = {
};
};
vertWidth = 0;
width = 1377;
}
);
unicode = 68;
},
{
glyphname = Eth;
lastChange = "2023-07-27 15:31:07 +0000";
layers = (
{
layerId = "C1664359-F853-4045-A63D-7A2F9FE31172";
shapes = (
{
closed = 1;
nodes = (
(652,0,ls),
(895,0,o),
(1057,71,o),
(1149,200,cs),
(1179,243,o),
(1203,291,o),
(1222,346,cs),
(1258,454,o),
(1271,580,o),
(1271,749,cs),
(1271,856,o),
(1262,946,o),
(1245,1018,cs),
(1210,1162,o),
(1148,1261,o),
(1064,1322,cs),
(1022,1353,o),
(976,1377,o),
(927,1394,cs),
(828,1429,o),
(718,1437,o),
(606,1437,cs),
(194,1437,l),
(194,806,l),
(45,806,l),
(45,677,l),
(194,677,l),
(194,0,l)
);
},
{
closed = 1;
nodes = (
(386,677,l),
(612,677,l),
(612,806,l),
(386,806,l),
(386,1293,l),
(658,1293,ls),
(823,1293,o),
(930,1247,o),
(995,1156,cs),
(1060,1065,o),
(1083,934,o),
(1083,741,cs),
(1083,654,o),
(1080,582,o),
(1074,524,cs),
(1061,407,o),
(1031,321,o),
(982,262,cs),
(907,171,o),
(778,139,o),
(588,139,cs),
(386,139,l)
);
}
);
userData = {
org.robofab.postScriptHintData = {
};
};
vertWidth = 0;
width = 1391;
}
);
unicode = 208;
},
{
glyphname = E;
kernLeft = E;
kernRight = E;
lastChange = "2023-07-27 15:31:07 +0000";
layers = (
{
anchors = (
{
name = bottom;
pos = (543,0);
},
{
name = ogonek;
pos = (972,0);
},
{
name = top;
pos = (586,1437);
},
{
name = topleft;
pos = (20,1437);
}
);
layerId = "C1664359-F853-4045-A63D-7A2F9FE31172";
shapes = (
{
closed = 1;
nodes = (
(972,0,l),
(995,145,l),
(370,145,l),
(370,670,l),
(862,670,l),
(862,809,l),
(370,809,l),
(370,1292,l),
(973,1292,l),
(997,1437,l),
(181,1437,l),
(181,0,l)
);
}
);
userData = {
org.robofab.postScriptHintData = {
};
};
vertWidth = 0;
width = 1086;
}
);
unicode = 69;
},
{
glyphname = F;
lastChange = "2023-07-27 15:31:07 +0000";
layers = (
{
anchors = (
{
name = bottom;
pos = (542,0);
},
{
name = top;
pos = (542,1437);
}
);
layerId = "C1664359-F853-4045-A63D-7A2F9FE31172";
shapes = (
{
closed = 1;
nodes = (
(366,0,l),
(366,672,l),
(921,672,l),
(921,820,l),
(366,820,l),
(366,1292,l),
(991,1292,l),
(1015,1437,l),
(181,1437,l),
(181,0,l)
);
}
);
userData = {
org.robofab.postScriptHintData = {
};
};
vertWidth = 0;
width = 1083;
}
);
unicode = 70;
},
{
glyphname = G;
lastChange = "2023-07-27 15:31:07 +0000";
layers = (
{
anchors = (
{
name = bottom;
pos = (680,0);
},
{
name = top;
pos = (770,1437);
}
);
layerId = "C1664359-F853-4045-A63D-7A2F9FE31172";
shapes = (
{
closed = 1;
nodes = (
(912,-24,o),
(1019,61,o),
(1070,125,c),
(1108,4,l),
(1212,4,l),
(1212,743,l),
(763,743,l),
(782,609,l),
(1053,609,l),
(1053,253,l),
(997,199,o),
(891,127,o),
(717,127,cs),
(431,127,o),
(318,332,o),
(318,749,cs),
(318,1137,o),
(472,1314,o),
(756,1314,cs),
(934,1314,o),
(1057,1273,o),
(1142,1240,c),
(1128,1399,l),
(1042,1432,o),
(919,1464,o),
(751,1464,cs),
(424,1464,o),
(120,1298,o),
(120,721,cs),
(120,186,o),
(373,-24,o),
(699,-24,cs)
);
}
);
userData = {
org.robofab.postScriptHintData = {
};
};
vertWidth = 0;
width = 1360;
}
);
unicode = 71;
},
{
glyphname = H;
lastChange = "2023-07-27 15:31:07 +0000";
layers = (
{
anchors = (
{
name = bottom;
pos = (716,0);
},
{
name = center;
pos = (716,719);
},
{
name = top;
pos = (716,1437);
},
{
name = topleft;
pos = (20,1437);
}
);
layerId = "C1664359-F853-4045-A63D-7A2F9FE31172";
shapes = (
{
closed = 1;
nodes = (
(366,0,l),
(366,677,l),
(1065,677,l),
(1065,0,l),
(1250,0,l),
(1250,1437,l),
(1065,1437,l),
(1065,817,l),
(366,817,l),
(366,1437,l),
(181,1437,l),
(181,0,l)
);
}
);
userData = {
org.robofab.postScriptHintData = {
};
};
vertWidth = 0;
width = 1431;
}
);
unicode = 72;
},
{
color = 9;
glyphname = Hbar;
lastChange = "2023-07-27 15:31:07 +0000";
layers = (
{
layerId = "C1664359-F853-4045-A63D-7A2F9FE31172";
shapes = (
{
closed = 1;
nodes = (
(1420,1101,l),
(1420,1229,l),
(13,1229,l),
(13,1101,l)
);
},
{
ref = H;
}
);
width = 1431;
}
);
unicode = 294;
},
{
glyphname = I;
kernLeft = I;
kernRight = I;
lastChange = "2023-07-27 15:31:07 +0000";
layers = (
{
anchors = (
{
name = bottom;
pos = (281,0);
},
{
name = ogonek;
pos = (372,0);
},
{
name = top;
pos = (281,1437);
},
{
name = topleft;
pos = (20,1437);
}
);
layerId = "C1664359-F853-4045-A63D-7A2F9FE31172";
shapes = (
{
closed = 1;
nodes = (
(372,0,l),
(372,1437,l),
(189,1437,l),
(189,0,l)
);
}
);
userData = {
org.robofab.postScriptHintData = {
};
};
vertWidth = 0;
width = 561;
}
);
unicode = 73;
},
{
glyphname = J;
lastChange = "2023-07-27 15:31:07 +0000";
layers = (
{
anchors = (
{
name = bottom;
pos = (351,0);
},
{
name = top;
pos = (351,1437);
}
);
layerId = "C1664359-F853-4045-A63D-7A2F9FE31172";
shapes = (
{
closed = 1;
nodes = (
(262,-81,o),
(370,-37,o),
(434,32,cs),
(497,101,o),
(516,199,o),
(516,308,cs),
(520,1437,l),
(333,1437,l),
(333,399,ls),
(333,352,o),
(332,310,o),
(330,275,cs),
(326,204,o),
(314,153,o),
(288,120,cs),
(275,103,o),
(257,90,o),
(235,80,cs),
(191,60,o),
(127,53,o),
(35,53,c),
(59,-14,l),
(83,-81,l)
);
}
);
userData = {
org.robofab.postScriptHintData = {
};
};
vertWidth = 0;
width = 701;
}
);
unicode = 74;
},
{
glyphname = K;
lastChange = "2023-07-27 15:31:07 +0000";
layers = (
{
anchors = (
{
name = bottom;
pos = (645,0);
},
{
name = top;
pos = (645,1437);
}
);
layerId = "C1664359-F853-4045-A63D-7A2F9FE31172";
shapes = (
{
closed = 1;
nodes = (
(366,0,l),
(366,530,l),
(508,672,l),
(1077,0,l),
(1269,0,l),
(1269,47,l),
(637,780,l),
(1217,1384,l),
(1217,1437,l),
(1032,1437,l),
(366,740,l),
(366,1437,l),
(181,1437,l),
(181,0,l)
);
}
);
userData = {
org.robofab.postScriptHintData = {
};
};
vertWidth = 0;
width = 1289;
}
);
unicode = 75;
},
{
glyphname = L;
lastChange = "2023-07-27 15:31:07 +0000";
layers = (
{
anchors = (
{
name = bottom;
pos = (491,0);
},
{
name = center;
pos = (491,719);
},
{
name = top;
pos = (491,1437);
},
{
name = topright;
pos = (682,1437);
}
);
layerId = "C1664359-F853-4045-A63D-7A2F9FE31172";
shapes = (
{
closed = 1;
nodes = (
(937,0,l),
(954,142,l),
(366,142,l),
(366,1437,l),
(181,1437,l),
(181,0,l)
);
}
);
userData = {
org.robofab.postScriptHintData = {
};
};
vertWidth = 0;
width = 982;
}
);
unicode = 76;
},
{
glyphname = Lslash;
lastChange = "2023-07-27 15:31:07 +0000";
layers = (
{
layerId = "C1664359-F853-4045-A63D-7A2F9FE31172";
shapes = (
{
closed = 1;
nodes = (
(953,0,l),
(970,145,l),
(382,145,l),
(382,717,l),
(729,870,l),
(729,1014,l),
(382,862,l),
(382,1408,l),
(197,1408,l),
(197,786,l),
(49,722,l),
(49,577,l),
(197,641,l),
(197,0,l)
);
}
);
userData = {
org.robofab.postScriptHintData = {
};
};
vertWidth = 0;
width = 1014;
}
);
unicode = 321;
},
{
glyphname = M;
lastChange = "2023-07-27 15:31:07 +0000";
layers = (
{
anchors = (
{
name = bottom;
pos = (897,0);
},
{
name = top;
pos = (897,1437);
}
);
layerId = "C1664359-F853-4045-A63D-7A2F9FE31172";
shapes = (
{
closed = 1;
nodes = (
(362,0,l),
(402,987,l),
(405,1286,l),
(489,941,l),
(784,32,l),
(1021,32,l),
(1316,941,l),
(1401,1286,l),
(1402,988,l),
(1433,0,l),
(1616,0,l),
(1563,1437,l),
(1289,1437,l),
(967,380,l),
(905,149,l),
(837,380,l),
(516,1437,l),
(242,1437,l),
(178,0,l)
);
}
);
userData = {
org.robofab.postScriptHintData = {
};
};
vertWidth = 0;
width = 1794;
}
);
unicode = 77;
},
{
glyphname = N;
kernLeft = N;
kernRight = N;
lastChange = "2023-07-27 15:31:34 +0000";
layers = (
{
anchors = (
{
name = bottom;
pos = (740,0);
},
{
name = top;
pos = (740,1437);
}
);
layerId = "C1664359-F853-4045-A63D-7A2F9FE31172";
shapes = (
{
closed = 1;
nodes = (
(357,0,l),
(357,1148,l),
(1116,1,l),
(1298,1,l),
(1298,1437,l),
(1122,1437,l),
(1122,289,l),
(371,1437,l),
(181,1437,l),
(181,0,l)
);
}
);
userData = {
org.robofab.postScriptHintData = {
};
};
vertWidth = 0;
width = 1479;
}
);
unicode = 78;
},
{
color = 9;
glyphname = Eng;
lastChange = "2023-07-27 15:31:38 +0000";
layers = (
{
anchors = (
{
name = bottom;
pos = (740,0);
},
{
name = top;
pos = (740,1437);
}
);
layerId = "C1664359-F853-4045-A63D-7A2F9FE31172";
shapes = (
{
closed = 1;
nodes = (
(357,0,l),
(357,1148,l),
(1116,1,l),
(1134,1,l),
(1124,-160,o),
(1065,-251,o),
(923,-330,c),
(958,-426,l),
(1085,-377,o),
(1170,-315,o),
(1223,-239,cs),
(1271,-172,o),
(1294,-93,o),
(1298,0,c),
(1298,1437,l),
(1122,1437,l),
(1122,289,l),
(371,1437,l),
(181,1437,l),
(181,0,l)
);
}
);
width = 1498;
}
);
unicode = 330;
},
{
glyphname = O;
kernLeft = O;
kernRight = O;
lastChange = "2023-07-27 13:13:08 +0000";
layers = (
{
anchors = (
{
name = bottom;
pos = (700,0);
},
{
name = center;
pos = (700,719);
},
{
name = ogonek;
pos = (1259,10);
},
{
name = top;
pos = (700,1437);
},
{
name = topleft;
pos = (20,1437);
},
{
name = topright;
pos = (1379,1437);
}
);
layerId = "C1664359-F853-4045-A63D-7A2F9FE31172";
shapes = (
{
closed = 1;
nodes = (
(311,534,o),
(338,386,o),
(401,284,cs),
(464,182,o),
(559,127,o),
(698,127,cs),
(838,127,o),
(934,182,o),
(997,284,cs),
(1060,386,o),
(1087,534,o),
(1087,722,cs),
(1087,909,o),
(1060,1057,o),
(997,1158,cs),
(934,1259,o),
(838,1314,o),
(698,1314,cs),
(561,1314,o),
(464,1259,o),
(402,1158,cs),
(340,1057,o),
(311,909,o),
(311,722,cs)
);
},
{
closed = 1;
nodes = (
(120,1223,o),
(322,1464,o),
(698,1464,cs),
(1077,1464,o),
(1279,1223,o),
(1279,722,cs),
(1279,215,o),
(1077,-24,o),
(698,-24,cs),
(322,-24,o),
(120,217,o),
(120,722,cs)
);
}
);
userData = {
org.robofab.postScriptHintData = {
};
};
vertWidth = 0;
width = 1399;
}
);
unicode = 79;
},
{
glyphname = Oslash;
lastChange = "2023-07-27 15:31:07 +0000";
layers = (
{
anchors = (
{
name = bottom;
pos = (699,0);
},
{
name = top;
pos = (699,1437);
}
);
layerId = "C1664359-F853-4045-A63D-7A2F9FE31172";
shapes = (
{
closed = 1;
nodes = (
(421,28,l),
(499,-11,o),
(591,-30,o),
(697,-30,cs),
(1076,-30,o),
(1278,211,o),
(1278,720,cs),
(1278,1039,o),
(1200,1257,o),
(1033,1370,c),
(1117,1554,l),
(1060,1586,l),
(977,1402,l),
(897,1445,o),
(802,1466,o),
(697,1466,cs),
(321,1466,o),
(120,1224,o),
(120,720,cs),
(120,394,o),
(202,175,o),
(365,62,c),
(289,-106,l),
(346,-135,l)
);
},
{
closed = 1;
nodes = (
(350,325,o),
(311,491,o),
(311,720,cs),
(311,1095,o),
(421,1319,o),
(697,1319,cs),
(781,1319,o),
(852,1301,o),
(911,1257,c),
(439,222,l)
);
},
{
closed = 1;
nodes = (
(614,117,o),
(544,137,o),
(488,176,c),
(961,1214,l),
(1053,1110,o),
(1086,939,o),
(1086,720,cs),
(1086,531,o),
(1059,378,o),
(996,275,cs),
(933,172,o),
(837,117,o),
(697,117,cs)
);
}
);
userData = {
org.robofab.postScriptHintData = {
};
};
vertWidth = 0;
width = 1398;
}
);
unicode = 216;
},
{
glyphname = OE;
lastChange = "2023-07-27 15:31:07 +0000";
layers = (
{
anchors = (
{
name = bottom;
pos = (994,0);
},
{
name = top;
pos = (994,1437);
}
);
layerId = "C1664359-F853-4045-A63D-7A2F9FE31172";
shapes = (
{
closed = 1;
nodes = (
(848,-18,o),
(945,41,o),
(1003,99,c),
(1037,125,o),
(1063,164,o),
(1080,216,c),
(1080,0,l),
(1888,0,l),
(1888,146,l),
(1265,146,l),
(1265,681,l),
(1795,681,l),
(1795,826,l),
(1265,826,l),
(1265,1292,l),
(1878,1292,l),
(1878,1437,l),
(1080,1437,l),
(1080,1243,l),
(1063,1284,o),
(1038,1321,o),
(1004,1354,cs),
(942,1413,o),
(842,1464,o),
(691,1464,cs),
(535,1464,o),
(393,1416,o),
(289,1300,cs),
(185,1184,o),
(120,1007,o),
(120,724,cs),
(120,176,o),
(378,-18,o),
(691,-18,cs)
);
},
{
closed = 1;
nodes = (
(579,130,o),
(486,165,o),
(421,257,cs),
(356,349,o),
(318,495,o),
(318,724,cs),
(318,961,o),
(356,1101,o),
(421,1192,cs),
(486,1283,o),
(579,1317,o),
(691,1317,cs),
(804,1317,o),
(899,1283,o),
(964,1192,cs),
(1029,1101,o),
(1066,961,o),
(1066,724,cs),
(1066,495,o),
(1029,349,o),
(964,257,cs),
(899,165,o),
(804,130,o),
(691,130,cs)
);
}
);
userData = {
org.robofab.postScriptHintData = {
};
};
vertWidth = 0;
width = 1988;
}
);
unicode = 338;
},
{
glyphname = P;
lastChange = "2023-07-27 13:13:08 +0000";
layers = (
{
anchors = (
{
name = bottom;
pos = (611,0);
},
{
name = top;
pos = (611,1437);
}
);
layerId = "C1664359-F853-4045-A63D-7A2F9FE31172";
shapes = (
{
closed = 1;
nodes = (
(701,717,o),
(805,737,o),
(867,782,cs),
(929,827,o),
(950,895,o),
(950,1000,cs),
(950,1125,o),
(930,1197,o),
(866,1239,cs),
(802,1281,o),
(693,1293,o),
(513,1293,cs),
(366,1293,l),
(366,717,l),
(540,717,ls)
);
},
{
closed = 1;
nodes = (
(1143,835,o),
(1096,732,o),
(996,665,cs),
(895,598,o),
(740,571,o),
(524,571,cs),
(429,571,ls),
(409,571,o),
(388,571,o),
(366,572,c),
(366,0,l),
(181,0,l),
(181,1437,l),
(490,1437,ls),
(749,1437,o),
(911,1411,o),
(1010,1343,cs),
(1109,1275,o),
(1143,1167,o),
(1143,998,cs)
);
}
);
userData = {
org.robofab.postScriptHintData = {
};
};
vertWidth = 0;
width = 1221;
}
);
unicode = 80;
},
{
glyphname = Thorn;
lastChange = "2023-07-27 15:31:45 +0000";
layers = (
{
anchors = (
{
name = bottom;
pos = (613,0);
},
{
name = top;
pos = (613,1437);
}
);
layerId = "C1664359-F853-4045-A63D-7A2F9FE31172";
shapes = (
{
closed = 1;
nodes = (
(705,512,o),
(809,532,o),
(871,577,cs),
(933,621,o),
(954,690,o),
(954,787,cs),
(954,1025,o),
(873,1071,o),
(517,1071,cs),
(370,1071,l),
(370,512,l),
(544,512,ls)
);
},
{
closed = 1;
nodes = (
(1147,630,o),
(1100,527,o),
(1000,461,cs),
(899,395,o),
(744,367,o),
(528,367,cs),
(433,367,ls),
(413,367,o),
(392,367,o),
(370,368,c),
(370,0,l),
(185,0,l),
(185,1409,l),
(371,1409,l),
(371,1216,l),
(494,1216,ls),
(753,1216,o),
(915,1190,o),
(1014,1123,cs),
(1113,1055,o),
(1147,948,o),
(1147,785,cs)
);
}
);
userData = {
org.robofab.postScriptHintData = {
};
};
vertWidth = 0;
width = 1226;
}
);
unicode = 222;
},
{
glyphname = Q;
lastChange = "2023-07-27 15:31:07 +0000";
layers = (
{
anchors = (
{
name = bottom;
pos = (698,0);
},
{
name = top;
pos = (698,1437);
}
);
layerId = "C1664359-F853-4045-A63D-7A2F9FE31172";
shapes = (
{
closed = 1;
nodes = (
(1059,-399,o),
(1077,-370,o),
(1105,-331,cs),
(1135,-290,o),
(1151,-266,o),
(1151,-265,c),
(981,-164,o),
(887,-84,o),
(801,-14,c),
(1086,26,o),
(1275,250,o),
(1275,722,cs),
(1275,982,o),
(1220,1170,o),
(1120,1291,cs),
(1020,1411,o),
(876,1464,o),
(696,1464,cs),
(519,1464,o),
(375,1411,o),
(275,1291,cs),
(175,1170,o),
(120,982,o),
(120,722,cs),
(120,487,o),
(164,311,o),
(247,189,cs),
(330,67,o),
(449,-1,o),
(600,-20,c),
(645,-79,o),
(711,-145,o),
(789,-212,cs),
(867,-279,o),
(959,-345,o),
(1059,-400,c)
);
},
{
closed = 1;
nodes = (
(559,127,o),
(464,181,o),
(401,283,cs),
(338,385,o),
(311,535,o),
(311,722,cs),
(311,907,o),
(340,1058,o),
(402,1158,cs),
(464,1258,o),
(561,1314,o),
(698,1314,cs),
(834,1314,o),
(932,1258,o),
(994,1158,cs),
(1056,1058,o),
(1084,907,o),
(1084,722,cs),
(1084,535,o),
(1057,385,o),
(995,283,cs),
(933,181,o),
(835,127,o),
(698,127,cs)
);
}
);
userData = {
org.robofab.postScriptHintData = {
};
};
vertWidth = 0;
width = 1395;
}
);
unicode = 81;
},
{
glyphname = R;
kernLeft = R;
kernRight = R;
lastChange = "2023-07-27 15:31:07 +0000";
layers = (
{
anchors = (
{
name = bottom;
pos = (615,0);
},
{
name = top;
pos = (615,1437);
}
);
layerId = "C1664359-F853-4045-A63D-7A2F9FE31172";
shapes = (
{
closed = 1;
nodes = (
(369,0,l),
(369,600,l),
(569,600,l),
(979,0,l),
(1160,0,l),
(1160,57,l),
(756,618,l),
(936,640,o),
(1114,727,o),
(1114,1028,cs),
(1114,1365,o),
(927,1437,o),
(611,1437,cs),
(181,1437,l),
(181,0,l)
);
},
{
closed = 1;
nodes = (
(369,1299,l),
(561,1299,ls),
(708,1299,o),
(804,1287,o),
(862,1247,cs),
(920,1206,o),
(941,1135,o),
(941,1011,cs),
(941,908,o),
(921,842,o),
(867,799,cs),
(813,756,o),
(726,740,o),
(593,740,cs),
(369,740,l)
);
}
);
userData = {
org.robofab.postScriptHintData = {
};
};
vertWidth = 0;
width = 1230;
}
);
unicode = 82;
},
{
glyphname = S;
kernLeft = S;
kernRight = S;
lastChange = "2023-07-27 15:31:07 +0000";
layers = (
{
anchors = (
{
name = bottom;
pos = (579,0);
},
{
name = top;
pos = (559,1437);
}
);
layerId = "C1664359-F853-4045-A63D-7A2F9FE31172";
shapes = (
{
closed = 1;
nodes = (
(881,-24,o),
(1024,130,o),
(1024,376,cs),
(1024,673,o),
(885,736,o),
(586,835,cs),
(341,910,o),
(280,964,o),
(276,1091,cs),
(276,1266,o),
(400,1313,o),
(584,1313,cs),
(728,1313,o),
(881,1275,o),
(957,1244,c),
(936,1408,l),
(828,1443,o),
(705,1465,o),
(586,1465,cs),
(314,1465,o),
(103,1372,o),
(96,1097,cs),
(94,863,o),
(206,770,o),
(490,686,cs),
(764,599,o),
(838,551,o),
(838,380,cs),
(838,181,o),
(719,127,o),
(515,127,cs),
(336,127,o),
(204,170,o),
(117,213,c),
(143,55,l),
(218,18,o),
(336,-24,o),
(533,-24,cs)
);
}
);
userData = {
org.robofab.postScriptHintData = {
};
};
vertWidth = 0;
width = 1118;
}
);
unicode = 83;
},
{
glyphname = T;
kernLeft = T;
kernRight = T;
lastChange = "2023-07-27 15:31:07 +0000";
layers = (
{
anchors = (
{
name = bottom;
pos = (536,0);
},
{
name = center;
pos = (536,719);
},
{
name = top;
pos = (536,1437);
}
);
layerId = "C1664359-F853-4045-A63D-7A2F9FE31172";
shapes = (
{
closed = 1;
nodes = (
(628,0,l),
(628,1293,l),
(1019,1293,l),
(1043,1437,l),
(29,1437,l),
(29,1293,l),
(441,1293,l),
(441,0,l)
);
}
);
userData = {
org.robofab.postScriptHintData = {
};
};
vertWidth = 0;
width = 1072;
}
);
unicode = 84;
},
{
glyphname = U;
kernLeft = U;
kernRight = U;
lastChange = "2023-07-27 15:31:07 +0000";
layers = (
{
anchors = (
{
name = bottom;
pos = (718,0);
},
{
name = ogonek;
pos = (971,10);
},
{
name = top;
pos = (718,1437);
},
{
name = topright;
pos = (1416,1437);
}
);
layerId = "C1664359-F853-4045-A63D-7A2F9FE31172";
shapes = (
{
closed = 1;
nodes = (
(1033,-24,o),
(1263,87,o),
(1263,500,cs),
(1263,1437,l),
(1073,1437,l),
(1073,513,ls),
(1073,225,o),
(963,127,o),
(720,127,cs),
(596,127,o),
(507,151,o),
(449,208,cs),
(391,265,o),
(364,364,o),
(364,513,cs),
(364,1437,l),
(173,1437,l),
(173,501,ls),
(173,90,o),
(400,-24,o),
(721,-24,cs)
);
}
);
userData = {
org.robofab.postScriptHintData = {
};
};
vertWidth = 0;
width = 1436;
}
);
unicode = 85;
},
{
glyphname = V;
lastChange = "2023-07-27 15:31:07 +0000";
layers = (
{
anchors = (
{
name = bottom;
pos = (595,0);
},
{
name = top;
pos = (595,1437);
}
);
layerId = "C1664359-F853-4045-A63D-7A2F9FE31172";
shapes = (
{
closed = 1;
nodes = (
(731,0,l),
(1143,1437,l),
(929,1437,l),
(672,421,l),
(598,94,l),
(520,421,l),
(256,1437,l),
(45,1437,l),
(459,0,l)
);
}
);
userData = {
org.robofab.postScriptHintData = {
};
};
vertWidth = 0;
width = 1189;
}
);
unicode = 86;
},
{
glyphname = W;
lastChange = "2023-07-27 15:31:07 +0000";
layers = (
{
anchors = (
{
name = bottom;
pos = (929,0);
},
{
name = top;
pos = (929,1437);
}
);
layerId = "C1664359-F853-4045-A63D-7A2F9FE31172";
shapes = (
{
closed = 1;
nodes = (
(642,0,l),
(866,942,l),
(929,1262,l),
(994,943,l),
(1218,0,l),
(1494,0,l),
(1777,1437,l),
(1588,1437,l),
(1386,325,l),
(1350,124,l),
(1311,321,l),
(1066,1376,l),
(794,1376,l),
(550,322,l),
(512,124,l),
(476,325,l),
(272,1437,l),
(79,1437,l),
(366,0,l)
);
}
);
userData = {
org.robofab.postScriptHintData = {
};
};
vertWidth = 0;
width = 1858;
}
);
unicode = 87;
},
{
glyphname = X;
lastChange = "2023-07-27 15:31:07 +0000";
layers = (
{
anchors = (
{
name = bottom;
pos = (560,0);
},
{
name = top;
pos = (560,1437);
}
);
layerId = "C1664359-F853-4045-A63D-7A2F9FE31172";
shapes = (
{
closed = 1;
nodes = (
(269,0,l),
(494,484,l),
(560,626,l),
(626,485,l),
(851,0,l),
(1059,0,l),
(697,728,l),
(1057,1437,l),
(848,1437,l),
(560,809,l),
(272,1437,l),
(64,1437,l),
(419,728,l),
(61,0,l)
);
}
);
userData = {
org.robofab.postScriptHintData = {
};
};
vertWidth = 0;
width = 1120;
}
);
unicode = 88;
},
{
glyphname = Y;
kernLeft = Y;
kernRight = Y;
lastChange = "2023-07-27 15:31:07 +0000";
layers = (
{
anchors = (
{
name = bottom;
pos = (567,0);
},
{
name = top;
pos = (567,1437);
},
{
name = topleft;
pos = (20,1437);
}
);
layerId = "C1664359-F853-4045-A63D-7A2F9FE31172";
shapes = (
{
closed = 1;
nodes = (
(667,0,l),
(667,450,l),
(1107,1437,l),
(899,1437,l),
(666,871,l),
(572,609,l),
(565,609,l),
(467,871,l),
(237,1437,l),
(27,1437,l),
(465,449,l),
(465,0,l)
);
}
);
userData = {
org.robofab.postScriptHintData = {
};
};
vertWidth = 0;
width = 1133;
}
);
unicode = 89;
},
{
glyphname = Z;
kernLeft = Z;
kernRight = Z;
lastChange = "2023-07-27 15:31:07 +0000";
layers = (
{
anchors = (
{
name = bottom;
pos = (552,0);
},
{
name = center;
pos = (552,719);
},
{
name = top;
pos = (552,1437);
}
);
layerId = "C1664359-F853-4045-A63D-7A2F9FE31172";
shapes = (
{
closed = 1;
nodes = (
(983,0,l),
(1006,147,l),
(484,147,l),
(281,141,l),
(392,291,l),
(1020,1273,l),
(1004,1437,l),
(112,1437,l),
(88,1287,l),
(638,1287,l),
(840,1292,l),
(619,972,l),
(92,156,l),
(107,0,l)
);
}
);
userData = {
org.robofab.postScriptHintData = {
};
};
vertWidth = 0;
width = 1104;
}
);
unicode = 90;
},
{
glyphname = a;
kernLeft = a;
kernRight = a;
lastChange = "2023-07-27 13:13:08 +0000";
layers = (
{
anchors = (
{
name = bottom;
pos = (537,0);
},
{
name = ogonek;
pos = (967,10);
},
{
name = top;
pos = (537,1031);
}
);
layerId = "C1664359-F853-4045-A63D-7A2F9FE31172";
shapes = (
{
closed = 1;
nodes = (
(446,453,o),
(245,443,o),
(245,268,cs),
(245,165,o),
(314,117,o),
(435,117,cs),
(571,117,o),
(662,164,o),
(716,204,c),
(716,447,l),
(667,450,l),
(564,453,ls)
);
},
{
closed = 1;
nodes = (
(900,143,o),
(912,136,o),
(960,136,cs),
(975,136,o),
(992,137,o),
(1006,137,c),
(992,2,l),
(992,2,o),
(912,-3,o),
(881,-3,cs),
(767,-3,o),
(730,80,o),
(730,117,c),
(687,58,o),
(592,-18,o),
(374,-18,cs),
(196,-18,o),
(76,96,o),
(76,275,cs),
(76,514,o),
(302,568,o),
(534,568,cs),
(581,568,o),
(626,564,o),
(661,561,cs),
(716,553,l),
(716,666,ls),
(716,879,o),
(656,912,o),
(485,912,cs),
(351,912,o),
(236,878,o),
(157,848,c),
(177,996,l),
(240,1023,o),
(337,1053,o),
(499,1053,cs),
(823,1053,o),
(900,935,o),
(900,611,cs),
(900,221,ls)
);
}
);
userData = {
org.robofab.postScriptHintData = {
};
};
vertWidth = 0;
width = 1074;
}
);
unicode = 97;
},
{
glyphname = ae;
lastChange = "2023-07-27 15:31:07 +0000";
layers = (
{
anchors = (
{
name = bottom;
pos = (824,0);
},
{
name = top;
pos = (824,1031);
}
);
layerId = "C1664359-F853-4045-A63D-7A2F9FE31172";
shapes = (
{
closed = 1;
nodes = (
(523,-28,o),
(627,-2,o),
(702,30,cs),
(777,61,o),
(822,96,o),
(842,116,c),
(920,20,o),
(1036,-28,o),
(1190,-28,cs),
(1275,-28,o),
(1349,-16,o),
(1402,-4,cs),
(1433,3,o),
(1461,11,o),
(1486,20,c),
(1510,154,l),
(1432,137,o),
(1289,102,o),
(1150,117,cs),
(1014,136,o),
(914,221,o),
(914,460,cs),
(914,496,l),
(1537,496,l),
(1543,526,o),
(1552,627,o),
(1552,679,cs),
(1547,862,o),
(1424,1035,o),
(1171,1035,cs),
(1039,1035,o),
(914,988,o),
(840,839,c),
(815,964,o),
(717,1020,o),
(572,1032,cs),
(441,1043,o),
(300,1029,o),
(183,969,c),
(163,836,l),
(288,880,o),
(422,904,o),
(554,892,cs),
(615,887,o),
(659,870,o),
(685,834,cs),
(711,797,o),
(722,739,o),
(722,651,cs),
(722,546,l),
(684,549,ls),
(673,550,o),
(660,551,o),
(646,552,cs),
(604,555,ls),
(501,559,o),
(376,557,o),
(263,518,cs),
(155,480,o),
(82,398,o),
(82,268,cs),
(82,79,o),
(204,-28,o),
(386,-28,cs)
);
},
{
closed = 1;
nodes = (
(320,106,o),
(251,152,o),
(251,261,cs),
(251,434,o),
(427,445,o),
(570,445,cs),
(605,445,o),
(643,443,o),
(674,442,cs),
(726,439,l),
(729,372,o),
(747,276,o),
(773,217,c),
(760,206,o),
(721,178,o),
(663,154,cs),
(605,129,o),
(528,106,o),
(441,106,cs)
);
},
{
closed = 1;
nodes = (
(925,717,o),
(958,790,o),
(1004,835,cs),
(1050,880,o),
(1109,898,o),
(1176,898,cs),
(1297,898,o),
(1388,828,o),
(1393,656,cs),
(1393,624,ls),
(1393,613,o),
(1393,607,o),
(1392,608,c),
(917,608,l)
);
}
);
userData = {
org.robofab.postScriptHintData = {
};
};
vertWidth = 0;
width = 1648;
}
);
unicode = 230;
},
{
glyphname = b;
lastChange = "2023-07-27 15:31:07 +0000";
layers = (
{
anchors = (
{
name = bottom;
pos = (567,0);
},
{
name = center;
pos = (567,516);
},
{
name = top;
pos = (567,1031);
}
);
layerId = "C1664359-F853-4045-A63D-7A2F9FE31172";
shapes = (
{
closed = 1;
nodes = (
(717,-18,o),
(820,15,o),
(898,98,cs),
(976,181,o),
(1028,312,o),
(1028,507,cs),
(1028,886,o),
(848,1043,o),
(637,1043,cs),
(549,1043,o),
(477,1022,o),
(425,999,cs),
(394,986,o),
(367,972,o),
(343,956,c),
(343,1437,l),
(158,1418,l),
(158,0,l),
(294,-9,l),
(320,101,l),
(341,78,o),
(367,58,o),
(396,41,cs),
(447,10,o),
(520,-18,o),
(616,-18,cs)
);
},
{
closed = 1;
nodes = (
(515,122,o),
(454,145,o),
(411,169,cs),
(386,183,o),
(363,199,o),
(343,217,c),
(343,822,l),
(366,836,o),
(391,849,o),
(418,861,cs),
(465,881,o),
(528,901,o),
(601,901,cs),
(764,901,o),
(843,755,o),
(843,503,cs),
(843,364,o),
(814,269,o),
(768,209,cs),
(722,148,o),
(657,122,o),
(588,122,cs)
);
}
);
userData = {
org.robofab.postScriptHintData = {
};
};
vertWidth = 0;
width = 1134;
}
);
unicode = 98;
},
{
glyphname = c;
kernLeft = o;
kernRight = c;
lastChange = "2023-07-27 15:31:07 +0000";
layers = (
{
anchors = (
{
name = bottom;
pos = (613,0);
},
{
name = top;
pos = (563,1031);
}
);
layerId = "C1664359-F853-4045-A63D-7A2F9FE31172";
shapes = (
{
closed = 1;
nodes = (
(633,-18,o),
(706,-6,o),
(757,9,cs),
(787,17,o),
(814,26,o),
(838,37,c),
(854,170,l),
(828,161,o),
(800,153,o),
(769,146,cs),
(717,134,o),
(646,122,o),
(570,122,cs),
(481,122,o),
(412,149,o),
(366,213,cs),
(320,276,o),
(295,377,o),
(295,509,cs),
(295,648,o),
(320,747,o),
(366,811,cs),
(412,874,o),
(481,902,o),
(570,902,cs),
(646,902,o),
(716,889,o),
(768,877,cs),
(799,870,o),
(827,861,o),
(853,852,c),
(838,987,l),
(814,998,o),
(787,1007,o),
(756,1015,cs),
(704,1030,o),
(631,1043,o),
(543,1043,cs),
(434,1043,o),
(329,1013,o),
(244,930,cs),
(216,903,o),
(192,869,o),
(172,829,cs),
(131,749,o),
(106,642,o),
(106,506,cs),
(106,313,o),
(161,177,o),
(245,95,cs),
(328,13,o),
(437,-18,o),
(548,-18,cs)
);
}
);
userData = {
org.robofab.postScriptHintData = {
};
};
vertWidth = 0;
width = 925;
}
);
unicode = 99;
},
{
glyphname = d;
kernLeft = o;
lastChange = "2023-07-27 15:31:07 +0000";
layers = (
{
anchors = (
{
name = bottom;
pos = (568,0);
},
{
name = center;
pos = (568,516);
},
{
name = top;
pos = (568,1437);
},
{
name = topright;
pos = (1115,1437);
}
);
layerId = "C1664359-F853-4045-A63D-7A2F9FE31172";
shapes = (
{
closed = 1;
nodes = (
(612,-18,o),
(684,11,o),
(732,42,cs),
(760,59,o),
(784,79,o),
(804,102,c),
(836,-8,l),
(979,0,l),
(979,1437,l),
(796,1418,l),
(796,966,l),
(771,980,o),
(742,993,o),
(711,1004,cs),
(658,1023,o),
(584,1043,o),
(499,1043,cs),
(283,1043,o),
(106,886,o),
(106,507,cs),
(106,312,o),
(158,181,o),
(235,98,cs),
(311,15,o),
(413,-18,o),
(512,-18,cs)
);
},
{
closed = 1;
nodes = (
(473,122,o),
(411,148,o),
(365,209,cs),
(319,269,o),
(290,364,o),
(290,503,cs),
(290,756,o),
(368,901,o),
(528,901,cs),
(603,901,o),
(668,884,o),
(717,867,cs),
(745,857,o),
(771,846,o),
(796,833,c),
(796,219,l),
(775,200,o),
(751,184,o),
(724,170,cs),
(679,146,o),
(616,122,o),
(541,122,cs)
);
}
);
userData = {
org.robofab.postScriptHintData = {
};
};
vertWidth = 0;
width = 1135;
}
);
unicode = 100;
},
{
color = 9;
glyphname = dcroat;
lastChange = "2023-07-27 15:31:07 +0000";
layers = (
{
layerId = "C1664359-F853-4045-A63D-7A2F9FE31172";
shapes = (
{
closed = 1;
nodes = (
(1120,1161,l),
(1120,1289,l),
(513,1289,l),
(513,1161,l)
);
},
{
ref = d;
}
);
width = 1135;
}
);
unicode = 273;
},
{
glyphname = eth;
lastChange = "2023-07-27 15:31:07 +0000";
layers = (
{
anchors = (
{
name = bottom;
pos = (601,0);
},
{
name = top;
pos = (601,1437);
}
);
layerId = "C1664359-F853-4045-A63D-7A2F9FE31172";
shapes = (
{
closed = 1;
nodes = (
(921,-18,o),
(1086,223,o),
(1086,567,cs),
(1086,739,o),
(1051,906,o),
(971,1067,c),
(1149,1129,l),
(1113,1240,l),
(912,1170,l),
(865,1247,o),
(805,1316,o),
(726,1372,c),
(562,1372,l),
(621,1337,o),
(721,1214,o),
(766,1122,c),
(571,1057,l),
(607,947,l),
(815,1017,l),
(866,929,o),
(892,803,o),
(895,703,c),
(884,714,o),
(840,747,o),
(776,776,cs),
(712,804,o),
(628,831,o),
(532,831,cs),
(379,831,o),
(272,787,o),
(204,715,cs),
(136,643,o),
(106,542,o),
(106,429,cs),
(106,314,o),
(144,202,o),
(224,119,cs),
(304,36,o),
(427,-18,o),
(599,-18,cs)
);
},
{
closed = 1;
nodes = (
(392,125,o),
(286,221,o),
(286,426,cs),
(286,588,o),
(363,693,o),
(546,693,cs),
(635,693,o),
(723,665,o),
(787,637,cs),
(824,620,o),
(860,602,o),
(893,582,c),
(893,523,ls),
(893,304,o),
(816,125,o),
(591,125,cs)
);
}
);
userData = {
org.robofab.postScriptHintData = {
};
};
vertWidth = 0;
width = 1202;
}
);
unicode = 240;
},
{
glyphname = e;
kernLeft = o;
kernRight = e;
lastChange = "2023-07-27 14:50:12 +0000";
layers = (
{
anchors = (
{
name = bottom;
pos = (509,0);
},
{
name = ogonek;
pos = (873,30);
},
{
name = top;
pos = (566,1031);
}
);
layerId = "C1664359-F853-4045-A63D-7A2F9FE31172";
shapes = (
{
closed = 1;
nodes = (
(494,906,o),
(435,888,o),
(388,843,cs),
(341,798,o),
(308,728,o),
(300,608,c),
(773,608,l),
(773,619,o),
(773,627,o),
(774,633,cs),
(775,638,o),
(775,644,o),
(775,649,cs),
(775,664,ls),
(770,833,o),
(680,906,o),
(557,906,cs)
);
},
{
closed = 1;
nodes = (
(849,21,o),
(822,13,o),
(793,6,cs),
(742,-6,o),
(673,-18,o),
(592,-18,cs),
(269,-18,o),
(106,156,o),
(106,501,cs),
(106,694,o),
(154,825,o),
(234,913,cs),
(314,1001,o),
(426,1043,o),
(553,1043,cs),
(801,1043,o),
(929,873,o),
(934,687,cs),
(934,632,o),
(925,520,o),
(918,496,c),
(297,496,l),
(297,460,ls),
(297,201,o),
(422,122,o),
(605,122,cs),
(681,122,o),
(752,132,o),
(805,143,cs),
(836,149,o),
(865,156,o),
(892,164,c),
(873,30,l)
);
}
);
userData = {
org.robofab.postScriptHintData = {
};
};
vertWidth = 0;
width = 1017;
}
);
unicode = 101;
},
{
glyphname = f;
lastChange = "2023-07-27 15:31:07 +0000";
layers = (
{
anchors = (
{
name = bottom;
pos = (361,0);
},
{
name = top;
pos = (361,1437);
}
);
layerId = "C1664359-F853-4045-A63D-7A2F9FE31172";
shapes = (
{
closed = 1;
nodes = (
(412,0,l),
(412,921,l),
(685,921,l),
(685,1025,l),
(412,1025,l),
(412,1075,ls),
(412,1260,o),
(448,1304,o),
(569,1304,cs),
(608,1304,o),
(646,1298,o),
(677,1291,cs),
(694,1287,o),
(711,1283,o),
(727,1278,c),
(713,1398,l),
(698,1405,o),
(680,1411,o),
(660,1417,cs),
(625,1428,o),
(576,1437,o),
(516,1437,cs),
(417,1437,o),
(347,1407,o),
(301,1342,cs),
(255,1277,o),
(233,1175,o),
(230,1034,cs),
(230,1025,l),
(53,1025,l),
(53,921,l),
(229,921,l),
(229,0,l)
);
}
);
userData = {
org.robofab.postScriptHintData = {
};
};
vertWidth = 0;
width = 721;
}
);
unicode = 102;
},
{
glyphname = g;
kernLeft = o;
lastChange = "2023-07-27 15:31:07 +0000";
layers = (
{
anchors = (
{
name = bottom;
pos = (565,-417);
},
{
name = top;
pos = (565,1031);
}
);
layerId = "C1664359-F853-4045-A63D-7A2F9FE31172";
shapes = (
{
closed = 1;
nodes = (
(709,-461,o),
(816,-426,o),
(881,-342,cs),
(946,-259,o),
(971,-128,o),
(971,67,cs),
(971,1031,l),
(851,1031,l),
(818,932,l),
(767,973,o),
(668,1043,o),
(505,1043,cs),
(380,1043,o),
(280,1003,o),
(212,916,cs),
(143,829,o),
(106,696,o),
(106,509,cs),
(106,330,o),
(155,201,o),
(229,119,cs),
(303,37,o),
(401,0,o),
(504,0,cs),
(593,0,o),
(663,17,o),
(711,36,cs),
(739,47,o),
(764,59,o),
(785,72,c),
(785,39,ls),
(784,-118,o),
(771,-202,o),
(732,-254,cs),
(693,-307,o),
(631,-325,o),
(531,-325,cs),
(463,-325,o),
(402,-315,o),
(357,-304,cs),
(330,-298,o),
(306,-291,o),
(283,-283,c),
(303,-417,l),
(320,-425,o),
(340,-432,o),
(364,-439,cs),
(405,-450,o),
(466,-461,o),
(546,-461,cs)
);
},
{
closed = 1;
nodes = (
(444,141,o),
(387,177,o),
(348,243,cs),
(309,309,o),
(291,405,o),
(291,520,cs),
(291,633,o),
(307,728,o),
(345,795,cs),
(383,862,o),
(442,901,o),
(533,901,cs),
(605,901,o),
(667,881,o),
(712,861,cs),
(739,849,o),
(763,836,o),
(785,822,c),
(785,200,l),
(766,189,o),
(745,180,o),
(720,171,cs),
(677,156,o),
(616,141,o),
(539,140,cs),
(527,140,ls)
);
}
);
userData = {
org.robofab.postScriptHintData = {
};
};
vertWidth = 0;
width = 1129;
}
);
unicode = 103;
},
{
glyphname = h;
lastChange = "2023-07-27 15:31:07 +0000";
layers = (
{
anchors = (
{
name = bottom;
pos = (580,0);
},
{
name = center;
pos = (580,719);
},
{
name = top;
pos = (580,1437);
}
);
layerId = "C1664359-F853-4045-A63D-7A2F9FE31172";
shapes = (
{
closed = 1;
nodes = (
(343,0,l),
(343,795,l),
(394,812,o),
(517,902,o),
(641,902,cs),
(762,902,o),
(826,832,o),
(826,562,cs),
(826,0,l),
(1011,0,l),
(1011,576,ls),
(1011,916,o),
(918,1043,o),
(688,1043,cs),
(551,1043,o),
(451,1010,o),
(343,925,c),
(343,1437,l),
(158,1419,l),
(158,0,l)
);
}
);
userData = {
org.robofab.postScriptHintData = {
};
};
vertWidth = 0;
width = 1160;
}
);
unicode = 104;
},
{
color = 9;
glyphname = hbar;
lastChange = "2023-07-27 15:31:07 +0000";
layers = (
{
layerId = "C1664359-F853-4045-A63D-7A2F9FE31172";
shapes = (
{
closed = 1;
nodes = (
(650,1161,l),
(650,1289,l),
(43,1289,l),
(43,1161,l)
);
},
{
ref = h;
}
);
width = 1160;
}
);
unicode = 295;
},
{
glyphname = i;
kernLeft = i;
kernRight = i;
lastChange = "2023-07-27 15:31:07 +0000";
layers = (
{
anchors = (
{
name = bottom;
pos = (248,0);
}
);
layerId = "C1664359-F853-4045-A63D-7A2F9FE31172";
shapes = (
{
closed = 1;
nodes = (
(345,1226,l),
(345,1408,l),
(153,1408,l),
(153,1226,l)
);
},
{
ref = idotless;
}
);
userData = {
org.robofab.postScriptHintData = {
};
};
width = 492;
}
);
unicode = 105;
},
{
glyphname = idotless;
lastChange = "2023-07-27 15:31:07 +0000";
layers = (
{
anchors = (
{
name = bottom;
pos = (246,0);
},
{
name = ogonek;
pos = (334,0);
},
{
name = top;
pos = (246,1031);
}
);
layerId = "C1664359-F853-4045-A63D-7A2F9FE31172";
shapes = (
{
closed = 1;
nodes = (
(334,0,l),
(334,1031,l),
(158,1031,l),
(158,0,l)
);
}
);
userData = {
org.robofab.postScriptHintData = {
};
};
vertWidth = 0;
width = 492;
}
);
unicode = 305;
},
{
glyphname = j;
lastChange = "2023-07-27 15:31:07 +0000";
layers = (
{
layerId = "C1664359-F853-4045-A63D-7A2F9FE31172";
shapes = (
{
closed = 1;
nodes = (
(128,-277,o),
(213,-215,o),
(266,-139,cs),
(319,-64,o),
(341,25,o),
(341,133,cs),
(341,1031,l),
(158,1031,l),
(158,152,ls),
(158,-42,o),
(102,-116,o),
(-54,-203,c),
(1,-326,l)
);
},
{
closed = 1;
nodes = (
(345,1226,l),
(345,1408,l),
(153,1408,l),
(153,1226,l)
);
}
);
userData = {
org.robofab.postScriptHintData = {
};
};
vertWidth = 0;
width = 496;
}
);
unicode = 106;
},
{
color = 9;
glyphname = jdotless;
lastChange = "2023-07-27 15:31:07 +0000";
layers = (
{
anchors = (
{
name = bottom;
pos = (248,-417);
},
{
name = top;
pos = (248,1031);
}
);
layerId = "C1664359-F853-4045-A63D-7A2F9FE31172";
shapes = (
{
closed = 1;
nodes = (
(128,-277,o),
(213,-215,o),
(266,-139,cs),
(319,-64,o),
(341,25,o),
(341,133,cs),
(341,1031,l),
(158,1031,l),
(158,152,ls),
(158,-42,o),
(102,-116,o),
(-54,-203,c),
(1,-326,l)
);
}
);
width = 491;
}
);
unicode = 567;
},
{
glyphname = k;
lastChange = "2023-07-27 15:31:07 +0000";
layers = (
{
anchors = (
{
name = bottom;
pos = (524,0);
},
{
name = top;
pos = (524,1437);
}
);
layerId = "C1664359-F853-4045-A63D-7A2F9FE31172";
shapes = (
{
closed = 1;
nodes = (
(343,0,l),
(343,385,l),
(433,468,l),
(841,0,l),
(1031,0,l),
(1031,35,l),
(565,559,l),
(1007,986,l),
(1007,1025,l),
(812,1025,l),
(343,564,l),
(343,1437,l),
(158,1419,l),
(158,0,l)
);
}
);
userData = {
org.robofab.postScriptHintData = {
};
};
vertWidth = 0;
width = 1047;
}
);
unicode = 107;
},
{
glyphname = l;
lastChange = "2023-07-27 15:31:07 +0000";
layers = (
{
anchors = (
{
name = bottom;
pos = (250,0);
},
{
name = center;
pos = (250,719);
},
{
name = top;
pos = (250,1437);
},
{
name = topright;
pos = (480,1437);
}
);
layerId = "C1664359-F853-4045-A63D-7A2F9FE31172";
shapes = (
{
closed = 1;
nodes = (
(342,0,l),
(342,1437,l),
(158,1419,l),
(158,0,l)
);
}
);
userData = {
org.robofab.postScriptHintData = {
};
};
vertWidth = 0;
width = 500;
}
);
unicode = 108;
},
{
glyphname = lslash;
lastChange = "2023-07-27 15:31:07 +0000";
layers = (
{
layerId = "C1664359-F853-4045-A63D-7A2F9FE31172";
shapes = (
{
closed = 1;
nodes = (
(445,0,l),
(445,805,l),
(664,911,l),
(664,1055,l),
(445,949,l),
(445,1496,l),
(261,1470,l),
(261,858,l),
(37,750,l),
(37,605,l),
(261,713,l),
(261,0,l)
);
}
);
userData = {
org.robofab.postScriptHintData = {
};
};
vertWidth = 0;
width = 683;
}
);
unicode = 322;
},
{
glyphname = m;
lastChange = "2023-07-27 15:31:07 +0000";
layers = (
{
anchors = (
{
name = bottom;
pos = (846,0);
},
{
name = top;
pos = (846,1031);
}
);
layerId = "C1664359-F853-4045-A63D-7A2F9FE31172";
shapes = (
{
closed = 1;
nodes = (
(343,0,l),
(343,808,l),
(410,846,o),
(515,901,o),
(632,901,cs),
(683,901,o),
(716,887,o),
(736,841,cs),
(756,795,o),
(764,718,o),
(764,597,cs),
(764,0,l),
(950,0,l),
(950,573,ls),
(950,657,o),
(946,715,o),
(942,754,cs),
(935,808,l),
(971,844,o),
(1122,901,o),
(1211,901,cs),
(1267,901,o),
(1304,878,o),
(1326,824,cs),
(1348,770,o),
(1356,685,o),
(1356,562,cs),
(1356,0,l),
(1542,0,l),
(1542,642,ls),
(1542,911,o),
(1455,1043,o),
(1266,1043,cs),
(1101,1043,o),
(993,991,o),
(907,919,c),
(876,998,o),
(802,1043,o),
(669,1043,cs),
(536,1043,o),
(421,1001,o),
(314,922,c),
(287,1037,l),
(158,1025,l),
(158,0,l)
);
}
);
userData = {
org.robofab.postScriptHintData = {
};
};
vertWidth = 0;
width = 1691;
}
);
unicode = 109;
},
{
glyphname = n;
kernLeft = n;
kernRight = n;
lastChange = "2023-07-27 15:31:07 +0000";
layers = (
{
anchors = (
{
name = bottom;
pos = (578,0);
},
{
name = top;
pos = (578,1031);
}
);
layerId = "C1664359-F853-4045-A63D-7A2F9FE31172";
shapes = (
{
closed = 1;
nodes = (
(343,0,l),
(343,808,l),
(372,825,o),
(403,841,o),
(435,854,cs),
(491,877,o),
(563,901,o),
(638,901,cs),
(709,901,o),
(755,877,o),
(783,825,cs),
(811,773,o),
(822,693,o),
(822,584,cs),
(822,0,l),
(1007,0,l),
(1007,624,ls),
(1007,777,o),
(976,883,o),
(919,949,cs),
(862,1015,o),
(779,1043,o),
(674,1043,cs),
(590,1043,o),
(515,1025,o),
(455,1001,cs),
(394,977,o),
(346,946,o),
(314,922,c),
(287,1037,l),
(158,1025,l),
(158,0,l)
);
}
);
userData = {
org.robofab.postScriptHintData = {
};
};
vertWidth = 0;
width = 1156;
}
);
unicode = 110;
},
{
color = 9;
glyphname = eng;
lastChange = "2023-07-27 15:00:46 +0000";
layers = (
{
anchors = (
{
name = bottom;
pos = (578,0);
},
{
name = top;
pos = (578,1031);
}
);
layerId = "C1664359-F853-4045-A63D-7A2F9FE31172";
shapes = (
{
closed = 1;
nodes = (
(343,0,l),
(343,808,l),
(372,825,o),
(403,841,o),
(435,854,cs),
(491,877,o),
(563,901,o),
(638,901,cs),
(709,901,o),
(755,877,o),
(783,825,cs),
(811,773,o),
(822,693,o),
(822,584,cs),
(822,82,ls),
(822,-112,o),
(768,-186,o),
(612,-273,c),
(667,-396,l),
(794,-347,o),
(879,-285,o),
(932,-209,cs),
(985,-134,o),
(1007,-45,o),
(1007,63,cs),
(1007,624,ls),
(1007,777,o),
(976,883,o),
(919,949,cs),
(862,1015,o),
(779,1043,o),
(674,1043,cs),
(590,1043,o),
(515,1025,o),
(455,1001,cs),
(394,977,o),
(346,946,o),
(314,922,c),
(287,1037,l),
(158,1025,l),
(158,0,l)
);
}
);
width = 1158;
}
);
metricRight = j;
unicode = 331;
},
{
glyphname = o;
kernLeft = o;
kernRight = o;
lastChange = "2023-07-27 15:31:07 +0000";
layers = (
{
anchors = (
{
name = bottom;
pos = (560,0);
},
{
name = center;
pos = (560,516);
},
{
name = ogonek;
pos = (1007,10);
},
{
name = top;
pos = (560,1031);
},
{
name = topright;
pos = (1099,1031);
}
);
layerId = "C1664359-F853-4045-A63D-7A2F9FE31172";
shapes = (
{
closed = 1;
nodes = (
(868,-18,o),
(1013,197,o),
(1013,510,cs),
(1013,834,o),
(867,1043,o),
(560,1043,cs),
(252,1043,o),
(106,834,o),
(106,510,cs),
(106,198,o),
(251,-18,o),
(560,-18,cs)
);
},
{
closed = 1;
nodes = (
(460,122,o),
(394,161,o),
(352,230,cs),
(310,299,o),
(293,399,o),
(293,512,cs),
(293,637,o),
(310,734,o),
(352,800,cs),
(394,866,o),
(460,901,o),
(560,901,cs),
(758,901,o),
(827,758,o),
(827,512,cs),
(827,399,o),
(811,299,o),
(769,230,cs),
(727,161,o),
(660,122,o),
(560,122,cs)
);
}
);
userData = {
org.robofab.postScriptHintData = {
};
};
vertWidth = 0;
width = 1119;
}
);
unicode = 111;
},
{
glyphname = oslash;
kernLeft = o;
lastChange = "2023-07-27 15:31:07 +0000";
layers = (
{
anchors = (
{
name = top;
pos = (560,1031);
}
);
layerId = "C1664359-F853-4045-A63D-7A2F9FE31172";
shapes = (
{
closed = 1;
nodes = (
(311,-185,o),
(322,-162,o),
(337,-127,cs),
(352,-92,o),
(371,-50,o),
(392,0,c),
(441,-17,o),
(496,-28,o),
(560,-28,cs),
(868,-28,o),
(1013,201,o),
(1013,504,cs),
(1013,704,o),
(951,869,o),
(820,960,c),
(876,1086,o),
(916,1168,o),
(923,1183,c),
(841,1226,l),
(741,1000,l),
(689,1024,o),
(628,1035,o),
(560,1035,cs),
(253,1035,o),
(106,812,o),
(106,504,cs),
(106,300,o),
(173,128,o),
(311,38,c),
(221,-157,l),
(306,-197,l)
);
},
{
closed = 1;
nodes = (
(319,263,o),
(293,375,o),
(293,506,cs),
(293,621,o),
(310,718,o),
(352,787,cs),
(394,856,o),
(460,896,o),
(560,896,cs),
(608,896,o),
(647,887,o),
(682,868,c),
(383,192,l)
);
},
{
closed = 1;
nodes = (
(517,109,o),
(480,116,o),
(449,131,c),
(745,803,l),
(802,735,o),
(827,631,o),
(827,506,cs),
(827,285,o),
(760,109,o),
(560,109,cs)
);
}
);
userData = {
org.robofab.postScriptHintData = {
};
};
vertWidth = 0;
width = 1119;
}
);
unicode = 248;
},
{
glyphname = p;
lastChange = "2023-07-27 15:31:07 +0000";
layers = (
{
anchors = (
{
name = bottom;
pos = (568,0);
},
{
name = top;
pos = (568,1031);
}
);
layerId = "C1664359-F853-4045-A63D-7A2F9FE31172";
shapes = (
{
closed = 1;
nodes = (
(343,-399,l),
(343,71,l),
(369,54,o),
(398,39,o),
(430,26,cs),
(486,3,o),
(563,-18,o),
(655,-18,cs),
(865,-18,o),
(1030,136,o),
(1030,514,cs),
(1030,697,o),
(997,830,o),
(934,916,cs),
(871,1002,o),
(781,1043,o),
(666,1043,cs),
(504,1043,o),
(404,995,o),
(311,927,c),
(278,1036,l),
(158,1025,l),
(158,-415,l)
);
},
{
closed = 1;
nodes = (
(531,122,o),
(466,141,o),
(419,160,cs),
(392,171,o),
(366,184,o),
(343,198,c),
(343,816,l),
(369,832,o),
(397,846,o),
(428,858,cs),
(480,879,o),
(551,901,o),
(631,901,cs),
(772,901,o),
(844,788,o),
(844,524,cs),
(844,228,o),
(761,122,o),
(606,122,cs)
);
}
);
userData = {
org.robofab.postScriptHintData = {
};
};
vertWidth = 0;
width = 1136;
}
);
unicode = 112;
},
{
glyphname = thorn;
lastChange = "2023-07-27 15:31:07 +0000";
layers = (
{
anchors = (
{
name = bottom;
pos = (567,0);
},
{
name = top;
pos = (567,1031);
}
);
layerId = "C1664359-F853-4045-A63D-7A2F9FE31172";
shapes = (
{
closed = 1;
nodes = (
(341,101,l),
(361,78,o),
(384,58,o),
(411,41,cs),
(458,10,o),
(525,-18,o),
(616,-18,cs),
(717,-18,o),
(820,15,o),
(898,98,cs),
(976,181,o),
(1028,312,o),
(1028,507,cs),
(1028,887,o),
(848,1045,o),
(637,1045,cs),
(549,1045,o),
(477,1024,o),
(425,1001,cs),
(394,988,o),
(367,974,o),
(343,958,c),
(343,1499,l),
(158,1473,l),
(158,-340,l),
(341,-349,l)
);
},
{
closed = 1;
nodes = (
(516,122,o),
(454,145,o),
(411,169,cs),
(386,183,o),
(363,199,o),
(343,217,c),
(343,824,l),
(366,838,o),
(391,851,o),
(418,863,cs),
(465,883,o),
(528,903,o),
(601,903,cs),
(764,903,o),
(843,758,o),
(843,503,cs),
(843,226,o),
(727,122,o),
(589,122,cs)
);
}
);
userData = {
org.robofab.postScriptHintData = {
};
};
vertWidth = 0;
width = 1134;
}
);
unicode = 254;
},
{
glyphname = q;
kernLeft = o;
lastChange = "2023-07-27 15:31:07 +0000";
layers = (
{
anchors = (
{
name = bottom;
pos = (554,0);
},
{
name = top;
pos = (554,1031);
}
);
layerId = "C1664359-F853-4045-A63D-7A2F9FE31172";
shapes = (
{
closed = 1;
nodes = (
(952,-390,l),
(952,974,l),
(931,979,ls),
(904,987,o),
(857,998,o),
(796,1011,cs),
(701,1032,o),
(590,1043,o),
(497,1043,cs),
(250,1043,o),
(106,860,o),
(106,509,cs),
(106,344,o),
(142,211,o),
(205,120,cs),
(268,29,o),
(358,-18,o),
(466,-18,cs),
(551,-18,o),
(625,3,o),
(680,26,cs),
(712,39,o),
(741,54,o),
(767,71,c),
(767,-417,l)
);
},
{
closed = 1;
nodes = (
(366,122,o),
(290,251,o),
(290,512,cs),
(290,665,o),
(315,761,o),
(359,821,cs),
(402,880,o),
(464,901,o),
(539,901,cs),
(586,901,o),
(640,896,o),
(687,889,cs),
(714,885,o),
(740,880,o),
(767,875,c),
(767,196,l),
(743,182,o),
(718,170,o),
(691,159,cs),
(646,140,o),
(587,122,o),
(527,122,cs)
);
}
);
userData = {
org.robofab.postScriptHintData = {
};
};
vertWidth = 0;
width = 1107;
}
);
unicode = 113;
},
{
glyphname = r;
kernLeft = r;
kernRight = r;
lastChange = "2023-07-27 15:31:07 +0000";
layers = (
{
anchors = (
{
name = bottom;
pos = (258,0);
},
{
name = top;
pos = (368,1031);
}
);
layerId = "C1664359-F853-4045-A63D-7A2F9FE31172";
shapes = (
{
closed = 1;
nodes = (
(343,0,l),
(343,799,l),
(366,816,o),
(391,832,o),
(418,845,cs),
(465,868,o),
(530,892,o),
(606,892,cs),
(638,892,o),
(657,888,o),
(668,885,cs),
(675,882,o),
(679,880,o),
(682,878,c),
(704,1021,l),
(694,1025,o),
(683,1029,o),
(671,1032,cs),
(651,1037,o),
(625,1043,o),
(598,1043,cs),
(497,1043,o),
(399,997,o),
(322,917,c),
(287,1035,l),
(158,1025,l),
(158,0,l)
);
}
);
userData = {
org.robofab.postScriptHintData = {
};
};
vertWidth = 0;
width = 736;
}
);
unicode = 114;
},
{
glyphname = s;
kernLeft = s;
kernRight = s;
lastChange = "2023-07-27 15:31:07 +0000";
layers = (
{
anchors = (
{
name = bottom;
pos = (463,0);
},
{
name = top;
pos = (463,1031);
}
);
layerId = "C1664359-F853-4045-A63D-7A2F9FE31172";
shapes = (
{
closed = 1;
nodes = (
(655,-19,o),
(839,67,o),
(839,282,cs),
(839,464,o),
(752,547,o),
(519,607,cs),
(313,660,o),
(273,684,o),
(273,773,cs),
(273,883,o),
(370,899,o),
(490,899,cs),
(601,899,o),
(726,868,o),
(773,854,c),
(753,1001,l),
(682,1026,o),
(585,1043,o),
(489,1043,cs),
(295,1043,o),
(102,979,o),
(102,777,cs),
(102,583,o),
(211,515,o),
(410,465,cs),
(615,413,o),
(665,379,o),
(665,285,cs),
(665,155,o),
(558,126,o),
(433,126,cs),
(302,126,o),
(154,172,o),
(113,189,c),
(132,38,l),
(231,2,o),
(340,-19,o),
(444,-19,cs)
);
}
);
userData = {
org.robofab.postScriptHintData = {
};
};
vertWidth = 0;
width = 925;
}
);
unicode = 115;
},
{
glyphname = germandbls;
lastChange = "2023-07-27 15:31:07 +0000";
layers = (
{
anchors = (
{
name = bottom;
pos = (667,0);
},
{
name = top;
pos = (667,1437);
}
);
layerId = "C1664359-F853-4045-A63D-7A2F9FE31172";
shapes = (
{
closed = 1;
nodes = (
(1069,-152,o),
(1250,15,o),
(1250,339,cs),
(1250,491,o),
(1198,614,o),
(1118,700,cs),
(1038,786,o),
(929,836,o),
(814,844,c),
(835,897,o),
(853,945,o),
(870,989,cs),
(897,1063,o),
(927,1142,o),
(927,1168,c),
(945,1262,o),
(949,1353,o),
(901,1429,cs),
(885,1453,o),
(863,1474,o),
(835,1492,cs),
(778,1527,o),
(694,1549,o),
(571,1549,cs),
(312,1549,o),
(185,1405,o),
(185,1110,cs),
(185,-4,l),
(372,-4,l),
(372,1112,ls),
(372,1285,o),
(404,1402,o),
(571,1402,cs),
(775,1402,o),
(785,1283,o),
(750,1153,c),
(750,1140,o),
(726,1069,o),
(680,942,cs),
(659,885,o),
(636,822,o),
(611,752,c),
(888,749,o),
(1058,652,o),
(1058,356,cs),
(1058,152,o),
(991,-3,o),
(791,-3,cs),
(731,-3,o),
(682,6,o),
(647,15,cs),
(626,20,o),
(608,27,o),
(591,34,c),
(611,-107,l),
(628,-114,o),
(647,-120,o),
(669,-126,cs),
(706,-137,o),
(759,-146,o),
(823,-147,cs)
);
}
);
userData = {
org.robofab.postScriptHintData = {
};
};
vertWidth = 0;
width = 1334;
}
);
unicode = 223;
},
{
glyphname = t;
kernLeft = t;
kernRight = t;
lastChange = "2023-07-27 15:31:07 +0000";
layers = (
{
anchors = (
{
name = bottom;
pos = (340,0);
},
{
name = center;
pos = (340,516);
},
{
name = top;
pos = (340,1031);
},
{
name = topright;
pos = (659,1437);
}
);
layerId = "C1664359-F853-4045-A63D-7A2F9FE31172";
shapes = (
{
closed = 1;
nodes = (
(500,-18,o),
(542,-13,o),
(571,-8,cs),
(588,-5,o),
(603,-2,o),
(615,3,c),
(631,132,l),
(589,123,ls),
(562,118,o),
(528,114,o),
(492,114,cs),
(395,114,o),
(382,154,o),
(382,298,cs),
(382,921,l),
(635,921,l),
(635,1025,l),
(379,1025,l),
(379,1374,l),
(230,1345,l),
(204,1025,l),
(55,1025,l),
(55,921,l),
(197,921,l),
(197,337,ls),
(197,201,o),
(214,112,o),
(253,57,cs),
(292,2,o),
(353,-18,o),
(444,-18,cs)
);
}
);
userData = {
org.robofab.postScriptHintData = {
};
};
vertWidth = 0;
width = 679;
}
);
unicode = 116;
},
{
glyphname = u;
kernLeft = u;
kernRight = u;
lastChange = "2023-07-27 15:31:07 +0000";
layers = (
{
anchors = (
{
name = bottom;
pos = (578,0);
},
{
name = ogonek;
pos = (988,0);
},
{
name = top;
pos = (578,1031);
},
{
name = topright;
pos = (1136,1031);
}
);
layerId = "C1664359-F853-4045-A63D-7A2F9FE31172";
shapes = (
{
closed = 1;
nodes = (
(597,-18,o),
(685,15,o),
(746,50,cs),
(782,70,o),
(813,93,o),
(839,118,c),
(864,-11,l),
(998,0,l),
(998,1025,l),
(813,1025,l),
(813,217,l),
(790,199,o),
(763,183,o),
(733,169,cs),
(682,145,o),
(611,122,o),
(527,122,cs),
(454,122,o),
(405,145,o),
(375,197,cs),
(345,248,o),
(333,329,o),
(333,445,cs),
(333,1025,l),
(149,1025,l),
(149,438,ls),
(149,125,o),
(252,-18,o),
(484,-18,cs)
);
}
);
userData = {
org.robofab.postScriptHintData = {
};
};
vertWidth = 0;
width = 1156;
}
);
unicode = 117;
},
{
glyphname = v;
lastChange = "2023-07-27 15:31:07 +0000";
layers = (
{
anchors = (
{
name = bottom;
pos = (483,0);
},
{
name = top;
pos = (483,1031);
}
);
layerId = "C1664359-F853-4045-A63D-7A2F9FE31172";
shapes = (
{
closed = 1;
nodes = (
(594,0,l),
(921,1025,l),
(732,1025,l),
(482,161,l),
(239,1025,l),
(45,1025,l),
(373,0,l)
);
}
);
userData = {
org.robofab.postScriptHintData = {
};
};
vertWidth = 0;
width = 965;
}
);
unicode = 118;
},
{
glyphname = w;
lastChange = "2023-07-27 15:31:07 +0000";
layers = (
{
anchors = (
{
name = bottom;
pos = (743,0);
},
{
name = top;
pos = (743,1031);
}
);
layerId = "C1664359-F853-4045-A63D-7A2F9FE31172";
shapes = (
{
closed = 1;
nodes = (
(567,0,l),
(735,877,l),
(931,0,l),
(1175,0,l),
(1414,1025,l),
(1213,1025,l),
(1051,93,l),
(853,1011,l),
(618,1011,l),
(451,93,l),
(264,1025,l),
(64,1025,l),
(321,0,l)
);
}
);
userData = {
org.robofab.postScriptHintData = {
};
};
vertWidth = 0;
width = 1485;
}
);
unicode = 119;
},
{
glyphname = x;
lastChange = "2023-07-27 15:31:07 +0000";
layers = (
{
anchors = (
{
name = bottom;
pos = (499,0);
},
{
name = top;
pos = (499,1031);
}
);
layerId = "C1664359-F853-4045-A63D-7A2F9FE31172";
shapes = (
{
closed = 1;
nodes = (
(258,0,l),
(499,402,l),
(738,0,l),
(945,0,l),
(601,513,l),
(945,1025,l),
(749,1025,l),
(499,617,l),
(247,1025,l),
(53,1025,l),
(395,513,l),
(53,0,l)
);
}
);
userData = {
org.robofab.postScriptHintData = {
};
};
vertWidth = 0;
width = 997;
}
);
unicode = 120;
},
{
glyphname = y;
kernLeft = y;
kernRight = y;
lastChange = "2023-07-27 15:31:07 +0000";
layers = (
{
anchors = (
{
name = bottom;
pos = (490,0);
},
{
name = top;
pos = (490,1031);
}
);
layerId = "C1664359-F853-4045-A63D-7A2F9FE31172";
shapes = (
{
closed = 1;
nodes = (
(461,-429,o),
(502,-301,o),
(581,-60,cs),
(934,1025,l),
(738,1025,l),
(491,136,l),
(242,1025,l),
(43,1025,l),
(399,-47,l),
(375,-154,ls),
(355,-228,o),
(340,-278,o),
(279,-278,cs),
(228,-278,o),
(172,-265,o),
(125,-252,cs),
(98,-245,o),
(72,-236,o),
(45,-225,c),
(32,-351,l),
(55,-366,o),
(81,-379,o),
(110,-390,cs),
(159,-410,o),
(228,-429,o),
(311,-429,cs)
);
}
);
userData = {
org.robofab.postScriptHintData = {
};
};
vertWidth = 0;
width = 979;
}
);
unicode = 121;
},
{
glyphname = z;
kernLeft = z;
kernRight = z;
lastChange = "2023-07-27 15:31:07 +0000";
layers = (
{
anchors = (
{
name = bottom;
pos = (439,0);
},
{
name = center;
pos = (439,516);
},
{
name = top;
pos = (439,1031);
}
);
layerId = "C1664359-F853-4045-A63D-7A2F9FE31172";
shapes = (
{
closed = 1;
nodes = (
(799,0,l),
(799,138,l),
(461,138,l),
(273,134,l),
(811,888,l),
(779,1031,l),
(101,1031,l),
(101,891,l),
(378,891,l),
(616,896,l),
(84,153,l),
(84,0,l)
);
}
);
userData = {
org.robofab.postScriptHintData = {
};
};
vertWidth = 0;
width = 878;
}
);
unicode = 122;
},
{
glyphname = fi;
lastChange = "2023-07-27 15:31:07 +0000";
layers = (
{
anchors = (
{
name = caret_1;
pos = (551,0);
}
);
layerId = "C1664359-F853-4045-A63D-7A2F9FE31172";
shapes = (
{
closed = 1;
nodes = (
(411,0,l),
(411,917,l),
(760,917,l),
(760,0,l),
(944,0,l),
(944,1021,l),
(411,1021,l),
(411,1109,ls),
(411,1202,o),
(421,1261,o),
(445,1294,cs),
(469,1327,o),
(509,1338,o),
(569,1338,cs),
(604,1338,o),
(639,1332,o),
(666,1325,cs),
(681,1321,o),
(696,1317,o),
(710,1312,c),
(702,1432,l),
(687,1439,o),
(671,1445,o),
(652,1451,cs),
(620,1462,o),
(573,1471,o),
(516,1471,cs),
(417,1471,o),
(347,1441,o),
(301,1376,cs),
(255,1311,o),
(232,1209,o),
(229,1068,cs),
(229,1021,l),
(52,1021,l),
(52,917,l),
(228,917,l),
(228,0,l)
);
},
{
closed = 1;
nodes = (
(947,1187,l),
(947,1369,l),
(755,1369,l),
(755,1187,l)
);
}
);
userData = {
org.robofab.postScriptHintData = {
};
};
vertWidth = 0;
width = 1102;
}
);
unicode = 64257;
},
{
glyphname = ordfeminine;
lastChange = "2023-07-27 15:31:07 +0000";
layers = (
{
layerId = "C1664359-F853-4045-A63D-7A2F9FE31172";
shapes = (
{
closed = 1;
nodes = (
(798,297,l),
(798,375,l),
(198,375,l),
(198,297,l)
);
},
{
pos = (59,527);
ref = a;
scale = (0.7362,0.7357);
}
);
userData = {
org.robofab.postScriptHintData = {
};
};
vertWidth = 0;
width = 953;
}
);
unicode = 170;
},
{
glyphname = ordmasculine;
lastChange = "2023-07-27 15:31:07 +0000";
layers = (
{
layerId = "C1664359-F853-4045-A63D-7A2F9FE31172";
shapes = (
{
closed = 1;
nodes = (
(739,297,l),
(739,375,l),
(190,375,l),
(190,297,l)
);
},
{
pos = (53,528);
ref = o;
scale = (0.734,0.7351);
}
);
userData = {
org.robofab.postScriptHintData = {
};
};
vertWidth = 0;
width = 930;
}
);
unicode = 186;
},
{
glyphname = pi;
lastChange = "2023-07-27 15:31:07 +0000";
layers = (
{
layerId = "C1664359-F853-4045-A63D-7A2F9FE31172";
shapes = (
{
closed = 1;
nodes = (
(970,-20,o),
(1009,-14,o),
(1037,-7,cs),
(1053,-4,o),
(1067,1,o),
(1080,6,c),
(1085,30,o),
(1091,53,o),
(1096,76,cs),
(1101,99,o),
(1107,122,o),
(1112,145,c),
(1099,139,o),
(1085,134,o),
(1070,130,cs),
(1043,123,o),
(1007,116,o),
(967,116,cs),
(920,116,o),
(894,133,o),
(883,169,cs),
(872,204,o),
(875,258,o),
(887,334,cs),
(929,600,ls),
(942,688,o),
(956,777,o),
(970,866,c),
(1140,866,l),
(1152,931,ls),
(1155,953,o),
(1159,975,o),
(1163,997,c),
(242,997,l),
(234,953,o),
(226,909,o),
(219,866,c),
(413,866,l),
(371,707,o),
(331,559,o),
(304,455,cs),
(269,326,o),
(235,248,o),
(193,201,cs),
(151,154,o),
(100,140,o),
(36,140,c),
(41,120,o),
(66,19,o),
(71,-3,c),
(138,-3,o),
(206,0,o),
(277,56,cs),
(300,73,o),
(322,98,o),
(344,129,cs),
(387,192,o),
(427,285,o),
(462,421,cs),
(570,866,l),
(805,866,l),
(720,329,ls),
(701,202,o),
(712,115,o),
(748,60,cs),
(783,4,o),
(843,-20,o),
(922,-20,cs)
);
}
);
userData = {
org.robofab.postScriptHintData = {
};
};
vertWidth = 0;
width = 1204;
}
);
unicode = 960;
},
{
glyphname = zero;
layers = (
{
layerId = "C1664359-F853-4045-A63D-7A2F9FE31172";
shapes = (
{
closed = 1;
nodes = (
(771,123,o),
(852,178,o),
(898,274,cs),
(944,369,o),
(957,506,o),
(957,674,cs),
(957,837,o),
(942,976,o),
(895,1073,cs),
(847,1169,o),
(767,1227,o),
(639,1227,cs),
(511,1227,o),
(432,1170,o),
(385,1074,cs),
(337,977,o),
(323,838,o),
(323,674,cs),
(323,506,o),
(338,369,o),
(386,274,cs),
(433,178,o),
(512,123,o),
(639,123,cs)
);
},
{
closed = 1;
nodes = (
(133,1110,o),
(257,1369,o),
(639,1369,cs),
(1024,1369,o),
(1147,1110,o),
(1147,673,cs),
(1147,454,o),
(1115,279,o),
(1035,160,cs),
(955,41,o),
(828,-24,o),
(639,-24,cs),
(450,-24,o),
(324,41,o),
(245,160,cs),
(165,279,o),
(133,454,o),
(133,673,cs)
);
}
);
userData = {
org.robofab.postScriptHintData = {
};
};
vertWidth = 0;
width = 1280;
}
);
unicode = 48;
},
{
glyphname = one;
lastChange = "2023-07-27 15:31:55 +0000";
layers = (
{
layerId = "C1664359-F853-4045-A63D-7A2F9FE31172";
shapes = (
{
closed = 1;
nodes = (
(471,0,l),
(471,1309,l),
(338,1336,l),
(39,1191,l),
(97,1050,l),
(299,1158,l),
(299,0,l)
);
}
);
userData = {
org.robofab.postScriptHintData = {
};
};
vertWidth = 0;
width = 659;
}
);
unicode = 49;
},
{
glyphname = two;
lastChange = "2023-07-27 15:31:07 +0000";
layers = (
{
layerId = "C1664359-F853-4045-A63D-7A2F9FE31172";
shapes = (
{
closed = 1;
nodes = (
(836,0,l),
(856,144,l),
(304,144,l),
(682,585,ls),
(791,715,o),
(871,834,o),
(871,996,cs),
(871,1210,o),
(753,1363,o),
(488,1363,cs),
(400,1363,o),
(314,1346,o),
(247,1329,cs),
(208,1319,o),
(172,1308,o),
(137,1296,c),
(117,1140,l),
(154,1153,o),
(193,1166,o),
(232,1179,cs),
(300,1198,o),
(383,1217,o),
(458,1217,cs),
(630,1217,o),
(691,1109,o),
(691,993,cs),
(691,883,o),
(621,782,o),
(553,700,cs),
(90,146,l),
(120,0,l)
);
}
);
userData = {
org.robofab.postScriptHintData = {
};
};
vertWidth = 0;
width = 988;
}
);
unicode = 50;
},
{
glyphname = three;
lastChange = "2023-07-27 15:31:07 +0000";
layers = (
{
layerId = "C1664359-F853-4045-A63D-7A2F9FE31172";
shapes = (
{
closed = 1;
nodes = (
(726,-24,o),
(936,58,o),
(936,376,cs),
(936,457,o),
(918,521,o),
(891,569,cs),
(864,616,o),
(828,646,o),
(792,670,cs),
(750,694,o),
(702,708,o),
(648,712,c),
(693,720,o),
(733,736,o),
(768,761,c),
(830,812,o),
(889,885,o),
(889,1030,cs),
(889,1265,o),
(720,1370,o),
(452,1370,cs),
(316,1370,o),
(175,1331,o),
(140,1320,c),
(115,1167,l),
(175,1184,o),
(326,1221,o),
(452,1221,cs),
(589,1221,o),
(700,1171,o),
(700,1011,cs),
(700,926,o),
(678,870,o),
(622,836,cs),
(565,802,o),
(471,789,o),
(330,789,c),
(330,628,l),
(639,628,o),
(734,536,o),
(734,367,cs),
(734,204,o),
(632,132,o),
(479,132,cs),
(325,132,o),
(165,180,o),
(125,189,c),
(91,40,l),
(150,25,o),
(315,-24,o),
(476,-24,cs)
);
}
);
userData = {
org.robofab.postScriptHintData = {
};
};
vertWidth = 0;
width = 1061;
}
);
unicode = 51;
},
{
glyphname = four;
lastChange = "2023-07-27 15:31:57 +0000";
layers = (
{
layerId = "C1664359-F853-4045-A63D-7A2F9FE31172";
shapes = (
{
closed = 1;
nodes = (
(837,-14,l),
(837,257,l),
(1004,257,l),
(1004,397,l),
(837,397,l),
(837,1328,l),
(570,1335,l),
(38,379,l),
(84,257,l),
(662,257,l),
(662,-19,l)
);
},
{
closed = 1;
nodes = (
(488,853,l),
(672,1217,l),
(662,839,l),
(662,397,l),
(424,397,l),
(233,393,l)
);
}
);
userData = {
org.robofab.postScriptHintData = {
};
};
vertWidth = 0;
width = 1082;
}
);
unicode = 52;
},
{
glyphname = five;
lastChange = "2023-07-27 15:31:07 +0000";
layers = (
{
layerId = "C1664359-F853-4045-A63D-7A2F9FE31172";
shapes = (
{
closed = 1;
nodes = (
(811,-24,o),
(920,127,o),
(920,425,cs),
(920,708,o),
(746,832,o),
(516,832,cs),
(460,832,o),
(407,827,o),
(367,820,cs),
(344,817,o),
(322,813,o),
(301,809,c),
(319,1209,l),
(824,1209,l),
(839,1339,l),
(163,1339,l),
(143,721,l),
(170,694,l),
(188,676,ls),
(193,670,o),
(196,667,o),
(197,667,cs),
(260,678,o),
(367,689,o),
(482,689,cs),
(648,689,o),
(748,586,o),
(748,424,cs),
(748,206,o),
(680,132,o),
(450,132,cs),
(370,132,o),
(296,144,o),
(240,157,cs),
(207,165,o),
(177,174,o),
(149,183,c),
(168,31,l),
(194,20,o),
(223,11,o),
(254,3,cs),
(307,-12,o),
(378,-24,o),
(457,-24,cs)
);
}
);
userData = {
org.robofab.postScriptHintData = {
};
};
vertWidth = 0;
width = 1028;
}
);
unicode = 53;
},
{
glyphname = six;
lastChange = "2023-07-27 15:31:07 +0000";
layers = (
{
layerId = "C1664359-F853-4045-A63D-7A2F9FE31172";
shapes = (
{
closed = 1;
nodes = (
(962,-24,o),
(1110,197,o),
(1110,427,cs),
(1110,680,o),
(942,842,o),
(706,842,cs),
(614,842,o),
(534,819,o),
(469,791,cs),
(404,763,o),
(354,728,o),
(321,705,c),
(322,856,o),
(346,973,o),
(398,1054,cs),
(450,1134,o),
(531,1182,o),
(647,1195,cs),
(730,1207,o),
(825,1206,o),
(941,1191,c),
(918,1338,l),
(863,1343,o),
(813,1346,o),
(766,1346,cs),
(719,1346,o),
(674,1343,o),
(632,1337,c),
(445,1320,o),
(320,1248,o),
(241,1125,cs),
(162,1001,o),
(130,827,o),
(130,600,cs),
(130,403,o),
(173,247,o),
(255,140,cs),
(337,33,o),
(459,-24,o),
(616,-24,cs)
);
},
{
closed = 1;
nodes = (
(425,120,o),
(321,269,o),
(322,529,cs),
(322,567,o),
(323,572,o),
(323,582,c),
(353,602,o),
(386,620,o),
(423,636,cs),
(486,663,o),
(570,692,o),
(669,692,cs),
(851,692,o),
(929,588,o),
(929,424,cs),
(929,217,o),
(823,120,o),
(626,120,cs)
);
}
);
userData = {
org.robofab.postScriptHintData = {
};
};
vertWidth = 0;
width = 1196;
}
);
unicode = 54;
},
{
glyphname = seven;
lastChange = "2023-07-27 15:31:07 +0000";
layers = (
{
layerId = "C1664359-F853-4045-A63D-7A2F9FE31172";
shapes = (
{
closed = 1;
nodes = (
(867,1177,l),
(826,1317,l),
(69,1317,l),
(59,1171,l),
(678,1174,l),
(205,48,l),
(365,-24,l)
);
}
);
userData = {
org.robofab.postScriptHintData = {
};
};
vertWidth = 0;
width = 917;
}
);
unicode = 55;
},
{
glyphname = eight;
lastChange = "2023-07-27 15:31:07 +0000";
layers = (
{
layerId = "C1664359-F853-4045-A63D-7A2F9FE31172";
shapes = (
{
closed = 1;
nodes = (
(796,-24,o),
(1031,67,o),
(1031,345,cs),
(1031,601,o),
(850,686,o),
(733,711,c),
(860,743,o),
(988,842,o),
(988,1013,cs),
(988,1110,o),
(956,1198,o),
(889,1263,cs),
(822,1327,o),
(718,1367,o),
(577,1367,cs),
(437,1367,o),
(335,1328,o),
(268,1264,cs),
(201,1199,o),
(170,1112,o),
(170,1013,cs),
(170,842,o),
(286,742,o),
(412,711,c),
(356,696,o),
(302,680,o),
(234,623,cs),
(170,569,o),
(123,475,o),
(123,345,cs),
(123,68,o),
(360,-24,o),
(577,-24,cs)
);
},
{
closed = 1;
nodes = (
(424,126,o),
(314,184,o),
(314,364,cs),
(314,472,o),
(378,551,o),
(446,592,cs),
(485,616,o),
(529,634,o),
(578,646,c),
(628,635,o),
(673,618,o),
(712,594,cs),
(779,554,o),
(846,478,o),
(846,364,cs),
(846,181,o),
(729,126,o),
(577,126,cs)
);
},
{
closed = 1;
nodes = (
(536,796,o),
(499,811,o),
(466,832,cs),
(409,867,o),
(354,930,o),
(354,1023,cs),
(354,1177,o),
(462,1222,o),
(579,1222,cs),
(702,1222,o),
(803,1177,o),
(803,1023,cs),
(803,929,o),
(747,867,o),
(691,833,cs),
(658,812,o),
(621,796,o),
(579,785,c)
);
}
);
userData = {
org.robofab.postScriptHintData = {
};
};
vertWidth = 0;
width = 1155;
}
);
unicode = 56;
},
{
glyphname = nine;
lastChange = "2023-07-27 15:31:07 +0000";
layers = (
{
layerId = "C1664359-F853-4045-A63D-7A2F9FE31172";
shapes = (
{
closed = 1;
nodes = (
(477,-18,o),
(521,-15,o),
(563,-8,c),
(937,26,o),
(1066,278,o),
(1066,735,cs),
(1066,1144,o),
(889,1365,o),
(580,1365,cs),
(408,1365,o),
(285,1311,o),
(205,1226,cs),
(124,1141,o),
(86,1028,o),
(86,911,cs),
(86,645,o),
(277,496,o),
(514,496,cs),
(697,496,o),
(819,579,o),
(875,629,c),
(874,476,o),
(850,359,o),
(798,279,cs),
(746,198,o),
(665,150,o),
(549,137,cs),
(466,126,o),
(371,127,o),
(255,142,c),
(278,-10,l),
(333,-15,o),
(383,-18,o),
(430,-18,cs)
);
},
{
closed = 1;
nodes = (
(367,642,o),
(267,731,o),
(267,913,cs),
(267,1122,o),
(371,1220,o),
(570,1220,cs),
(670,1220,o),
(746,1183,o),
(797,1112,cs),
(848,1041,o),
(874,941,o),
(874,810,cs),
(874,769,o),
(873,767,o),
(873,753,c),
(844,732,o),
(813,714,o),
(779,698,cs),
(720,671,o),
(640,642,o),
(548,642,cs)
);
}
);
userData = {
org.robofab.postScriptHintData = {
};
};
vertWidth = 0;
width = 1196;
}
);
unicode = 57;
},
{
glyphname = one.dnom;
lastChange = "2023-07-27 15:31:07 +0000";
layers = (
{
layerId = "C1664359-F853-4045-A63D-7A2F9FE31172";
shapes = (
{
closed = 1;
nodes = (
(448,0,l),
(448,939,l),
(326,966,l),
(43,829,l),
(98,697,l),
(203,751,l),
(289,798,l),
(289,0,l)
);
}
);
userData = {
org.robofab.postScriptHintData = {
};
};
vertWidth = 0;
width = 613;
}
);
},
{
glyphname = two.dnom;
lastChange = "2023-07-27 15:31:07 +0000";
layers = (
{
layerId = "C1664359-F853-4045-A63D-7A2F9FE31172";
shapes = (
{
closed = 1;
nodes = (
(710,0,l),
(722,136,l),
(292,136,l),
(584,434,ls),
(673,523,o),
(737,611,o),
(737,726,cs),
(737,803,o),
(711,870,o),
(657,916,cs),
(603,962,o),
(522,988,o),
(414,988,cs),
(342,988,o),
(272,975,o),
(219,960,cs),
(188,952,o),
(158,943,o),
(131,933,c),
(112,787,l),
(143,798,o),
(175,809,o),
(208,818,cs),
(264,833,o),
(334,849,o),
(395,849,cs),
(512,849,o),
(566,795,o),
(566,722,cs),
(566,658,o),
(519,593,o),
(474,542,cs),
(93,136,l),
(113,0,l)
);
}
);
userData = {
org.robofab.postScriptHintData = {
};
};
vertWidth = 0;
width = 843;
}
);
},
{
glyphname = three.dnom;
lastChange = "2023-07-27 15:31:07 +0000";
layers = (
{
layerId = "C1664359-F853-4045-A63D-7A2F9FE31172";
shapes = (
{
closed = 1;
nodes = (
(601,-25,o),
(774,49,o),
(774,244,cs),
(774,358,o),
(712,413,o),
(670,436,cs),
(612,467,o),
(558,474,o),
(537,476,c),
(562,487,o),
(599,496,o),
(646,530,cs),
(691,562,o),
(732,615,o),
(732,699,cs),
(732,860,o),
(627,948,o),
(376,948,cs),
(320,948,o),
(260,938,o),
(213,929,cs),
(186,923,o),
(159,917,o),
(134,910,c),
(113,783,l),
(137,788,o),
(270,820,o),
(371,820,cs),
(504,820,o),
(573,786,o),
(573,682,cs),
(573,581,o),
(506,536,o),
(277,536,c),
(277,407,l),
(524,407,o),
(604,356,o),
(604,250,cs),
(604,153,o),
(534,105,o),
(395,105,cs),
(328,105,o),
(260,117,o),
(208,130,cs),
(177,137,o),
(148,146,o),
(120,155,c),
(91,31,l),
(134,19,o),
(251,-25,o),
(392,-25,cs)
);
}
);
userData = {
org.robofab.postScriptHintData = {
};
};
vertWidth = 0;
width = 886;
}
);
},
{
glyphname = four.dnom;
lastChange = "2023-07-27 15:31:07 +0000";
layers = (
{
layerId = "C1664359-F853-4045-A63D-7A2F9FE31172";
shapes = (
{
closed = 1;
nodes = (
(705,0,l),
(705,215,l),
(865,215,l),
(865,335,l),
(705,335,l),
(705,956,l),
(469,963,l),
(45,320,l),
(88,215,l),
(548,215,l),
(548,-6,l)
);
},
{
closed = 1;
nodes = (
(396,601,l),
(552,853,l),
(548,613,l),
(548,335,l),
(408,335,l),
(222,332,l)
);
}
);
userData = {
org.robofab.postScriptHintData = {
};
};
vertWidth = 0;
width = 935;
}
);
},
{
glyphname = one.numr;
lastChange = "2023-07-27 15:31:07 +0000";
layers = (
{
layerId = "C1664359-F853-4045-A63D-7A2F9FE31172";
shapes = (
{
closed = 1;
nodes = (
(448,350,l),
(448,1289,l),
(326,1316,l),
(43,1179,l),
(98,1047,l),
(203,1101,l),
(289,1148,l),
(289,350,l)
);
}
);
userData = {
org.robofab.postScriptHintData = {
};
};
vertWidth = 0;
width = 613;
}
);
},
{
glyphname = two.numr;
lastChange = "2023-07-27 15:31:07 +0000";
layers = (
{
layerId = "C1664359-F853-4045-A63D-7A2F9FE31172";
shapes = (
{
closed = 1;
nodes = (
(710,350,l),
(722,486,l),
(292,486,l),
(584,784,ls),
(673,873,o),
(737,961,o),
(737,1076,cs),
(737,1153,o),
(711,1220,o),
(657,1266,cs),
(603,1312,o),
(522,1338,o),
(414,1338,cs),
(342,1338,o),
(272,1325,o),
(219,1310,cs),
(188,1302,o),
(158,1293,o),
(131,1283,c),
(112,1137,l),
(143,1148,o),
(175,1159,o),
(208,1168,cs),
(264,1183,o),
(334,1199,o),
(395,1199,cs),
(512,1199,o),
(566,1145,o),
(566,1072,cs),
(566,1008,o),
(519,943,o),
(474,892,cs),
(93,486,l),
(113,350,l)
);
}
);
userData = {
org.robofab.postScriptHintData = {
};
};
vertWidth = 0;
width = 843;
}
);
},
{
glyphname = three.numr;
lastChange = "2023-07-27 15:31:07 +0000";
layers = (
{
layerId = "C1664359-F853-4045-A63D-7A2F9FE31172";
shapes = (
{
closed = 1;
nodes = (
(601,325,o),
(774,399,o),
(774,594,cs),
(774,708,o),
(712,763,o),
(670,786,cs),
(612,817,o),
(558,824,o),
(537,826,c),
(562,837,o),
(599,846,o),
(646,880,cs),
(691,912,o),
(732,965,o),
(732,1049,cs),
(732,1210,o),
(627,1298,o),
(376,1298,cs),
(320,1298,o),
(260,1288,o),
(213,1279,cs),
(186,1273,o),
(159,1267,o),
(134,1260,c),
(113,1133,l),
(137,1138,o),
(270,1170,o),
(371,1170,cs),
(504,1170,o),
(573,1136,o),
(573,1032,cs),
(573,931,o),
(506,886,o),
(277,886,c),
(277,757,l),
(524,757,o),
(604,706,o),
(604,600,cs),
(604,503,o),
(534,455,o),
(395,455,cs),
(328,455,o),
(260,467,o),
(208,480,cs),
(177,487,o),
(148,496,o),
(120,505,c),
(91,381,l),
(134,369,o),
(251,325,o),
(392,325,cs)
);
}
);
userData = {
org.robofab.postScriptHintData = {
};
};
vertWidth = 0;
width = 886;
}
);
},
{
glyphname = four.numr;
lastChange = "2023-07-27 15:31:07 +0000";
layers = (
{
layerId = "C1664359-F853-4045-A63D-7A2F9FE31172";
shapes = (
{
closed = 1;
nodes = (
(705,350,l),
(705,565,l),
(865,565,l),
(865,685,l),
(705,685,l),
(705,1306,l),
(469,1313,l),
(45,670,l),
(88,565,l),
(548,565,l),
(548,344,l)
);
},
{
closed = 1;
nodes = (
(396,951,l),
(552,1203,l),
(548,963,l),
(548,685,l),
(408,685,l),
(222,682,l)
);
}
);
userData = {
org.robofab.postScriptHintData = {
};
};
vertWidth = 0;
width = 935;
}
);
},
{
glyphname = fraction;
lastChange = "2023-07-27 15:31:07 +0000";
layers = (
{
layerId = "C1664359-F853-4045-A63D-7A2F9FE31172";
shapes = (
{
closed = 1;
nodes = (
(740,1381,l),
(599,1432,l),
(-80,67,l),
(59,13,l)
);
}
);
userData = {
org.robofab.postScriptHintData = {
};
};
vertWidth = 0;
width = 640;
}
);
unicode = 8260;
},
{
glyphname = onesuperior;
lastChange = "2023-07-27 15:31:07 +0000";
layers = (
{
layerId = "C1664359-F853-4045-A63D-7A2F9FE31172";
shapes = (
{
closed = 1;
nodes = (
(448,0,l),
(448,939,l),
(326,966,l),
(43,829,l),
(98,697,l),
(203,751,l),
(289,798,l),
(289,0,l)
);
}
);
userData = {
org.robofab.postScriptHintData = {
};
};
vertWidth = 0;
width = 613;
}
);
unicode = 185;
},
{
glyphname = twosuperior;
lastChange = "2023-07-27 15:31:07 +0000";
layers = (
{
layerId = "C1664359-F853-4045-A63D-7A2F9FE31172";
shapes = (
{
closed = 1;
nodes = (
(710,0,l),
(722,136,l),
(292,136,l),
(584,434,ls),
(673,523,o),
(737,611,o),
(737,726,cs),
(737,803,o),
(711,870,o),
(657,916,cs),
(603,962,o),
(522,988,o),
(414,988,cs),
(342,988,o),
(272,975,o),
(219,960,cs),
(188,952,o),
(158,943,o),
(131,933,c),
(112,787,l),
(143,798,o),
(175,809,o),
(208,818,cs),
(264,833,o),
(334,849,o),
(395,849,cs),
(512,849,o),
(566,795,o),
(566,722,cs),
(566,658,o),
(519,593,o),
(474,542,cs),
(93,136,l),
(113,0,l)
);
}
);
userData = {
org.robofab.postScriptHintData = {
};
};
vertWidth = 0;
width = 843;
}
);
unicode = 178;
},
{
glyphname = threesuperior;
lastChange = "2023-07-27 15:31:07 +0000";
layers = (
{
layerId = "C1664359-F853-4045-A63D-7A2F9FE31172";
shapes = (
{
closed = 1;
nodes = (
(601,-25,o),
(774,49,o),
(774,244,cs),
(774,358,o),
(712,413,o),
(670,436,cs),
(612,467,o),
(558,474,o),
(537,476,c),
(562,487,o),
(599,496,o),
(646,530,cs),
(691,562,o),
(732,615,o),
(732,699,cs),
(732,860,o),
(627,948,o),
(376,948,cs),
(320,948,o),
(260,938,o),
(213,929,cs),
(186,923,o),
(159,917,o),
(134,910,c),
(113,783,l),
(137,788,o),
(270,820,o),
(371,820,cs),
(504,820,o),
(573,786,o),
(573,682,cs),
(573,581,o),
(506,536,o),
(277,536,c),
(277,407,l),
(524,407,o),
(604,356,o),
(604,250,cs),
(604,153,o),
(534,105,o),
(395,105,cs),
(328,105,o),
(260,117,o),
(208,130,cs),
(177,137,o),
(148,146,o),
(120,155,c),
(91,31,l),
(134,19,o),
(251,-25,o),
(392,-25,cs)
);
}
);
userData = {
org.robofab.postScriptHintData = {
};
};
vertWidth = 0;
width = 886;
}
);
unicode = 179;
},
{
glyphname = foursuperior;
lastChange = "2023-07-27 15:31:07 +0000";
layers = (
{
layerId = "C1664359-F853-4045-A63D-7A2F9FE31172";
shapes = (
{
closed = 1;
nodes = (
(705,0,l),
(705,215,l),
(865,215,l),
(865,335,l),
(705,335,l),
(705,956,l),
(469,963,l),
(45,320,l),
(88,215,l),
(548,215,l),
(548,-6,l)
);
},
{
closed = 1;
nodes = (
(396,601,l),
(552,853,l),
(548,613,l),
(548,335,l),
(408,335,l),
(222,332,l)
);
}
);
userData = {
org.robofab.postScriptHintData = {
};
};
vertWidth = 0;
width = 935;
}
);
unicode = 8308;
},
{
glyphname = .notdef;
lastChange = "2023-07-27 14:55:48 +0000";
layers = (
{
layerId = "C1664359-F853-4045-A63D-7A2F9FE31172";
shapes = (
{
closed = 1;
nodes = (
(1152,0,l),
(1152,1437,l),
(250,1437,l),
(250,0,l)
);
},
{
closed = 1;
nodes = (
(435,1295,l),
(967,1295,l),
(967,142,l),
(435,142,l)
);
}
);
userData = {
org.robofab.postScriptHintData = {
};
};
width = 1402;
}
);
},
{
glyphname = period;
lastChange = "2023-07-27 15:31:07 +0000";
layers = (
{
layerId = "C1664359-F853-4045-A63D-7A2F9FE31172";
shapes = (
{
closed = 1;
nodes = (
(329,-9,l),
(329,202,l),
(139,202,l),
(139,-9,l)
);
}
);
userData = {
org.robofab.postScriptHintData = {
};
};
vertWidth = 0;
width = 469;
}
);
unicode = 46;
},
{
glyphname = comma;
lastChange = "2023-07-27 15:31:07 +0000";
layers = (
{
layerId = "C1664359-F853-4045-A63D-7A2F9FE31172";
shapes = (
{
closed = 1;
nodes = (
(326,-171,o),
(375,-81,o),
(375,43,cs),
(375,90,o),
(372,132,o),
(369,164,cs),
(367,183,o),
(365,200,o),
(364,216,c),
(138,200,l),
(138,0,l),
(258,0,l),
(258,-71,o),
(222,-125,o),
(147,-133,c),
(174,-213,l)
);
}
);
userData = {
org.robofab.postScriptHintData = {
};
};
vertWidth = 0;
width = 507;
}
);
unicode = 44;
},
{
glyphname = colon;
lastChange = "2023-07-27 15:31:07 +0000";
layers = (
{
layerId = "C1664359-F853-4045-A63D-7A2F9FE31172";
shapes = (
{
closed = 1;
nodes = (
(353,591,l),
(353,805,l),
(148,805,l),
(148,591,l)
);
},
{
closed = 1;
nodes = (
(353,94,l),
(353,306,l),
(147,306,l),
(147,94,l)
);
}
);
userData = {
org.robofab.postScriptHintData = {
};
};
vertWidth = 0;
width = 501;
}
);
unicode = 58;
},
{
glyphname = semicolon;
lastChange = "2023-07-27 15:31:07 +0000";
layers = (
{
layerId = "C1664359-F853-4045-A63D-7A2F9FE31172";
shapes = (
{
closed = 1;
nodes = (
(323,-171,o),
(367,-83,o),
(367,43,cs),
(367,84,o),
(364,122,o),
(361,150,cs),
(355,195,l),
(152,189,l),
(152,0,l),
(250,0,l),
(250,-71,o),
(221,-125,o),
(160,-133,c),
(188,-213,l)
);
},
{
closed = 1;
nodes = (
(357,591,l),
(357,805,l),
(152,805,l),
(152,591,l)
);
}
);
userData = {
org.robofab.postScriptHintData = {
};
};
vertWidth = 0;
width = 514;
}
);
unicode = 59;
},
{
glyphname = ellipsis;
lastChange = "2023-07-27 15:31:07 +0000";
layers = (
{
layerId = "C1664359-F853-4045-A63D-7A2F9FE31172";
shapes = (
{
closed = 1;
nodes = (
(1053,-4,l),
(1053,185,l),
(860,185,l),
(860,-4,l)
);
},
{
closed = 1;
nodes = (
(324,-4,l),
(324,185,l),
(134,185,l),
(134,-4,l)
);
},
{
closed = 1;
nodes = (
(688,-4,l),
(688,185,l),
(495,185,l),
(495,-4,l)
);
}
);
userData = {
org.robofab.postScriptHintData = {
};
};
vertWidth = 0;
width = 1187;
}
);
unicode = 8230;
},
{
glyphname = exclam;
lastChange = "2023-07-27 15:31:07 +0000";
layers = (
{
layerId = "C1664359-F853-4045-A63D-7A2F9FE31172";
shapes = (
{
closed = 1;
nodes = (
(303,355,l),
(306,402,o),
(311,464,o),
(316,540,cs),
(325,669,o),
(338,871,o),
(357,1162,c),
(357,1188,o),
(360,1283,o),
(362,1404,c),
(158,1404,l),
(160,1283,o),
(163,1188,o),
(163,1162,c),
(182,871,o),
(195,669,o),
(204,540,cs),
(209,464,o),
(214,402,o),
(217,355,c)
);
},
{
closed = 1;
nodes = (
(348,-14,l),
(348,165,l),
(173,165,l),
(173,-14,l)
);
}
);
userData = {
org.robofab.postScriptHintData = {
};
};
vertWidth = 0;
width = 523;
}
);
unicode = 33;
},
{
glyphname = question;
lastChange = "2023-07-27 15:31:07 +0000";
layers = (
{
layerId = "C1664359-F853-4045-A63D-7A2F9FE31172";
shapes = (
{
closed = 1;
nodes = (
(343,302,l),
(343,600,ls),
(343,621,o),
(354,638,o),
(377,653,cs),
(425,684,o),
(495,713,o),
(574,751,cs),
(613,770,o),
(650,794,o),
(685,824,cs),
(753,883,o),
(804,966,o),
(804,1093,cs),
(804,1280,o),
(707,1437,o),
(394,1437,cs),
(323,1437,o),
(251,1424,o),
(195,1412,cs),
(162,1405,o),
(131,1397,o),
(101,1388,c),
(101,1306,o),
(96,1225,o),
(96,1244,c),
(127,1252,o),
(159,1259,o),
(192,1266,cs),
(249,1277,o),
(322,1288,o),
(393,1288,cs),
(571,1288,o),
(636,1232,o),
(636,1090,cs),
(636,950,o),
(528,896,o),
(414,841,cs),
(302,786,o),
(192,732,o),
(192,590,cs),
(192,302,l)
);
},
{
closed = 1;
nodes = (
(332,-28,o),
(379,20,o),
(379,78,cs),
(379,138,o),
(334,191,o),
(274,191,cs),
(219,191,o),
(173,140,o),
(173,78,cs),
(173,20,o),
(219,-28,o),
(274,-28,cs)
);
}
);
userData = {
org.robofab.postScriptHintData = {
};
};
vertWidth = 0;
width = 872;
}
);
unicode = 63;
},
{
glyphname = periodcentered;
lastChange = "2023-07-27 15:31:07 +0000";
layers = (
{
layerId = "C1664359-F853-4045-A63D-7A2F9FE31172";
shapes = (
{
closed = 1;
nodes = (
(321,477,l),
(321,672,l),
(148,672,l),
(148,477,l)
);
}
);
userData = {
org.robofab.postScriptHintData = {
};
};
vertWidth = 0;
width = 469;
}
);
unicode = 183;
},
{
glyphname = bullet;
lastChange = "2023-07-27 15:31:07 +0000";
layers = (
{
layerId = "C1664359-F853-4045-A63D-7A2F9FE31172";
shapes = (
{
closed = 1;
nodes = (
(626,264,o),
(811,378,o),
(811,607,cs),
(811,791,o),
(665,949,o),
(464,949,cs),
(264,949,o),
(116,797,o),
(116,605,cs),
(116,424,o),
(250,264,o),
(464,264,cs)
);
}
);
userData = {
org.robofab.postScriptHintData = {
};
};
vertWidth = 0;
width = 926;
}
);
unicode = 8226;
},
{
glyphname = asterisk;
lastChange = "2023-07-27 15:31:07 +0000";
layers = (
{
layerId = "C1664359-F853-4045-A63D-7A2F9FE31172";
shapes = (
{
closed = 1;
nodes = (
(655,776,l),
(519,1017,l),
(782,1008,l),
(782,1118,l),
(516,1109,l),
(666,1351,l),
(569,1409,l),
(438,1163,l),
(322,1403,l),
(225,1348,l),
(359,1110,l),
(94,1118,l),
(94,1008,l),
(357,1017,l),
(212,777,l),
(309,722,l),
(438,964,l),
(551,719,l)
);
}
);
userData = {
org.robofab.postScriptHintData = {
};
};
vertWidth = 0;
width = 875;
}
);
unicode = 42;
},
{
glyphname = numbersign;
lastChange = "2023-07-27 15:31:07 +0000";
layers = (
{
layerId = "C1664359-F853-4045-A63D-7A2F9FE31172";
shapes = (
{
closed = 1;
nodes = (
(856,102,l),
(888,430,l),
(1082,430,l),
(1092,559,l),
(901,559,l),
(945,992,l),
(1124,992,l),
(1139,1119,l),
(960,1119,l),
(993,1460,l),
(841,1460,l),
(809,1119,l),
(498,1119,l),
(533,1462,l),
(382,1462,l),
(348,1119,l),
(153,1119,l),
(139,992,l),
(334,992,l),
(290,559,l),
(98,559,l),
(88,430,l),
(278,430,l),
(245,103,l),
(395,103,l),
(429,430,l),
(739,430,l),
(703,102,l)
);
},
{
closed = 1;
nodes = (
(486,992,l),
(792,992,l),
(749,559,l),
(443,559,l)
);
}
);
userData = {
org.robofab.postScriptHintData = {
};
};
vertWidth = 0;
width = 1226;
}
);
unicode = 35;
},
{
glyphname = slash;
lastChange = "2023-07-27 15:31:07 +0000";
layers = (
{
layerId = "C1664359-F853-4045-A63D-7A2F9FE31172";
shapes = (
{
closed = 1;
nodes = (
(621,1451,l),
(448,1490,l),
(79,-164,l),
(247,-202,l)
);
}
);
userData = {
org.robofab.postScriptHintData = {
};
};
vertWidth = 0;
width = 698;
}
);
unicode = 47;
},
{
glyphname = backslash;
lastChange = "2023-07-27 15:31:07 +0000";
layers = (
{
layerId = "C1664359-F853-4045-A63D-7A2F9FE31172";
shapes = (
{
closed = 1;
nodes = (
(620,-179,l),
(238,1533,l),
(78,1492,l),
(461,-220,l)
);
}
);
userData = {
org.robofab.postScriptHintData = {
};
};
vertWidth = 0;
width = 698;
}
);
unicode = 92;
},
{
glyphname = hyphen;
lastChange = "2023-07-27 15:31:07 +0000";
layers = (
{
layerId = "C1664359-F853-4045-A63D-7A2F9FE31172";
shapes = (
{
closed = 1;
nodes = (
(659,448,l),
(659,578,l),
(146,578,l),
(146,448,l)
);
}
);
userData = {
org.robofab.postScriptHintData = {
};
};
vertWidth = 0;
width = 805;
}
);
unicode = 45;
},
{
glyphname = endash;
lastChange = "2023-07-27 15:31:07 +0000";
layers = (
{
layerId = "C1664359-F853-4045-A63D-7A2F9FE31172";
shapes = (
{
closed = 1;
nodes = (
(909,758,l),
(909,903,l),
(135,903,l),
(135,758,l)
);
}
);
userData = {
org.robofab.postScriptHintData = {
};
};
vertWidth = 0;
width = 1046;
}
);
unicode = 8211;
},
{
glyphname = emdash;
lastChange = "2023-07-27 15:31:07 +0000";
layers = (
{
layerId = "C1664359-F853-4045-A63D-7A2F9FE31172";
shapes = (
{
closed = 1;
nodes = (
(1100,704,l),
(1100,844,l),
(134,844,l),
(134,704,l)
);
}
);
userData = {
org.robofab.postScriptHintData = {
};
};
vertWidth = 0;
width = 1235;
}
);
unicode = 8212;
},
{
glyphname = underscore;
lastChange = "2023-07-27 15:31:07 +0000";
layers = (
{
layerId = "C1664359-F853-4045-A63D-7A2F9FE31172";
shapes = (
{
closed = 1;
nodes = (
(1035,-1,l),
(1035,149,l),
(121,149,l),
(121,-1,l)
);
}
);
userData = {
org.robofab.postScriptHintData = {
};
};
vertWidth = 0;
width = 1156;
}
);
unicode = 95;
},
{
glyphname = parenleft;
lastChange = "2023-07-27 15:31:07 +0000";
layers = (
{
layerId = "C1664359-F853-4045-A63D-7A2F9FE31172";
shapes = (
{
closed = 1;
nodes = (
(541,-90,l),
(493,-47,o),
(450,7,o),
(413,73,cs),
(381,129,o),
(349,203,o),
(326,293,cs),
(302,383,o),
(286,490,o),
(286,617,cs),
(286,744,o),
(302,851,o),
(326,942,cs),
(349,1033,o),
(381,1105,o),
(413,1162,cs),
(450,1229,o),
(493,1283,o),
(541,1326,c),
(456,1423,l),
(391,1377,o),
(332,1316,o),
(281,1241,cs),
(237,1177,o),
(194,1095,o),
(162,992,cs),
(129,889,o),
(107,766,o),
(107,619,cs),
(107,472,o),
(129,348,o),
(162,245,cs),
(194,142,o),
(237,60,o),
(281,-4,cs),
(332,-79,o),
(391,-140,o),
(456,-186,c)
);
}
);
userData = {
org.robofab.postScriptHintData = {
};
};
vertWidth = 0;
width = 598;
}
);
unicode = 40;
},
{
glyphname = parenright;
lastChange = "2023-07-27 15:31:07 +0000";
layers = (
{
layerId = "C1664359-F853-4045-A63D-7A2F9FE31172";
shapes = (
{
closed = 1;
nodes = (
(206,-140,o),
(264,-79,o),
(315,-4,cs),
(359,60,o),
(402,142,o),
(435,245,cs),
(467,348,o),
(489,472,o),
(489,619,cs),
(489,766,o),
(467,889,o),
(435,992,cs),
(402,1095,o),
(359,1177,o),
(315,1241,cs),
(264,1316,o),
(206,1377,o),
(141,1423,c),
(55,1326,l),
(103,1283,o),
(146,1229,o),
(183,1162,cs),
(246,1050,o),
(311,875,o),
(311,617,cs),
(311,369,o),
(248,187,o),
(183,73,cs),
(146,7,o),
(103,-47,o),
(55,-90,c),
(141,-186,l)
);
}
);
userData = {
org.robofab.postScriptHintData = {
};
};
vertWidth = 0;
width = 596;
}
);
unicode = 41;
},
{
glyphname = braceleft;
lastChange = "2023-07-27 15:31:07 +0000";
layers = (
{
layerId = "C1664359-F853-4045-A63D-7A2F9FE31172";
shapes = (
{
closed = 1;
nodes = (
(526,-116,l),
(449,-116,o),
(414,-90,o),
(396,-6,cs),
(390,23,o),
(386,60,o),
(383,105,cs),
(377,196,o),
(377,322,o),
(377,497,c),
(211,605,l),
(377,708,l),
(377,795,o),
(377,871,o),
(378,936,cs),
(378,1065,o),
(384,1155,o),
(396,1212,cs),
(414,1296,o),
(449,1322,o),
(526,1322,c),
(526,1412,l),
(485,1411,o),
(448,1408,o),
(416,1401,cs),
(351,1387,o),
(302,1352,o),
(269,1289,cs),
(252,1258,o),
(239,1218,o),
(229,1169,cs),
(208,1072,o),
(199,937,o),
(199,752,c),
(74,657,l),
(74,550,l),
(199,454,l),
(199,361,o),
(201,281,o),
(206,213,cs),
(215,76,o),
(236,-20,o),
(269,-83,cs),
(286,-114,o),
(306,-139,o),
(331,-157,cs),
(379,-193,o),
(443,-205,o),
(526,-206,c)
);
}
);
userData = {
org.robofab.postScriptHintData = {
};
};
vertWidth = 0;
width = 608;
}
);
unicode = 123;
},
{
glyphname = braceright;
lastChange = "2023-07-27 15:31:07 +0000";
layers = (
{
layerId = "C1664359-F853-4045-A63D-7A2F9FE31172";
shapes = (
{
closed = 1;
nodes = (
(123,-205,o),
(160,-201,o),
(193,-194,cs),
(257,-180,o),
(306,-146,o),
(339,-83,cs),
(356,-52,o),
(369,-12,o),
(380,37,cs),
(400,134,o),
(409,269,o),
(409,454,c),
(535,550,l),
(535,657,l),
(409,752,l),
(409,845,o),
(407,925,o),
(402,994,cs),
(393,1130,o),
(372,1226,o),
(339,1289,cs),
(322,1320,o),
(302,1345,o),
(278,1363,cs),
(229,1399,o),
(165,1411,o),
(82,1412,c),
(82,1322,l),
(159,1322,o),
(195,1296,o),
(212,1212,cs),
(217,1183,o),
(222,1146,o),
(225,1101,cs),
(231,1010,o),
(230,883,o),
(230,708,c),
(397,605,l),
(230,497,l),
(230,270,ls),
(229,141,o),
(223,51,o),
(212,-6,cs),
(195,-90,o),
(159,-116,o),
(82,-116,c),
(82,-206,l)
);
}
);
userData = {
org.robofab.postScriptHintData = {
};
};
vertWidth = 0;
width = 608;
}
);
unicode = 125;
},
{
glyphname = bracketleft;
lastChange = "2023-07-27 15:31:07 +0000";
layers = (
{
layerId = "C1664359-F853-4045-A63D-7A2F9FE31172";
shapes = (
{
closed = 1;
nodes = (
(578,-218,l),
(578,-102,l),
(341,-102,l),
(347,337,l),
(347,966,l),
(341,1319,l),
(578,1319,l),
(578,1437,l),
(172,1437,l),
(172,-218,l)
);
}
);
userData = {
org.robofab.postScriptHintData = {
};
};
vertWidth = 0;
width = 646;
}
);
unicode = 91;
},
{
glyphname = bracketright;
lastChange = "2023-07-27 15:31:07 +0000";
layers = (
{
layerId = "C1664359-F853-4045-A63D-7A2F9FE31172";
shapes = (
{
closed = 1;
nodes = (
(475,-218,l),
(475,1437,l),
(69,1437,l),
(69,1319,l),
(306,1319,l),
(300,966,l),
(300,337,l),
(306,-102,l),
(69,-102,l),
(69,-218,l)
);
}
);
userData = {
org.robofab.postScriptHintData = {
};
};
vertWidth = 0;
width = 646;
}
);
unicode = 93;
},
{
glyphname = mediumflattenedparenrightornament;
lastChange = "2023-07-27 15:32:19 +0000";
layers = (
{
layerId = "C1664359-F853-4045-A63D-7A2F9FE31172";
shapes = (
{
closed = 1;
nodes = (
(1416,81,l),
(1416,889,l),
(868,889,l),
(868,1053,l),
(525,840,l),
(869,607,l),
(869,762,l),
(1246,762,l),
(1246,211,l),
(1083,211,l),
(1083,81,l)
);
},
{
closed = 1;
nodes = (
(1021,143,l),
(674,363,l),
(674,210,l),
(304,210,l),
(304,763,l),
(467,763,l),
(467,888,l),
(136,888,l),
(136,81,l),
(674,81,l),
(674,-82,l)
);
}
);
userData = {
org.robofab.postScriptHintData = {
};
};
vertWidth = 0;
width = 1551;
}
);
unicode = 10091;
},
{
glyphname = quotesinglbase;
lastChange = "2023-07-27 15:31:07 +0000";
layers = (
{
layerId = "C1664359-F853-4045-A63D-7A2F9FE31172";
shapes = (
{
closed = 1;
nodes = (
(287,-186,o),
(350,-110,o),
(350,47,cs),
(350,94,o),
(347,132,o),
(344,160,cs),
(338,205,l),
(133,195,l),
(133,-3,l),
(254,-3,l),
(254,-75,o),
(234,-120,o),
(134,-136,c),
(134,-174,o),
(151,-198,o),
(151,-198,c)
);
}
);
userData = {
org.robofab.postScriptHintData = {
};
};
vertWidth = 0;
width = 481;
}
);
unicode = 8218;
},
{
glyphname = quotedblbase;
lastChange = "2023-07-27 15:31:07 +0000";
layers = (
{
layerId = "C1664359-F853-4045-A63D-7A2F9FE31172";
shapes = (
{
closed = 1;
nodes = (
(291,-186,o),
(350,-101,o),
(350,50,cs),
(350,94,o),
(347,132,o),
(344,160,cs),
(338,205,l),
(133,195,l),
(133,-3,l),
(253,-3,l),
(253,-73,o),
(234,-120,o),
(133,-136,c),
(133,-176,o),
(151,-196,o),
(151,-198,c)
);
},
{
closed = 1;
nodes = (
(583,-186,o),
(641,-101,o),
(641,50,cs),
(641,94,o),
(639,132,o),
(636,160,cs),
(634,177,o),
(632,192,o),
(631,205,c),
(426,195,l),
(426,-3,l),
(545,-3,l),
(545,-72,o),
(528,-120,o),
(425,-136,c),
(425,-176,o),
(443,-196,o),
(443,-198,c)
);
}
);
userData = {
org.robofab.postScriptHintData = {
};
};
vertWidth = 0;
width = 772;
}
);
unicode = 8222;
},
{
glyphname = quotedblleft;
lastChange = "2023-07-27 15:31:07 +0000";
layers = (
{
layerId = "C1664359-F853-4045-A63D-7A2F9FE31172";
shapes = (
{
closed = 1;
nodes = (
(361,1129,l),
(361,1334,l),
(227,1334,l),
(227,1398,o),
(273,1468,o),
(366,1481,c),
(338,1562,l),
(183,1515,o),
(121,1430,o),
(121,1286,cs),
(121,1243,o),
(124,1199,o),
(127,1167,cs),
(133,1113,l)
);
},
{
closed = 1;
nodes = (
(712,1129,l),
(712,1334,l),
(581,1334,l),
(581,1398,o),
(627,1468,o),
(717,1481,c),
(691,1562,l),
(536,1515,o),
(473,1430,o),
(473,1286,cs),
(473,1243,o),
(475,1199,o),
(478,1167,cs),
(484,1113,l)
);
}
);
userData = {
org.robofab.postScriptHintData = {
};
};
vertWidth = 0;
width = 824;
}
);
unicode = 8220;
},
{
glyphname = quotedblright;
lastChange = "2023-07-27 15:31:07 +0000";
layers = (
{
layerId = "C1664359-F853-4045-A63D-7A2F9FE31172";
shapes = (
{
closed = 1;
nodes = (
(647,1156,o),
(709,1241,o),
(709,1386,cs),
(709,1429,o),
(706,1471,o),
(703,1503,cs),
(701,1522,o),
(699,1540,o),
(698,1557,c),
(470,1542,l),
(470,1337,l),
(603,1337,l),
(603,1271,o),
(557,1203,o),
(465,1190,c),
(492,1109,l)
);
},
{
closed = 1;
nodes = (
(293,1156,o),
(355,1241,o),
(355,1386,cs),
(355,1429,o),
(353,1471,o),
(350,1503,cs),
(348,1522,o),
(346,1540,o),
(345,1557,c),
(116,1542,l),
(116,1337,l),
(247,1337,l),
(247,1272,o),
(203,1203,o),
(111,1190,c),
(138,1109,l)
);
}
);
userData = {
org.robofab.postScriptHintData = {
};
};
vertWidth = 0;
width = 792;
}
);
unicode = 8221;
},
{
glyphname = quoteleft;
lastChange = "2023-07-27 15:31:07 +0000";
layers = (
{
layerId = "C1664359-F853-4045-A63D-7A2F9FE31172";
shapes = (
{
closed = 1;
nodes = (
(359,1134,l),
(359,1339,l),
(225,1339,l),
(225,1405,o),
(271,1473,o),
(364,1486,c),
(336,1566,l),
(181,1519,o),
(119,1434,o),
(119,1290,cs),
(119,1247,o),
(122,1204,o),
(125,1172,cs),
(131,1118,l)
);
}
);
userData = {
org.robofab.postScriptHintData = {
};
};
vertWidth = 0;
width = 471;
}
);
unicode = 8216;
},
{
glyphname = quoteright;
lastChange = "2023-07-27 15:31:07 +0000";
layers = (
{
layerId = "C1664359-F853-4045-A63D-7A2F9FE31172";
shapes = (
{
closed = 1;
nodes = (
(295,1151,o),
(357,1236,o),
(357,1381,cs),
(357,1424,o),
(354,1467,o),
(351,1499,cs),
(345,1553,l),
(117,1537,l),
(117,1333,l),
(250,1333,l),
(250,1267,o),
(205,1198,o),
(112,1185,c),
(140,1104,l)
);
}
);
userData = {
org.robofab.postScriptHintData = {
};
};
vertWidth = 0;
width = 441;
}
);
unicode = 8217;
},
{
glyphname = guillemetleft;
lastChange = "2023-07-27 15:31:07 +0000";
layers = (
{
layerId = "C1664359-F853-4045-A63D-7A2F9FE31172";
shapes = (
{
closed = 1;
nodes = (
(603,189,l),
(243,552,l),
(605,914,l),
(529,1026,l),
(58,552,l),
(529,76,l)
);
},
{
closed = 1;
nodes = (
(1040,205,l),
(666,552,l),
(1039,900,l),
(964,1011,l),
(478,552,l),
(966,93,l)
);
}
);
userData = {
org.robofab.postScriptHintData = {
};
};
vertWidth = 0;
width = 1150;
}
);
unicode = 171;
},
{
glyphname = guillemetright;
lastChange = "2023-07-27 15:31:07 +0000";
layers = (
{
layerId = "C1664359-F853-4045-A63D-7A2F9FE31172";
shapes = (
{
closed = 1;
nodes = (
(1092,552,l),
(620,1026,l),
(545,914,l),
(907,552,l),
(546,189,l),
(620,76,l)
);
},
{
closed = 1;
nodes = (
(673,552,l),
(186,1011,l),
(111,900,l),
(483,552,l),
(110,205,l),
(185,93,l)
);
}
);
userData = {
org.robofab.postScriptHintData = {
};
};
vertWidth = 0;
width = 1150;
}
);
unicode = 187;
},
{
glyphname = guilsinglleft;
lastChange = "2023-07-27 15:31:07 +0000";
layers = (
{
layerId = "C1664359-F853-4045-A63D-7A2F9FE31172";
shapes = (
{
closed = 1;
nodes = (
(603,189,l),
(242,552,l),
(604,914,l),
(529,1026,l),
(57,552,l),
(529,76,l)
);
}
);
userData = {
org.robofab.postScriptHintData = {
};
};
vertWidth = 0;
width = 709;
}
);
unicode = 8249;
},
{
glyphname = guilsinglright;
lastChange = "2023-07-27 15:31:07 +0000";
layers = (
{
layerId = "C1664359-F853-4045-A63D-7A2F9FE31172";
shapes = (
{
closed = 1;
nodes = (
(652,552,l),
(181,1026,l),
(105,914,l),
(467,552,l),
(106,189,l),
(181,76,l)
);
}
);
userData = {
org.robofab.postScriptHintData = {
};
};
vertWidth = 0;
width = 710;
}
);
unicode = 8250;
},
{
glyphname = quotedbl;
lastChange = "2023-07-27 15:31:07 +0000";
layers = (
{
layerId = "C1664359-F853-4045-A63D-7A2F9FE31172";
shapes = (
{
closed = 1;
nodes = (
(225,1007,l),
(234,1052,o),
(242,1099,o),
(249,1148,cs),
(261,1232,o),
(273,1337,o),
(273,1436,c),
(120,1436,l),
(123,1311,o),
(129,1204,o),
(137,1128,cs),
(141,1083,o),
(146,1043,o),
(152,1007,c)
);
},
{
closed = 1;
nodes = (
(439,1007,l),
(450,1052,o),
(459,1099,o),
(468,1148,cs),
(483,1232,o),
(497,1337,o),
(497,1436,c),
(347,1436,l),
(347,1345,o),
(349,1253,o),
(353,1175,cs),
(357,1097,o),
(362,1034,o),
(369,1007,c)
);
}
);
userData = {
org.robofab.postScriptHintData = {
};
};
vertWidth = 0;
width = 606;
}
);
unicode = 34;
},
{
glyphname = quotesingle;
lastChange = "2023-07-27 15:31:07 +0000";
layers = (
{
layerId = "C1664359-F853-4045-A63D-7A2F9FE31172";
shapes = (
{
closed = 1;
nodes = (
(216,1007,l),
(229,1056,o),
(240,1106,o),
(250,1157,cs),
(267,1244,o),
(284,1349,o),
(284,1436,c),
(129,1436,l),
(129,1357,o),
(133,1232,o),
(135,1173,cs),
(141,1007,l)
);
}
);
userData = {
org.robofab.postScriptHintData = {
};
};
vertWidth = 0;
width = 389;
}
);
unicode = 39;
},
{
glyphname = florin;
lastChange = "2023-07-27 15:31:07 +0000";
layers = (
{
layerId = "C1664359-F853-4045-A63D-7A2F9FE31172";
shapes = (
{
closed = 1;
nodes = (
(290,0,l),
(449,886,l),
(725,886,l),
(744,991,l),
(468,991,l),
(485,1092,ls),
(502,1185,o),
(521,1244,o),
(552,1278,cs),
(583,1312,o),
(623,1322,o),
(686,1322,cs),
(725,1322,o),
(762,1316,o),
(791,1309,cs),
(808,1305,o),
(824,1301,o),
(839,1296,c),
(845,1419,l),
(831,1426,o),
(815,1433,o),
(798,1439,cs),
(767,1450,o),
(723,1459,o),
(666,1459,cs),
(562,1459,o),
(484,1431,o),
(424,1359,cs),
(363,1287,o),
(321,1170,o),
(289,991,c),
(112,991,l),
(93,886,l),
(270,886,l),
(110,0,l)
);
}
);
userData = {
org.robofab.postScriptHintData = {
};
};
vertWidth = 0;
width = 771;
}
);
unicode = 402;
},
{
glyphname = blackSunWithRays;
lastChange = "2023-07-27 15:31:07 +0000";
layers = (
{
layerId = "C1664359-F853-4045-A63D-7A2F9FE31172";
shapes = (
{
closed = 1;
nodes = (
(808,350,l),
(1156,189,l),
(988,529,l),
(1351,657,l),
(988,783,l),
(1150,1130,l),
(806,963,l),
(677,1323,l),
(549,961,l),
(200,1123,l),
(366,783,l),
(5,655,l),
(368,528,l),
(205,182,l),
(551,348,l),
(679,-10,l)
);
},
{
closed = 1;
nodes = (
(548,342,o),
(403,466,o),
(384,625,cs),
(368,789,o),
(480,936,o),
(652,955,cs),
(813,973,o),
(968,860,o),
(984,690,cs),
(1003,526,o),
(884,377,o),
(716,361,cs)
);
}
);
userData = {
org.robofab.postScriptHintData = {
};
};
vertWidth = 0;
width = 1355;
}
);
unicode = 9728;
},
{
glyphname = at;
lastChange = "2023-07-27 15:32:46 +0000";
layers = (
{
background = {
shapes = (
{
closed = 1;
nodes = (
(1031,896,o),
(916,919,o),
(864,917,cs),
(678,909,o),
(525,735,o),
(517,557,cs),
(506,381,o),
(573,299,o),
(709,299,cs),
(800,299,o),
(868,334,o),
(918,399,cs),
(968,464,o),
(997,561,o),
(1012,681,cs),
(1035,896,l)
);
},
{
closed = 1;
nodes = (
(1511,541,o),
(1481,437,o),
(1435,362,cs),
(1412,325,o),
(1386,294,o),
(1357,271,cs),
(1265,196,o),
(1166,183,o),
(1109,183,cs),
(1008,183,o),
(999,255,o),
(1007,345,c),
(1008,347,o),
(1009,354,o),
(1011,365,cs),
(1017,401,l),
(1025,449,l),
(1016,450,l),
(1004,400,o),
(984,355,o),
(957,315,cs),
(906,245,o),
(828,180,o),
(691,180,cs),
(499,180,o),
(384,318,o),
(384,533,cs),
(384,661,o),
(441,790,o),
(542,889,cs),
(641,986,o),
(778,1042,o),
(929,1022,cs),
(1051,1007,o),
(1112,994,o),
(1114,994,c),
(1160,895,l),
(1105,287,l),
(1148,287,o),
(1215,295,o),
(1277,355,cs),
(1316,392,o),
(1347,451,o),
(1365,536,cs),
(1374,578,o),
(1378,629,o),
(1378,688,cs),
(1378,1034,o),
(1159,1198,o),
(827,1198,cs),
(466,1198,o),
(248,905,o),
(232,572,cs),
(213,230,o),
(428,3,o),
(817,3,cs),
(968,3,o),
(1073,36,o),
(1141,73,cs),
(1181,93,o),
(1214,116,o),
(1240,141,c),
(1280,107,o),
(1297,74,o),
(1309,62,c),
(1282,29,o),
(1246,-1,o),
(1199,-26,cs),
(1159,-47,o),
(1108,-71,o),
(1044,-87,cs),
(979,-104,o),
(900,-115,o),
(807,-115,cs),
(380,-115,o),
(78,140,o),
(94,572,cs),
(110,997,o),
(422,1317,o),
(821,1317,cs),
(1214,1317,o),
(1511,1098,o),
(1511,685,cs)
);
}
);
};
layerId = "C1664359-F853-4045-A63D-7A2F9FE31172";
shapes = (
{
closed = 1;
nodes = (
(1031,896,o),
(916,919,o),
(864,917,cs),
(678,909,o),
(525,735,o),
(517,557,cs),
(506,381,o),
(573,299,o),
(709,299,cs),
(800,299,o),
(868,334,o),
(918,399,cs),
(968,464,o),
(997,561,o),
(1012,681,cs),
(1035,896,l)
);
},
{
closed = 1;
nodes = (
(1511,541,o),
(1481,437,o),
(1435,362,cs),
(1412,325,o),
(1386,294,o),
(1357,271,cs),
(1265,196,o),
(1166,183,o),
(1109,183,cs),
(998,183,o),
(995,277,o),
(1011,365,cs),
(1017,401,l),
(1025,449,l),
(1016,450,l),
(1004,400,o),
(984,355,o),
(957,315,cs),
(906,245,o),
(828,180,o),
(691,180,cs),
(499,180,o),
(384,318,o),
(384,533,cs),
(384,661,o),
(441,790,o),
(542,889,cs),
(641,986,o),
(778,1042,o),
(929,1022,cs),
(1051,1007,o),
(1112,994,o),
(1114,994,c),
(1160,895,l),
(1105,287,l),
(1148,287,o),
(1215,295,o),
(1277,355,cs),
(1316,392,o),
(1347,451,o),
(1365,536,cs),
(1374,578,o),
(1378,629,o),
(1378,688,cs),
(1378,1034,o),
(1159,1198,o),
(827,1198,cs),
(466,1198,o),
(248,905,o),
(232,572,cs),
(213,230,o),
(428,3,o),
(817,3,cs),
(968,3,o),
(1073,36,o),
(1141,73,cs),
(1181,93,o),
(1214,116,o),
(1240,141,c),
(1280,107,o),
(1297,74,o),
(1309,62,c),
(1282,29,o),
(1246,-1,o),
(1199,-26,cs),
(1159,-47,o),
(1108,-71,o),
(1044,-87,cs),
(979,-104,o),
(900,-115,o),
(807,-115,cs),
(380,-115,o),
(78,140,o),
(94,572,cs),
(110,997,o),
(422,1317,o),
(821,1317,cs),
(1214,1317,o),
(1511,1098,o),
(1511,685,cs)
);
}
);
userData = {
org.robofab.postScriptHintData = {
};
};
vertWidth = 0;
width = 1603;
}
);
unicode = 64;
},
{
glyphname = ampersand;
lastChange = "2023-07-27 15:31:07 +0000";
layers = (
{
layerId = "C1664359-F853-4045-A63D-7A2F9FE31172";
shapes = (
{
closed = 1;
nodes = (
(845,-24,o),
(1008,37,o),
(1112,164,c),
(1318,-20,l),
(1418,85,l),
(1193,287,l),
(1269,446,o),
(1295,658,o),
(1295,923,c),
(1149,912,l),
(1145,803,o),
(1140,706,o),
(1131,618,cs),
(1122,529,o),
(1107,435,o),
(1080,371,c),
(643,770,l),
(830,871,o),
(955,990,o),
(955,1176,cs),
(955,1263,o),
(930,1326,o),
(872,1379,cs),
(814,1432,o),
(722,1464,o),
(590,1464,cs),
(458,1464,o),
(362,1435,o),
(298,1380,cs),
(234,1325,o),
(203,1259,o),
(203,1163,cs),
(203,1084,o),
(227,1018,o),
(265,958,cs),
(303,898,o),
(363,843,o),
(422,790,c),
(322,741,o),
(233,672,o),
(178,599,cs),
(123,526,o),
(94,440,o),
(94,353,cs),
(94,254,o),
(125,158,o),
(204,89,cs),
(283,20,o),
(409,-24,o),
(600,-24,cs)
);
},
{
closed = 1;
nodes = (
(470,123,o),
(386,153,o),
(336,198,cs),
(286,243,o),
(269,305,o),
(269,374,cs),
(269,515,o),
(349,617,o),
(514,708,c),
(1003,259,l),
(927,172,o),
(804,123,o),
(603,123,cs)
);
},
{
closed = 1;
nodes = (
(507,892,o),
(461,944,o),
(426,993,cs),
(390,1042,o),
(367,1097,o),
(367,1149,cs),
(367,1268,o),
(428,1338,o),
(580,1338,cs),
(748,1338,o),
(803,1276,o),
(803,1153,cs),
(803,1013,o),
(675,927,o),
(551,853,c)
);
}
);
userData = {
org.robofab.postScriptHintData = {
};
};
vertWidth = 0;
width = 1464;
}
);
unicode = 38;
},
{
glyphname = paragraph;
lastChange = "2023-07-27 15:31:07 +0000";
layers = (
{
layerId = "C1664359-F853-4045-A63D-7A2F9FE31172";
shapes = (
{
closed = 1;
nodes = (
(608,-3,l),
(608,1298,l),
(733,1298,l),
(733,-3,l),
(901,-3,l),
(901,1298,l),
(1126,1298,l),
(1101,1437,l),
(603,1437,ls),
(434,1437,o),
(301,1432,o),
(210,1393,cs),
(118,1354,o),
(68,1281,o),
(67,1148,cs),
(67,934,o),
(209,870,o),
(440,878,c),
(440,-3,l)
);
}
);
userData = {
org.robofab.postScriptHintData = {
};
};
vertWidth = 0;
width = 1182;
}
);
unicode = 182;
},
{
glyphname = section;
lastChange = "2023-07-27 15:31:07 +0000";
layers = (
{
layerId = "C1664359-F853-4045-A63D-7A2F9FE31172";
shapes = (
{
closed = 1;
nodes = (
(787,-47,o),
(893,73,o),
(893,227,cs),
(896,325,o),
(832,393,o),
(781,430,c),
(801,443,o),
(878,521,o),
(878,617,cs),
(878,769,o),
(753,816,o),
(567,889,cs),
(406,953,o),
(286,977,o),
(286,1094,cs),
(286,1204,o),
(370,1220,o),
(486,1223,cs),
(653,1223,o),
(751,1184,o),
(796,1163,c),
(796,1251,o),
(774,1297,o),
(774,1302,c),
(751,1313,o),
(724,1322,o),
(695,1331,cs),
(644,1346,o),
(574,1360,o),
(487,1360,cs),
(315,1360,o),
(126,1311,o),
(123,1091,cs),
(120,985,o),
(185,924,o),
(231,892,c),
(182,854,o),
(130,797,o),
(130,717,cs),
(130,662,o),
(144,618,o),
(186,576,cs),
(228,534,o),
(295,494,o),
(406,449,cs),
(546,391,o),
(724,359,o),
(721,232,cs),
(718,125,o),
(638,90,o),
(499,90,cs),
(407,90,o),
(323,107,o),
(262,124,cs),
(225,134,o),
(192,146,o),
(162,159,c),
(184,19,l),
(211,6,o),
(240,-5,o),
(273,-14,cs),
(329,-31,o),
(408,-47,o),
(504,-47,cs)
);
},
{
closed = 1;
nodes = (
(629,509,o),
(515,552,o),
(455,576,cs),
(368,612,o),
(316,638,o),
(288,663,cs),
(259,688,o),
(251,714,o),
(254,751,cs),
(257,789,o),
(289,831,o),
(312,846,c),
(377,818,o),
(459,786,o),
(521,763,cs),
(602,731,o),
(660,710,o),
(697,688,cs),
(734,666,o),
(751,642,o),
(751,603,cs),
(751,560,o),
(738,529,o),
(725,508,cs),
(718,496,o),
(709,485,o),
(699,476,c)
);
}
);
userData = {
org.robofab.postScriptHintData = {
};
};
vertWidth = 0;
width = 1003;
}
);
unicode = 167;
},
{
glyphname = copyright;
lastChange = "2023-07-27 15:31:04 +0000";
layers = (
{
layerId = "C1664359-F853-4045-A63D-7A2F9FE31172";
shapes = (
{
closed = 1;
nodes = (
(978,-17,o),
(1156,46,o),
(1299,179,cs),
(1435,306,o),
(1520,489,o),
(1520,708,cs),
(1520,897,o),
(1448,1075,o),
(1324,1212,cs),
(1198,1349,o),
(1016,1435,o),
(806,1435,cs),
(616,1435,o),
(435,1360,o),
(302,1226,cs),
(171,1093,o),
(92,913,o),
(92,708,cs),
(92,497,o),
(172,319,o),
(300,190,cs),
(430,57,o),
(612,-17,o),
(806,-17,cs)
);
},
{
closed = 1;
nodes = (
(463,89,o),
(212,354,o),
(212,708,cs),
(212,1051,o),
(463,1329,o),
(808,1329,cs),
(989,1329,o),
(1140,1254,o),
(1244,1135,cs),
(1345,1019,o),
(1402,865,o),
(1402,708,cs),
(1402,333,o),
(1126,89,o),
(808,89,cs)
);
},
{
closed = 1;
nodes = (
(927,248,o),
(1017,298,o),
(1047,313,c),
(1053,417,l),
(1038,402,o),
(928,355,o),
(823,355,cs),
(612,355,o),
(546,504,o),
(546,708,cs),
(546,903,o),
(616,1060,o),
(823,1060,cs),
(887,1060,o),
(943,1048,o),
(986,1036,cs),
(1010,1029,o),
(1032,1021,o),
(1053,1013,c),
(1047,1110,l),
(1028,1123,o),
(913,1167,o),
(816,1167,cs),
(553,1167,o),
(421,971,o),
(421,708,cs),
(421,476,o),
(526,248,o),
(816,248,cs)
);
}
);
userData = {
org.robofab.postScriptHintData = {
};
};
vertWidth = 0;
width = 1612;
}
);
unicode = 169;
},
{
glyphname = registered;
lastChange = "2023-07-27 15:31:04 +0000";
layers = (
{
layerId = "C1664359-F853-4045-A63D-7A2F9FE31172";
shapes = (
{
closed = 1;
nodes = (
(888,482,o),
(1108,703,o),
(1108,981,cs),
(1108,1262,o),
(886,1481,o),
(610,1481,cs),
(333,1481,o),
(110,1260,o),
(110,981,cs),
(110,703,o),
(332,482,o),
(610,482,cs)
);
},
{
closed = 1;
nodes = (
(379,565,o),
(197,743,o),
(197,980,cs),
(197,1216,o),
(380,1397,o),
(610,1397,cs),
(840,1397,o),
(1023,1216,o),
(1023,980,cs),
(1023,743,o),
(840,565,o),
(610,565,cs)
);
},
{
closed = 1;
nodes = (
(537,720,l),
(537,947,l),
(577,947,l),
(715,720,l),
(811,720,l),
(735,838,ls),
(716,867,o),
(698,896,o),
(683,919,cs),
(675,932,o),
(667,944,o),
(659,955,c),
(765,974,o),
(801,1014,o),
(801,1106,cs),
(801,1155,o),
(790,1194,o),
(755,1219,cs),
(720,1244,o),
(662,1257,o),
(569,1257,cs),
(449,1257,l),
(449,720,l)
);
},
{
closed = 1;
nodes = (
(539,1185,l),
(567,1185,ls),
(692,1185,o),
(714,1168,o),
(714,1106,cs),
(714,1041,o),
(687,1019,o),
(589,1019,cs),
(539,1019,l)
);
}
);
userData = {
org.robofab.postScriptHintData = {
};
};
vertWidth = 0;
width = 1218;
}
);
unicode = 174;
},
{
glyphname = trademark;
lastChange = "2023-07-27 15:31:07 +0000";
layers = (
{
layerId = "C1664359-F853-4045-A63D-7A2F9FE31172";
shapes = (
{
closed = 1;
nodes = (
(626,897,l),
(626,1172,l),
(614,1363,l),
(647,1208,o),
(684,1057,o),
(728,905,c),
(824,905,l),
(851,1001,o),
(875,1091,o),
(900,1186,c),
(940,1368,l),
(928,1172,l),
(928,897,l),
(1017,897,l),
(1017,1405,l),
(877,1405,l),
(826,1223,l),
(820,1203,ls),
(818,1196,o),
(816,1190,o),
(814,1184,c),
(777,986,l),
(739,1159,ls),
(730,1201,o),
(720,1242,o),
(709,1283,cs),
(698,1323,o),
(687,1364,o),
(677,1405,c),
(537,1405,l),
(537,897,l)
);
},
{
closed = 1;
nodes = (
(345,897,l),
(345,1330,l),
(478,1330,l),
(478,1405,l),
(116,1405,l),
(116,1330,l),
(248,1330,l),
(248,897,l)
);
}
);
userData = {
org.robofab.postScriptHintData = {
};
};
vertWidth = 0;
width = 1169;
}
);
unicode = 8482;
},
{
glyphname = degree;
layers = (
{
layerId = "C1664359-F853-4045-A63D-7A2F9FE31172";
shapes = (
{
closed = 1;
nodes = (
(456,1053,o),
(412,1103,o),
(337,1103,cs),
(265,1103,o),
(218,1054,o),
(218,985,cs),
(218,917,o),
(261,869,o),
(337,869,cs),
(409,869,o),
(456,916,o),
(456,985,cs)
);
},
{
closed = 1;
nodes = (
(570,856,o),
(475,755,o),
(337,755,cs),
(208,755,o),
(106,848,o),
(106,985,cs),
(106,1115,o),
(200,1213,o),
(337,1213,cs),
(471,1213,o),
(570,1116,o),
(570,985,cs)
);
}
);
userData = {
org.robofab.postScriptHintData = {
};
};
vertWidth = 0;
width = 675;
}
);
unicode = 176;
},
{
glyphname = bar;
lastChange = "2023-07-27 15:31:07 +0000";
layers = (
{
layerId = "C1664359-F853-4045-A63D-7A2F9FE31172";
shapes = (
{
closed = 1;
nodes = (
(361,-131,l),
(361,1473,l),
(173,1473,l),
(173,-131,l)
);
}
);
userData = {
org.robofab.postScriptHintData = {
};
};
vertWidth = 0;
width = 533;
}
);
unicode = 124;
},
{
glyphname = brokenbar;
lastChange = "2023-07-27 15:31:07 +0000";
layers = (
{
layerId = "C1664359-F853-4045-A63D-7A2F9FE31172";
shapes = (
{
closed = 1;
nodes = (
(357,-138,l),
(357,576,l),
(177,576,l),
(177,-138,l)
);
},
{
closed = 1;
nodes = (
(357,815,l),
(357,1473,l),
(177,1473,l),
(177,815,l)
);
}
);
userData = {
org.robofab.postScriptHintData = {
};
};
vertWidth = 0;
width = 534;
}
);
unicode = 166;
},
{
glyphname = dagger;
lastChange = "2023-07-27 15:31:07 +0000";
layers = (
{
layerId = "C1664359-F853-4045-A63D-7A2F9FE31172";
shapes = (
{
closed = 1;
nodes = (
(507,0,l),
(507,883,l),
(790,883,l),
(790,1008,l),
(507,1008,l),
(507,1334,l),
(346,1334,l),
(346,1008,l),
(63,1008,l),
(63,883,l),
(346,883,l),
(346,0,l)
);
}
);
userData = {
org.robofab.postScriptHintData = {
};
};
vertWidth = 0;
width = 853;
}
);
unicode = 8224;
},
{
glyphname = daggerdbl;
lastChange = "2023-07-27 15:31:07 +0000";
layers = (
{
layerId = "C1664359-F853-4045-A63D-7A2F9FE31172";
shapes = (
{
closed = 1;
nodes = (
(497,129,l),
(497,410,l),
(714,410,l),
(714,522,l),
(497,522,l),
(497,867,l),
(714,867,l),
(714,979,l),
(497,979,l),
(497,1252,l),
(332,1252,l),
(332,979,l),
(117,979,l),
(117,867,l),
(332,867,l),
(332,522,l),
(117,522,l),
(117,410,l),
(332,410,l),
(332,129,l)
);
}
);
userData = {
org.robofab.postScriptHintData = {
};
};
vertWidth = 0;
width = 831;
}
);
unicode = 8225;
},
{
glyphname = cent;
lastChange = "2023-07-27 15:31:07 +0000";
layers = (
{
layerId = "C1664359-F853-4045-A63D-7A2F9FE31172";
shapes = (
{
closed = 1;
nodes = (
(690,-28,o),
(800,19,o),
(834,42,c),
(860,179,l),
(860,179,o),
(819,159,o),
(773,144,cs),
(719,127,o),
(646,109,o),
(567,109,cs),
(387,109,o),
(286,217,o),
(286,507,cs),
(286,651,o),
(313,748,o),
(361,808,cs),
(409,868,o),
(476,892,o),
(556,893,cs),
(669,894,o),
(734,853,o),
(733,750,c),
(885,744,l),
(898,934,o),
(745,1035,o),
(555,1035,cs),
(444,1036,o),
(331,1003,o),
(244,920,cs),
(156,837,o),
(97,704,o),
(97,504,cs),
(97,437,o),
(103,377,o),
(116,325,cs),
(140,220,o),
(183,141,o),
(242,87,cs),
(335,1,o),
(444,-28,o),
(551,-28,cs)
);
},
{
closed = 1;
nodes = (
(562,-129,l),
(588,1161,l),
(528,1161,l),
(500,-129,l)
);
}
);
userData = {
org.robofab.postScriptHintData = {
};
};
vertWidth = 0;
width = 981;
}
);
unicode = 162;
},
{
glyphname = currency;
lastChange = "2023-07-27 15:31:07 +0000";
layers = (
{
layerId = "C1664359-F853-4045-A63D-7A2F9FE31172";
shapes = (
{
closed = 1;
nodes = (
(331,612,l),
(396,565,o),
(480,536,o),
(591,536,cs),
(702,536,o),
(786,565,o),
(850,613,c),
(973,490,l),
(1040,560,l),
(919,682,l),
(979,755,o),
(1005,848,o),
(1005,945,cs),
(1005,1044,o),
(977,1138,o),
(916,1213,c),
(1040,1337,l),
(970,1409,l),
(844,1281,l),
(780,1326,o),
(699,1354,o),
(591,1354,cs),
(483,1354,o),
(402,1327,o),
(338,1283,c),
(215,1409,l),
(145,1337,l),
(265,1215,l),
(202,1140,o),
(175,1045,o),
(175,945,cs),
(175,848,o),
(202,754,o),
(262,679,c),
(145,560,l),
(211,490,l)
);
},
{
closed = 1;
nodes = (
(404,677,o),
(332,805,o),
(332,945,cs),
(332,1083,o),
(404,1211,o),
(591,1211,cs),
(777,1211,o),
(849,1083,o),
(849,945,cs),
(849,806,o),
(776,677,o),
(591,677,cs)
);
}
);
userData = {
org.robofab.postScriptHintData = {
};
};
vertWidth = 0;
width = 1184;
}
);
unicode = 164;
},
{
glyphname = dollar;
lastChange = "2023-07-27 15:31:07 +0000";
layers = (
{
layerId = "C1664359-F853-4045-A63D-7A2F9FE31172";
shapes = (
{
closed = 1;
nodes = (
(586,-201,l),
(580,35,l),
(829,61,o),
(930,198,o),
(930,398,cs),
(930,658,o),
(803,710,o),
(563,787,c),
(552,1213,l),
(640,1209,o),
(718,1196,o),
(777,1181,cs),
(811,1173,o),
(842,1164,o),
(871,1154,c),
(851,1305,l),
(825,1313,o),
(796,1321,o),
(764,1328,cs),
(709,1340,o),
(634,1353,o),
(549,1356,c),
(544,1593,l),
(437,1593,l),
(442,1353,l),
(238,1332,o),
(93,1222,o),
(93,1022,cs),
(93,825,o),
(195,739,o),
(409,667,cs),
(425,662,o),
(441,656,o),
(458,651,c),
(470,174,l),
(466,174,o),
(461,174,o),
(454,175,c),
(438,175,ls),
(347,179,o),
(267,198,o),
(207,217,cs),
(172,228,o),
(139,241,o),
(110,254,c),
(135,104,l),
(158,93,o),
(185,82,o),
(216,72,cs),
(268,55,o),
(344,37,o),
(436,33,cs),
(454,33,ls),
(462,32,o),
(468,32,o),
(473,32,c),
(478,-201,l)
);
},
{
closed = 1;
nodes = (
(566,613,l),
(710,562,o),
(754,510,o),
(754,381,cs),
(754,258,o),
(685,203,o),
(577,184,c)
);
},
{
closed = 1;
nodes = (
(308,871,o),
(257,918,o),
(257,1016,cs),
(257,1132,o),
(338,1190,o),
(446,1206,c),
(454,822,l)
);
}
);
userData = {
org.robofab.postScriptHintData = {
};
};
vertWidth = 0;
width = 1014;
}
);
unicode = 36;
},
{
glyphname = euro;
lastChange = "2023-07-27 15:31:07 +0000";
layers = (
{
layerId = "C1664359-F853-4045-A63D-7A2F9FE31172";
shapes = (
{
closed = 1;
nodes = (
(883,-28,o),
(982,-12,o),
(1053,5,cs),
(1094,15,o),
(1131,26,o),
(1164,39,c),
(1180,191,l),
(1145,178,o),
(1107,166,o),
(1066,156,cs),
(994,137,o),
(897,121,o),
(788,121,cs),
(679,121,o),
(592,149,o),
(529,213,cs),
(465,277,o),
(423,377,o),
(406,521,c),
(701,521,l),
(701,649,l),
(392,649,l),
(391,660,o),
(391,672,o),
(391,683,cs),
(391,718,l),
(391,762,l),
(699,762,l),
(699,890,l),
(403,890,l),
(422,1037,o),
(469,1135,o),
(538,1199,cs),
(606,1262,o),
(698,1288,o),
(807,1288,cs),
(910,1288,o),
(1002,1272,o),
(1070,1257,cs),
(1110,1248,o),
(1147,1237,o),
(1180,1226,c),
(1165,1377,l),
(1133,1388,o),
(1097,1397,o),
(1057,1406,cs),
(989,1421,o),
(894,1436,o),
(786,1436,cs),
(635,1436,o),
(504,1401,o),
(402,1315,cs),
(300,1229,o),
(229,1091,o),
(204,890,c),
(80,890,l),
(80,762,l),
(193,762,l),
(192,758,o),
(192,750,o),
(192,739,cs),
(192,716,ls),
(192,693,o),
(193,672,o),
(194,649,c),
(81,649,l),
(81,521,l),
(207,521,l),
(234,309,o),
(303,172,o),
(401,88,cs),
(499,3,o),
(626,-28,o),
(766,-28,cs)
);
}
);
userData = {
org.robofab.postScriptHintData = {
};
};
vertWidth = 0;
width = 1279;
}
);
unicode = 8364;
},
{
glyphname = sterling;
lastChange = "2023-07-27 15:31:07 +0000";
layers = (
{
layerId = "C1664359-F853-4045-A63D-7A2F9FE31172";
shapes = (
{
closed = 1;
nodes = (
(874,-3,l),
(885,141,l),
(347,141,l),
(368,155,o),
(386,184,o),
(403,229,cs),
(416,266,o),
(431,320,o),
(442,396,cs),
(453,472,o),
(460,570,o),
(460,697,c),
(821,697,l),
(821,814,l),
(460,814,l),
(460,1133,o),
(439,1304,o),
(654,1304,cs),
(710,1303,o),
(764,1292,o),
(803,1280,cs),
(826,1273,o),
(847,1265,o),
(868,1257,c),
(868,1396,l),
(847,1407,o),
(824,1416,o),
(798,1424,cs),
(754,1439,o),
(694,1452,o),
(623,1453,cs),
(381,1456,o),
(274,1301,o),
(274,1059,cs),
(274,814,l),
(108,814,l),
(108,697,l),
(274,697,l),
(274,455,o),
(250,318,o),
(229,238,cs),
(216,191,o),
(202,159,o),
(185,140,c),
(89,140,l),
(89,-3,l)
);
}
);
userData = {
org.robofab.postScriptHintData = {
};
};
vertWidth = 0;
width = 994;
}
);
unicode = 163;
},
{
glyphname = yen;
lastChange = "2023-07-27 15:31:07 +0000";
layers = (
{
layerId = "C1664359-F853-4045-A63D-7A2F9FE31172";
shapes = (
{
closed = 1;
nodes = (
(618,-3,l),
(618,254,l),
(902,254,l),
(902,339,l),
(623,339,l),
(623,411,o),
(626,451,o),
(628,460,c),
(899,460,l),
(899,550,l),
(649,550,l),
(658,569,o),
(716,710,o),
(825,975,cs),
(866,1075,o),
(908,1176,o),
(941,1254,cs),
(976,1339,o),
(996,1388,o),
(1001,1398,c),
(809,1398,l),
(804,1386,o),
(771,1299,o),
(708,1136,cs),
(665,1025,o),
(613,887,o),
(613,879,c),
(611,873,o),
(597,826,o),
(571,743,cs),
(528,609,l),
(525,626,o),
(514,658,o),
(488,745,cs),
(462,829,o),
(450,863,o),
(447,879,c),
(246,1398,l),
(55,1398,l),
(64,1380,o),
(122,1238,o),
(230,975,cs),
(339,710,o),
(397,569,o),
(406,550,c),
(170,550,l),
(170,460,l),
(427,460,l),
(433,339,l),
(170,339,l),
(170,254,l),
(437,254,l),
(437,-3,l)
);
}
);
userData = {
org.robofab.postScriptHintData = {
};
};
vertWidth = 0;
width = 1061;
}
);
unicode = 165;
},
{
glyphname = plus;
lastChange = "2023-07-27 15:31:07 +0000";
layers = (
{
layerId = "C1664359-F853-4045-A63D-7A2F9FE31172";
shapes = (
{
closed = 1;
nodes = (
(569,153,l),
(569,455,l),
(833,455,l),
(833,591,l),
(569,591,l),
(569,895,l),
(431,895,l),
(431,591,l),
(167,591,l),
(167,455,l),
(431,455,l),
(431,153,l)
);
}
);
userData = {
org.robofab.postScriptHintData = {
};
};
vertWidth = 0;
width = 1000;
}
);
unicode = 43;
},
{
glyphname = minus;
lastChange = "2023-07-27 15:31:07 +0000";
layers = (
{
layerId = "C1664359-F853-4045-A63D-7A2F9FE31172";
shapes = (
{
closed = 1;
nodes = (
(833,455,l),
(833,591,l),
(167,591,l),
(167,455,l)
);
}
);
userData = {
org.robofab.postScriptHintData = {
};
};
vertWidth = 0;
width = 1000;
}
);
unicode = 8722;
},
{
glyphname = multiply;
lastChange = "2023-07-27 15:31:07 +0000";
layers = (
{
layerId = "C1664359-F853-4045-A63D-7A2F9FE31172";
shapes = (
{
closed = 1;
nodes = (
(500,427,l),
(701,226,l),
(799,323,l),
(597,524,l),
(799,725,l),
(701,823,l),
(500,622,l),
(299,823,l),
(202,725,l),
(402,524,l),
(202,323,l),
(299,226,l)
);
}
);
userData = {
org.robofab.postScriptHintData = {
};
};
vertWidth = 0;
width = 1000;
}
);
unicode = 215;
},
{
glyphname = divide;
lastChange = "2023-07-27 15:31:07 +0000";
layers = (
{
layerId = "C1664359-F853-4045-A63D-7A2F9FE31172";
shapes = (
{
closed = 1;
nodes = (
(885,521,l),
(885,641,l),
(116,641,l),
(116,521,l)
);
},
{
closed = 1;
nodes = (
(591,243,l),
(591,421,l),
(416,421,l),
(416,243,l)
);
},
{
closed = 1;
nodes = (
(591,731,l),
(591,908,l),
(416,908,l),
(416,731,l)
);
}
);
userData = {
org.robofab.postScriptHintData = {
};
};
vertWidth = 0;
width = 1000;
}
);
unicode = 247;
},
{
glyphname = equal;
lastChange = "2023-07-27 15:31:07 +0000";
layers = (
{
layerId = "C1664359-F853-4045-A63D-7A2F9FE31172";
shapes = (
{
closed = 1;
nodes = (
(810,548,l),
(810,663,l),
(190,663,l),
(190,548,l)
);
},
{
closed = 1;
nodes = (
(810,336,l),
(810,449,l),
(191,449,l),
(191,336,l)
);
}
);
userData = {
org.robofab.postScriptHintData = {
};
};
vertWidth = 0;
width = 1000;
}
);
unicode = 61;
},
{
glyphname = notequal;
lastChange = "2023-07-27 15:31:07 +0000";
layers = (
{
layerId = "C1664359-F853-4045-A63D-7A2F9FE31172";
shapes = (
{
closed = 1;
nodes = (
(511,334,l),
(834,334,l),
(834,449,l),
(549,449,l),
(589,548,l),
(832,548,l),
(832,663,l),
(626,663,l),
(676,788,l),
(551,830,l),
(488,663,l),
(167,663,l),
(167,548,l),
(450,548,l),
(411,449,l),
(169,449,l),
(169,336,l),
(373,336,l),
(331,229,l),
(453,181,l)
);
}
);
userData = {
org.robofab.postScriptHintData = {
};
};
vertWidth = 0;
width = 1000;
}
);
unicode = 8800;
},
{
glyphname = greater;
lastChange = "2023-07-27 15:31:07 +0000";
layers = (
{
layerId = "C1664359-F853-4045-A63D-7A2F9FE31172";
shapes = (
{
closed = 1;
nodes = (
(889,506,l),
(889,623,l),
(161,987,l),
(112,823,l),
(682,561,l),
(112,301,l),
(161,138,l)
);
}
);
userData = {
org.robofab.postScriptHintData = {
};
};
vertWidth = 0;
width = 1000;
}
);
unicode = 62;
},
{
glyphname = less;
lastChange = "2023-07-27 15:31:07 +0000";
layers = (
{
layerId = "C1664359-F853-4045-A63D-7A2F9FE31172";
shapes = (
{
closed = 1;
nodes = (
(889,301,l),
(317,561,l),
(889,823,l),
(840,987,l),
(111,623,l),
(111,506,l),
(840,138,l)
);
}
);
userData = {
org.robofab.postScriptHintData = {
};
};
vertWidth = 0;
width = 1000;
}
);
unicode = 60;
},
{
glyphname = greaterequal;
lastChange = "2023-07-27 15:31:07 +0000";
layers = (
{
layerId = "C1664359-F853-4045-A63D-7A2F9FE31172";
shapes = (
{
closed = 1;
nodes = (
(855,600,l),
(855,692,l),
(845,696,o),
(804,715,o),
(732,747,cs),
(666,775,o),
(581,813,o),
(497,850,cs),
(141,1008,l),
(141,840,l),
(206,814,o),
(267,790,o),
(391,742,cs),
(499,699,o),
(618,652,o),
(639,643,c),
(620,636,o),
(537,603,o),
(391,545,cs),
(244,487,o),
(161,455,o),
(141,446,c),
(141,280,l)
);
},
{
closed = 1;
nodes = (
(863,-6,l),
(863,121,l),
(138,121,l),
(138,-6,l)
);
}
);
userData = {
org.robofab.postScriptHintData = {
};
};
vertWidth = 0;
width = 1000;
}
);
unicode = 8805;
},
{
glyphname = lessequal;
lastChange = "2023-07-27 15:31:07 +0000";
layers = (
{
layerId = "C1664359-F853-4045-A63D-7A2F9FE31172";
shapes = (
{
closed = 1;
nodes = (
(860,446,l),
(854,448,o),
(762,486,o),
(612,545,cs),
(465,603,o),
(382,636,o),
(363,643,c),
(384,652,o),
(503,699,o),
(612,742,cs),
(720,784,o),
(839,831,o),
(860,840,c),
(860,1008,l),
(841,1001,o),
(723,948,o),
(503,850,cs),
(419,813,o),
(334,775,o),
(269,747,cs),
(196,714,o),
(155,696,o),
(146,692,c),
(146,600,l),
(162,593,o),
(281,540,o),
(503,440,cs),
(723,340,o),
(842,287,o),
(860,280,c)
);
},
{
closed = 1;
nodes = (
(863,-6,l),
(863,121,l),
(138,121,l),
(138,-6,l)
);
}
);
userData = {
org.robofab.postScriptHintData = {
};
};
vertWidth = 0;
width = 1000;
}
);
unicode = 8804;
},
{
glyphname = plusminus;
lastChange = "2023-07-27 15:31:07 +0000";
layers = (
{
layerId = "C1664359-F853-4045-A63D-7A2F9FE31172";
shapes = (
{
closed = 1;
nodes = (
(574,232,l),
(574,532,l),
(892,532,l),
(892,654,l),
(574,654,l),
(574,954,l),
(429,954,l),
(429,654,l),
(108,654,l),
(108,532,l),
(429,532,l),
(429,232,l)
);
},
{
closed = 1;
nodes = (
(892,-6,l),
(892,121,l),
(108,121,l),
(108,-6,l)
);
}
);
userData = {
org.robofab.postScriptHintData = {
};
};
vertWidth = 0;
width = 1000;
}
);
unicode = 177;
},
{
glyphname = approxequal;
lastChange = "2023-07-27 15:31:07 +0000";
layers = (
{
layerId = "C1664359-F853-4045-A63D-7A2F9FE31172";
shapes = (
{
closed = 1;
nodes = (
(764,601,o),
(814,644,o),
(836,691,cs),
(848,718,o),
(854,748,o),
(854,782,c),
(743,782,l),
(743,760,o),
(742,707,o),
(673,707,cs),
(589,707,o),
(456,805,o),
(335,805,cs),
(237,805,o),
(192,757,o),
(170,715,cs),
(156,688,o),
(148,659,o),
(146,626,c),
(255,626,l),
(256,640,o),
(259,653,o),
(264,664,cs),
(273,683,o),
(291,703,o),
(330,703,cs),
(412,703,o),
(552,601,o),
(669,601,cs)
);
},
{
closed = 1;
nodes = (
(764,386,o),
(814,429,o),
(836,476,cs),
(848,503,o),
(854,533,o),
(854,566,c),
(743,566,l),
(743,538,o),
(740,491,o),
(673,491,cs),
(586,491,o),
(458,590,o),
(335,590,cs),
(237,590,o),
(192,542,o),
(170,500,cs),
(156,473,o),
(148,443,o),
(146,410,c),
(255,410,l),
(256,424,o),
(259,437,o),
(264,448,cs),
(273,467,o),
(291,487,o),
(330,487,cs),
(411,487,o),
(553,386,o),
(669,386,cs)
);
}
);
userData = {
org.robofab.postScriptHintData = {
};
};
vertWidth = 0;
width = 1000;
}
);
unicode = 8776;
},
{
glyphname = asciitilde;
lastChange = "2023-07-27 15:31:07 +0000";
layers = (
{
layerId = "C1664359-F853-4045-A63D-7A2F9FE31172";
shapes = (
{
closed = 1;
nodes = (
(737,494,o),
(815,556,o),
(812,705,c),
(681,705,l),
(680,670,o),
(675,637,o),
(655,622,cs),
(645,615,o),
(631,613,o),
(614,617,cs),
(560,626,o),
(458,716,o),
(363,721,cs),
(319,722,o),
(274,710,o),
(242,676,cs),
(209,642,o),
(187,585,o),
(188,498,c),
(320,498,l),
(320,550,o),
(332,595,o),
(373,595,cs),
(435,592,o),
(527,504,o),
(620,493,c),
(635,490,o),
(648,490,o),
(661,491,cs)
);
}
);
userData = {
org.robofab.postScriptHintData = {
};
};
vertWidth = 0;
width = 1000;
}
);
unicode = 126;
},
{
glyphname = logicalnot;
lastChange = "2023-07-27 15:31:07 +0000";
layers = (
{
layerId = "C1664359-F853-4045-A63D-7A2F9FE31172";
shapes = (
{
closed = 1;
nodes = (
(921,319,l),
(921,836,l),
(50,836,l),
(50,682,l),
(751,682,l),
(751,319,l)
);
}
);
userData = {
org.robofab.postScriptHintData = {
};
};
vertWidth = 0;
width = 1000;
}
);
unicode = 172;
},
{
glyphname = asciicircum;
lastChange = "2023-07-27 15:31:07 +0000";
layers = (
{
layerId = "C1664359-F853-4045-A63D-7A2F9FE31172";
shapes = (
{
closed = 1;
nodes = (
(228,279,l),
(239,307,o),
(270,397,o),
(336,579,cs),
(444,880,l),
(449,865,o),
(488,757,o),
(553,579,cs),
(612,415,o),
(651,304,o),
(662,279,c),
(836,279,l),
(522,1013,l),
(367,1013,l),
(356,992,o),
(277,805,o),
(210,647,cs),
(142,487,o),
(59,294,o),
(52,279,c)
);
}
);
userData = {
org.robofab.postScriptHintData = {
};
};
vertWidth = 0;
width = 889;
}
);
unicode = 94;
},
{
glyphname = infinity;
lastChange = "2023-07-27 15:31:04 +0000";
layers = (
{
layerId = "C1664359-F853-4045-A63D-7A2F9FE31172";
shapes = (
{
closed = 1;
nodes = (
(725,213,o),
(840,348,o),
(991,538,c),
(1143,348,o),
(1233,215,o),
(1453,215,cs),
(1677,215,o),
(1842,382,o),
(1842,645,cs),
(1842,890,o),
(1691,1072,o),
(1450,1072,cs),
(1233,1072,o),
(1138,936,o),
(987,745,c),
(835,929,o),
(738,1070,o),
(516,1070,cs),
(286,1070,o),
(129,890,o),
(129,644,cs),
(129,376,o),
(287,213,o),
(520,213,cs)
);
},
{
closed = 1;
nodes = (
(373,332,o),
(266,434,o),
(266,644,cs),
(266,849,o),
(375,949,o),
(526,949,cs),
(607,949,o),
(689,892,o),
(759,822,cs),
(841,739,o),
(870,690,o),
(911,643,c),
(876,600,o),
(832,528,o),
(762,454,cs),
(698,386,o),
(616,332,o),
(523,332,cs)
);
},
{
closed = 1;
nodes = (
(1360,339,o),
(1283,389,o),
(1217,457,cs),
(1142,533,o),
(1111,584,o),
(1064,641,c),
(1112,700,o),
(1135,744,o),
(1213,827,cs),
(1275,894,o),
(1356,948,o),
(1440,948,cs),
(1581,948,o),
(1703,849,o),
(1703,645,cs),
(1703,439,o),
(1591,339,o),
(1440,339,cs)
);
}
);
userData = {
org.robofab.postScriptHintData = {
};
};
vertWidth = 0;
width = 1972;
}
);
unicode = 8734;
},
{
glyphname = integral;
lastChange = "2023-07-27 15:32:51 +0000";
layers = (
{
layerId = "C1664359-F853-4045-A63D-7A2F9FE31172";
shapes = (
{
closed = 1;
nodes = (
(465,-379,o),
(526,-171,o),
(526,111,cs),
(526,886,l),
(799,886,l),
(799,991,l),
(525,991,l),
(525,1092,ls),
(525,1281,o),
(565,1322,o),
(686,1322,cs),
(725,1322,o),
(764,1316,o),
(793,1309,cs),
(810,1305,o),
(827,1301,o),
(842,1296,c),
(826,1419,l),
(816,1425,o),
(804,1430,o),
(791,1435,cs),
(768,1443,o),
(735,1451,o),
(696,1454,cs),
(552,1467,o),
(467,1428,o),
(416,1347,cs),
(364,1266,o),
(349,1144,o),
(345,991,c),
(168,991,l),
(168,886,l),
(345,886,l),
(345,9,ls),
(345,-178,o),
(310,-220,o),
(185,-220,cs),
(146,-220,o),
(106,-215,o),
(77,-208,cs),
(60,-205,o),
(43,-200,o),
(28,-195,c),
(45,-317,l),
(55,-322,o),
(67,-327,o),
(80,-332,cs),
(103,-340,o),
(135,-349,o),
(175,-352,cs)
);
}
);
userData = {
org.robofab.postScriptHintData = {
};
};
vertWidth = 0;
width = 882;
}
);
unicode = 8747;
},
{
glyphname = increment;
layers = (
{
layerId = "C1664359-F853-4045-A63D-7A2F9FE31172";
shapes = (
{
closed = 1;
nodes = (
(547,973,l),
(259,99,l),
(829,99,l)
);
},
{
closed = 1;
nodes = (
(460,1130,l),
(632,1130,l),
(1037,-2,l),
(52,-2,l)
);
}
);
userData = {
org.robofab.postScriptHintData = {
};
};
vertWidth = 0;
width = 1090;
}
);
unicode = 8710;
},
{
glyphname = product;
lastChange = "2023-07-27 15:31:07 +0000";
layers = (
{
layerId = "C1664359-F853-4045-A63D-7A2F9FE31172";
shapes = (
{
closed = 1;
nodes = (
(377,0,l),
(377,848,l),
(367,1286,l),
(1056,1286,l),
(1045,874,l),
(1045,0,l),
(1233,0,l),
(1233,1409,l),
(190,1409,l),
(190,0,l)
);
}
);
userData = {
org.robofab.postScriptHintData = {
};
};
vertWidth = 0;
width = 1422;
}
);
unicode = 8719;
},
{
glyphname = summation;
lastChange = "2023-07-27 15:32:56 +0000";
layers = (
{
layerId = "C1664359-F853-4045-A63D-7A2F9FE31172";
shapes = (
{
closed = 1;
nodes = (
(972,-3,l),
(972,160,l),
(491,160,l),
(319,151,l),
(449,338,l),
(683,707,l),
(455,1059,l),
(315,1253,l),
(496,1248,l),
(948,1248,l),
(948,1398,l),
(72,1398,l),
(497,707,l),
(59,-3,l)
);
}
);
userData = {
org.robofab.postScriptHintData = {
};
};
vertWidth = 0;
width = 1062;
}
);
unicode = 8721;
},
{
glyphname = radical;
lastChange = "2023-07-27 15:31:07 +0000";
layers = (
{
layerId = "C1664359-F853-4045-A63D-7A2F9FE31172";
shapes = (
{
closed = 1;
nodes = (
(649,-4,l),
(666,43,o),
(701,145,o),
(743,274,cs),
(783,400,o),
(831,547,o),
(887,716,cs),
(942,885,o),
(989,1032,o),
(1031,1158,cs),
(1074,1286,o),
(1108,1388,o),
(1125,1435,c),
(963,1485,l),
(939,1405,o),
(850,1121,o),
(758,831,cs),
(713,687,o),
(667,544,o),
(631,426,cs),
(553,176,l),
(549,197,o),
(535,242,o),
(515,313,cs),
(448,537,ls),
(405,673,o),
(352,846,o),
(339,895,c),
(30,895,l),
(30,812,l),
(180,812,l),
(458,-4,l)
);
}
);
userData = {
org.robofab.postScriptHintData = {
};
};
vertWidth = 0;
width = 1153;
}
);
unicode = 8730;
},
{
glyphname = micro;
lastChange = "2023-07-27 15:31:07 +0000";
layers = (
{
layerId = "C1664359-F853-4045-A63D-7A2F9FE31172";
shapes = (
{
closed = 1;
nodes = (
(326,-300,l),
(330,120,l),
(346,36,o),
(416,-28,o),
(534,-28,cs),
(642,-28,o),
(723,12,o),
(779,52,cs),
(811,75,o),
(839,102,o),
(862,132,c),
(887,-8,l),
(1020,3,l),
(1020,1019,l),
(835,1019,l),
(835,231,l),
(811,209,o),
(784,189,o),
(755,172,cs),
(704,141,o),
(635,113,o),
(551,113,cs),
(476,113,o),
(428,135,o),
(397,187,cs),
(366,239,o),
(354,319,o),
(354,435,cs),
(354,1019,l),
(171,1019,l),
(171,-300,l)
);
}
);
userData = {
org.robofab.postScriptHintData = {
};
};
vertWidth = 0;
width = 1161;
}
);
unicode = 181;
},
{
glyphname = partialdiff;
lastChange = "2023-07-27 15:31:07 +0000";
layers = (
{
layerId = "C1664359-F853-4045-A63D-7A2F9FE31172";
shapes = (
{
closed = 1;
nodes = (
(667,-29,o),
(783,12,o),
(860,131,cs),
(936,250,o),
(974,446,o),
(974,757,cs),
(974,950,o),
(956,1140,o),
(890,1295,cs),
(825,1445,o),
(709,1539,o),
(533,1539,cs),
(464,1539,o),
(407,1527,o),
(367,1515,cs),
(344,1508,o),
(323,1500,o),
(304,1492,c),
(304,1476,o),
(293,1395,o),
(293,1381,c),
(312,1388,o),
(332,1395,o),
(354,1402,cs),
(393,1413,o),
(444,1424,o),
(503,1424,cs),
(649,1424,o),
(722,1342,o),
(757,1244,cs),
(795,1134,o),
(799,1006,o),
(805,893,c),
(781,920,o),
(753,944,o),
(722,965,cs),
(669,1001,o),
(593,1038,o),
(497,1038,cs),
(362,1038,o),
(261,982,o),
(194,887,cs),
(126,792,o),
(92,660,o),
(92,505,cs),
(92,434,o),
(98,372,o),
(109,318,cs),
(131,210,o),
(171,131,o),
(224,79,cs),
(305,-2,o),
(407,-29,o),
(514,-29,cs)
);
},
{
closed = 1;
nodes = (
(437,109,o),
(371,141,o),
(328,210,cs),
(285,278,o),
(264,385,o),
(264,533,cs),
(264,719,o),
(338,899,o),
(522,896,cs),
(598,895,o),
(669,860,o),
(721,824,cs),
(752,803,o),
(780,779,o),
(806,753,c),
(806,488,o),
(785,318,o),
(735,225,cs),
(687,135,o),
(621,109,o),
(525,109,cs)
);
}
);
userData = {
org.robofab.postScriptHintData = {
};
};
vertWidth = 0;
width = 1105;
}
);
unicode = 8706;
},
{
glyphname = percent;
lastChange = "2023-07-27 15:31:04 +0000";
layers = (
{
layerId = "C1664359-F853-4045-A63D-7A2F9FE31172";
shapes = (
{
closed = 1;
nodes = (
(1196,1423,l),
(1083,1490,l),
(205,-12,l),
(314,-77,l)
);
},
{
closed = 1;
nodes = (
(1221,-18,o),
(1310,95,o),
(1310,321,cs),
(1310,549,o),
(1218,660,o),
(1042,660,cs),
(865,660,o),
(774,549,o),
(774,321,cs),
(774,93,o),
(866,-18,o),
(1042,-18,cs)
);
},
{
closed = 1;
nodes = (
(924,85,o),
(895,177,o),
(895,321,cs),
(895,465,o),
(924,557,o),
(1042,557,cs),
(1157,557,o),
(1187,465,o),
(1187,321,cs),
(1187,177,o),
(1157,85,o),
(1042,85,cs)
);
},
{
closed = 1;
nodes = (
(530,761,o),
(619,874,o),
(619,1099,cs),
(619,1327,o),
(527,1438,o),
(351,1438,cs),
(178,1438,o),
(83,1327,o),
(83,1099,cs),
(83,871,o),
(175,761,o),
(351,761,cs)
);
},
{
closed = 1;
nodes = (
(235,864,o),
(205,955,o),
(205,1099,cs),
(205,1244,o),
(235,1335,o),
(351,1335,cs),
(466,1335,o),
(496,1243,o),
(496,1099,cs),
(496,956,o),
(466,864,o),
(351,864,cs)
);
}
);
userData = {
org.robofab.postScriptHintData = {
};
};
vertWidth = 0;
width = 1394;
}
);
unicode = 37;
},
{
glyphname = perthousand;
lastChange = "2023-07-27 15:31:07 +0000";
layers = (
{
layerId = "C1664359-F853-4045-A63D-7A2F9FE31172";
shapes = (
{
closed = 1;
nodes = (
(1186,1414,l),
(1073,1481,l),
(196,-21,l),
(305,-87,l)
);
},
{
closed = 1;
nodes = (
(1102,-29,o),
(1169,-1,o),
(1216,56,cs),
(1263,112,o),
(1289,197,o),
(1289,310,cs),
(1289,535,o),
(1182,648,o),
(1022,648,cs),
(942,648,o),
(875,620,o),
(828,564,cs),
(781,508,o),
(754,423,o),
(754,310,cs),
(754,82,o),
(866,-29,o),
(1022,-29,cs)
);
},
{
closed = 1;
nodes = (
(916,74,o),
(876,166,o),
(876,310,cs),
(876,453,o),
(916,545,o),
(1022,545,cs),
(1128,545,o),
(1167,453,o),
(1167,310,cs),
(1167,163,o),
(1127,74,o),
(1022,74,cs)
);
},
{
closed = 1;
nodes = (
(515,760,o),
(621,873,o),
(621,1098,cs),
(621,1326,o),
(511,1437,o),
(352,1437,cs),
(275,1437,o),
(208,1409,o),
(160,1353,cs),
(112,1296,o),
(84,1211,o),
(84,1098,cs),
(84,985,o),
(111,900,o),
(159,844,cs),
(206,788,o),
(273,760,o),
(352,760,cs)
);
},
{
closed = 1;
nodes = (
(247,863,o),
(206,954,o),
(206,1098,cs),
(206,1243,o),
(247,1334,o),
(352,1334,cs),
(458,1334,o),
(498,1242,o),
(498,1098,cs),
(498,953,o),
(457,863,o),
(352,863,cs)
);
},
{
closed = 1;
nodes = (
(1852,-29,o),
(1958,82,o),
(1958,310,cs),
(1958,423,o),
(1931,508,o),
(1884,564,cs),
(1837,620,o),
(1770,648,o),
(1690,648,cs),
(1610,648,o),
(1544,620,o),
(1497,564,cs),
(1449,508,o),
(1423,423,o),
(1423,310,cs),
(1423,197,o),
(1451,112,o),
(1498,56,cs),
(1545,-1,o),
(1611,-29,o),
(1690,-29,cs)
);
},
{
closed = 1;
nodes = (
(1585,74,o),
(1544,165,o),
(1544,310,cs),
(1544,454,o),
(1585,545,o),
(1690,545,cs),
(1798,545,o),
(1835,452,o),
(1835,310,cs),
(1835,166,o),
(1798,74,o),
(1690,74,cs)
);
}
);
userData = {
org.robofab.postScriptHintData = {
};
};
vertWidth = 0;
width = 2025;
}
);
unicode = 8240;
},
{
glyphname = lozenge;
layers = (
{
layerId = "C1664359-F853-4045-A63D-7A2F9FE31172";
shapes = (
{
closed = 1;
nodes = (
(489,101,l),
(742,554,l),
(489,1001,l),
(235,554,l)
);
},
{
closed = 1;
nodes = (
(583,1119,l),
(922,554,l),
(587,-6,l),
(387,-6,l),
(56,554,l),
(391,1119,l)
);
}
);
userData = {
org.robofab.postScriptHintData = {
};
};
vertWidth = 0;
width = 978;
}
);
unicode = 9674;
},
{
glyphname = dieresiscomb;
lastChange = "2023-07-27 15:31:07 +0000";
layers = (
{
anchors = (
{
name = _top;
pos = (424,1031);
},
{
name = top;
pos = (424,1331);
}
);
layerId = "C1664359-F853-4045-A63D-7A2F9FE31172";
shapes = (
{
closed = 1;
nodes = (
(698,1214,l),
(698,1381,l),
(524,1381,l),
(524,1214,l)
);
},
{
closed = 1;
nodes = (
(322,1214,l),
(322,1381,l),
(149,1381,l),
(149,1214,l)
);
}
);
userData = {
org.robofab.postScriptHintData = {
};
};
vertWidth = 0;
width = 847;
}
);
unicode = 776;
},
{
glyphname = dotaccentcomb;
lastChange = "2023-07-27 15:31:07 +0000";
layers = (
{
anchors = (
{
name = _top;
pos = (214,1031);
},
{
name = top;
pos = (214,1356);
}
);
layerId = "C1664359-F853-4045-A63D-7A2F9FE31172";
shapes = (
{
closed = 1;
nodes = (
(276,1162,o),
(315,1206,o),
(315,1262,cs),
(315,1319,o),
(276,1368,o),
(216,1368,cs),
(155,1368,o),
(113,1319,o),
(113,1263,cs),
(113,1206,o),
(155,1162,o),
(217,1162,cs)
);
}
);
userData = {
org.robofab.postScriptHintData = {
};
};
vertWidth = 0;
width = 421;
}
);
unicode = 775;
},
{
glyphname = gravecomb;
lastChange = "2023-07-27 15:31:07 +0000";
layers = (
{
anchors = (
{
name = _top;
pos = (266,1031);
},
{
name = top;
pos = (156,1665);
}
);
layerId = "C1664359-F853-4045-A63D-7A2F9FE31172";
shapes = (
{
closed = 1;
nodes = (
(310,1172,l),
(230,1665,l),
(5,1665,l),
(238,1172,l)
);
}
);
userData = {
org.robofab.postScriptHintData = {
};
};
vertWidth = 0;
width = 378;
}
);
unicode = 768;
},
{
glyphname = acutecomb;
lastChange = "2023-07-27 15:31:07 +0000";
layers = (
{
anchors = (
{
name = _top;
pos = (121,1031);
},
{
name = top;
pos = (231,1665);
}
);
layerId = "C1664359-F853-4045-A63D-7A2F9FE31172";
shapes = (
{
closed = 1;
nodes = (
(147,1172,l),
(380,1665,l),
(155,1665,l),
(75,1172,l)
);
}
);
userData = {
org.robofab.postScriptHintData = {
};
};
vertWidth = 0;
width = 393;
}
);
unicode = 769;
},
{
glyphname = hungarumlautcomb;
lastChange = "2023-07-27 15:31:07 +0000";
layers = (
{
anchors = (
{
name = _top;
pos = (288,1031);
},
{
name = top;
pos = (389,1687);
}
);
layerId = "C1664359-F853-4045-A63D-7A2F9FE31172";
shapes = (
{
closed = 1;
nodes = (
(458,1183,l),
(660,1687,l),
(466,1687,l),
(358,1183,l)
);
},
{
closed = 1;
nodes = (
(222,1183,l),
(359,1687,l),
(174,1687,l),
(118,1183,l)
);
}
);
userData = {
org.robofab.postScriptHintData = {
};
};
vertWidth = 0;
width = 714;
}
);
unicode = 779;
},
{
color = 9;
glyphname = caroncomb.alt;
lastChange = "2023-07-27 15:31:07 +0000";
layers = (
{
anchors = (
{
name = _topright;
pos = (109,1437);
}
);
layerId = "C1664359-F853-4045-A63D-7A2F9FE31172";
shapes = (
{
closed = 1;
nodes = (
(216,1007,l),
(229,1056,o),
(240,1106,o),
(250,1157,cs),
(267,1244,o),
(284,1349,o),
(284,1436,c),
(129,1436,l),
(129,1357,o),
(133,1232,o),
(135,1173,cs),
(141,1007,l)
);
}
);
width = 389;
}
);
},
{
glyphname = circumflexcomb;
lastChange = "2023-07-27 15:31:07 +0000";
layers = (
{
anchors = (
{
name = _top;
pos = (377,1031);
},
{
name = top;
pos = (377,1665);
}
);
layerId = "C1664359-F853-4045-A63D-7A2F9FE31172";
shapes = (
{
closed = 1;
nodes = (
(257,1172,l),
(369,1549,l),
(381,1549,l),
(496,1172,l),
(672,1172,l),
(440,1665,l),
(311,1665,l),
(82,1172,l)
);
}
);
userData = {
org.robofab.postScriptHintData = {
};
};
vertWidth = 0;
width = 754;
}
);
unicode = 770;
},
{
glyphname = brevecomb;
lastChange = "2023-07-27 15:31:07 +0000";
layers = (
{
anchors = (
{
name = _top;
pos = (430,1031);
},
{
name = top;
pos = (430,1456);
}
);
layerId = "C1664359-F853-4045-A63D-7A2F9FE31172";
shapes = (
{
closed = 1;
nodes = (
(615,1190,o),
(724,1294,o),
(775,1384,c),
(700,1456,l),
(645,1384,o),
(558,1322,o),
(431,1322,cs),
(307,1322,o),
(221,1380,o),
(162,1456,c),
(85,1384,l),
(144,1286,o),
(255,1190,o),
(431,1190,cs)
);
}
);
userData = {
org.robofab.postScriptHintData = {
};
};
vertWidth = 0;
width = 861;
}
);
unicode = 774;
},
{
glyphname = ringcomb;
lastChange = "2023-07-27 15:31:07 +0000";
layers = (
{
anchors = (
{
name = _top;
pos = (296,1031);
},
{
name = top;
pos = (296,1587);
}
);
layerId = "C1664359-F853-4045-A63D-7A2F9FE31172";
shapes = (
{
closed = 1;
nodes = (
(437,1102,o),
(545,1188,o),
(545,1347,cs),
(545,1496,o),
(442,1587,o),
(299,1587,cs),
(150,1587,o),
(47,1495,o),
(47,1347,cs),
(47,1193,o),
(149,1102,o),
(299,1102,cs)
);
},
{
closed = 1;
nodes = (
(188,1195,o),
(152,1284,o),
(152,1347,cs),
(152,1408,o),
(169,1495,o),
(299,1495,cs),
(411,1495,o),
(441,1407,o),
(441,1347,cs),
(441,1278,o),
(408,1195,o),
(299,1195,cs)
);
}
);
userData = {
org.robofab.postScriptHintData = {
};
};
vertWidth = 0;
width = 579;
}
);
unicode = 778;
},
{
glyphname = tildecomb;
lastChange = "2023-07-27 15:31:07 +0000";
layers = (
{
anchors = (
{
name = _top;
pos = (448,1031);
},
{
name = top;
pos = (448,1414);
}
);
layerId = "C1664359-F853-4045-A63D-7A2F9FE31172";
shapes = (
{
closed = 1;
nodes = (
(693,1177,o),
(772,1226,o),
(772,1394,cs),
(772,1401,l),
(641,1401,l),
(641,1349,o),
(633,1303,o),
(590,1303,cs),
(512,1303,o),
(412,1414,o),
(297,1414,cs),
(252,1414,o),
(209,1402,o),
(177,1370,cs),
(145,1337,o),
(123,1283,o),
(123,1198,cs),
(123,1184,l),
(255,1184,l),
(255,1238,o),
(264,1285,o),
(307,1285,cs),
(359,1285,o),
(469,1200,o),
(563,1181,cs),
(569,1180,o),
(575,1179,o),
(581,1179,cs),
(587,1178,o),
(594,1178,o),
(601,1177,c)
);
}
);
userData = {
org.robofab.postScriptHintData = {
};
};
vertWidth = 0;
width = 893;
}
);
unicode = 771;
},
{
glyphname = macroncomb;
lastChange = "2023-07-27 15:31:07 +0000";
layers = (
{
anchors = (
{
name = _top;
pos = (446,1031);
},
{
name = top;
pos = (446,1319);
}
);
layerId = "C1664359-F853-4045-A63D-7A2F9FE31172";
shapes = (
{
closed = 1;
nodes = (
(741,1215,l),
(741,1349,l),
(150,1349,l),
(150,1215,l)
);
}
);
userData = {
org.robofab.postScriptHintData = {
};
};
vertWidth = 0;
width = 890;
}
);
unicode = 772;
},
{
glyphname = dblgravecomb;
lastChange = "2023-07-27 15:31:07 +0000";
layers = (
{
anchors = (
{
name = _top;
pos = (440,1031);
},
{
name = top;
pos = (341,1687);
}
);
layerId = "C1664359-F853-4045-A63D-7A2F9FE31172";
shapes = (
{
closed = 1;
nodes = (
(592,1172,l),
(526,1665,l),
(342,1665,l),
(509,1172,l)
);
},
{
closed = 1;
nodes = (
(322,1172,l),
(256,1665,l),
(72,1665,l),
(239,1172,l)
);
}
);
userData = {
org.robofab.postScriptHintData = {
};
};
vertWidth = 0;
width = 714;
}
);
unicode = 783;
},
{
glyphname = breveinvertedcomb;
lastChange = "2023-07-27 15:31:07 +0000";
layers = (
{
anchors = (
{
name = _top;
pos = (430,1031);
},
{
name = top;
pos = (430,1456);
}
);
layerId = "C1664359-F853-4045-A63D-7A2F9FE31172";
shapes = (
{
closed = 1;
nodes = (
(221,1266,o),
(307,1324,o),
(431,1324,cs),
(556,1324,o),
(646,1262,o),
(700,1190,c),
(775,1262,l),
(722,1353,o),
(616,1456,o),
(431,1456,cs),
(255,1456,o),
(144,1360,o),
(85,1262,c),
(162,1190,l)
);
}
);
userData = {
org.robofab.postScriptHintData = {
};
};
vertWidth = 0;
width = 861;
}
);
unicode = 785;
},
{
color = 9;
glyphname = commaturnedabovecomb;
lastChange = "2023-07-27 15:31:07 +0000";
layers = (
{
anchors = (
{
name = _top;
pos = (257,1031);
},
{
name = top;
pos = (257,1616);
}
);
layerId = "C1664359-F853-4045-A63D-7A2F9FE31172";
shapes = (
{
closed = 1;
nodes = (
(375,1193,l),
(375,1393,l),
(255,1393,l),
(255,1464,o),
(291,1518,o),
(366,1526,c),
(339,1606,l),
(187,1564,o),
(138,1474,o),
(138,1350,cs),
(138,1303,o),
(141,1261,o),
(144,1229,cs),
(146,1210,o),
(148,1193,o),
(149,1177,c)
);
}
);
width = 507;
}
);
unicode = 786;
},
{
glyphname = commaaccentcomb;
lastChange = "2023-07-27 15:31:07 +0000";
layers = (
{
anchors = (
{
name = _bottom;
pos = (238,0);
},
{
name = bottom;
pos = (238,-538);
}
);
layerId = "C1664359-F853-4045-A63D-7A2F9FE31172";
shapes = (
{
closed = 1;
nodes = (
(308,-495,o),
(356,-405,o),
(356,-282,cs),
(356,-235,o),
(353,-193,o),
(350,-161,cs),
(344,-109,l),
(119,-125,l),
(119,-325,l),
(239,-325,l),
(239,-396,o),
(202,-449,o),
(127,-458,c),
(155,-538,l)
);
}
);
userData = {
org.robofab.postScriptHintData = {
};
};
vertWidth = 0;
width = 441;
}
);
unicode = 806;
},
{
glyphname = cedillacomb;
lastChange = "2023-07-27 15:31:07 +0000";
layers = (
{
anchors = (
{
name = _bottom;
pos = (300,0);
},
{
name = bottom;
pos = (300,-538);
}
);
layerId = "C1664359-F853-4045-A63D-7A2F9FE31172";
shapes = (
{
closed = 1;
nodes = (
(408,-538,o),
(498,-462,o),
(498,-340,cs),
(498,-264,o),
(457,-213,o),
(399,-187,cs),
(340,-160,o),
(274,-155,o),
(226,-155,c),
(234,-122,ls),
(237,-105,o),
(241,-88,o),
(246,-69,cs),
(263,2,l),
(161,2,l),
(154,-37,o),
(148,-73,o),
(143,-105,cs),
(135,-164,o),
(123,-219,o),
(123,-232,c),
(202,-239,o),
(268,-243,o),
(314,-258,cs),
(360,-273,o),
(386,-298,o),
(386,-345,cs),
(386,-373,o),
(373,-437,o),
(278,-437,cs),
(239,-437,o),
(196,-427,o),
(161,-416,cs),
(140,-409,o),
(120,-402,o),
(101,-394,c),
(111,-490,l),
(124,-499,o),
(140,-507,o),
(157,-514,cs),
(188,-526,o),
(230,-538,o),
(283,-538,cs)
);
}
);
userData = {
org.robofab.postScriptHintData = {
};
};
vertWidth = 0;
width = 537;
}
);
unicode = 807;
},
{
glyphname = ogonekcomb;
lastChange = "2023-07-27 15:31:07 +0000";
layers = (
{
anchors = (
{
name = _ogonek;
pos = (373,12);
}
);
layerId = "C1664359-F853-4045-A63D-7A2F9FE31172";
shapes = (
{
closed = 1;
nodes = (
(420,-468,o),
(459,-459,o),
(486,-448,cs),
(502,-442,o),
(515,-435,o),
(526,-428,c),
(540,-309,l),
(526,-317,o),
(510,-324,o),
(493,-330,cs),
(462,-341,o),
(422,-351,o),
(373,-351,cs),
(257,-351,o),
(202,-305,o),
(202,-193,cs),
(202,-105,o),
(261,-31,o),
(373,12,c),
(373,75,l),
(235,41,o),
(81,-41,o),
(81,-218,cs),
(81,-352,o),
(170,-468,o),
(364,-468,cs)
);
}
);
userData = {
org.robofab.postScriptHintData = {
};
};
vertWidth = 0;
width = 591;
}
);
unicode = 808;
},
